{
.appVersion = "3217";
.formatVersion = 3;
axes = (
{
name = Weight;
tag = wght;
}
);
classes = (
{
automatic = 1;
code = "A Aacute Abreve Acaron Acircumflex Adieresis Agrave Amacron Aogonek Aring Atilde AE B C Cacute Ccaron Ccedilla Cdotaccent D Dcaron Dcroat Eth E Eacute Ecaron Ecircumflex Edieresis Edotaccent Egrave Emacron Eogonek Etilde Schwa F G Gbreve Gcommaaccent Gdotaccent Gmacron H Hbar I IJ Iacute Icaron Icircumflex Idieresis Idotaccent Igrave Imacron Iogonek Itilde J Jacute K Kcommaaccent L Lacute Lcaron Lcommaaccent Lslash M N Nacute Ncaron Ncommaaccent Ntilde O Oacute Ocaron Ocircumflex Odieresis Ograve Ohungarumlaut Omacron Oslash Otilde OE P Thorn Q R Racute Rcaron Rcommaaccent S Sacute Scaron Scedilla Scommaaccent Germandbls T Tcaron Tcedilla Tcommaaccent U Uacute Ucaron Ucircumflex Udieresis Ugrave Uhungarumlaut Umacron Uogonek Uring Utilde V W Wacute Wcircumflex Wdieresis Wgrave X Y Yacute Ycircumflex Ydieresis Ygrave Ytilde Z Zacute Zcaron Zdotaccent Lcommaaccent.loclMAH Ncommaaccent.loclMAH I.ss01 IJ.ss01 Iacute.ss01 Icircumflex.ss01 Idieresis.ss01 Idotaccent.ss01 Igrave.ss01 Imacron.ss01 Iogonek.ss01 Itilde.ss01 Q.ss01";
name = Uppercase;
}
);
customParameters = (
{
name = "Use Typo Metrics";
value = 1;
},
{
name = fsType;
value = (
);
},
{
name = unicodeRanges;
value = (
0,
1,
2
);
}
);
date = "2018-11-15 21:51:33 +0000";
familyName = Mattone;
featurePrefixes = (
{
automatic = 1;
code = "languagesystem DFLT dflt;

languagesystem latn dflt;
languagesystem latn AZE;
languagesystem latn CRT;
languagesystem latn KAZ;
languagesystem latn TAT;
languagesystem latn TRK;
languagesystem latn ROM;
languagesystem latn MOL;
languagesystem latn MAH;
languagesystem latn NLD;
";
name = Languagesystems;
}
);
features = (
{
automatic = 1;
code = "feature locl;
feature sups;
feature frac;
feature ordn;
feature case;
feature ss01;
";
tag = aalt;
},
{
automatic = 1;
code = "lookup ccmp_Other_1 {

glyphs = (
{
glyphname = A;
kernLeft = A;
kernRight = A;
layers = (
{
anchors = (
{
name = bottom;
pos = (484,0);
},
{
name = ogonek;
pos = (948,7);
},
{
name = top;
pos = (484,750);
}
);
layerId = "6BCBDBF6-8315-4194-A290-F71994A92467";
shapes = (
{
closed = 1;
nodes = (
(511,672,l),
(453,672,l),
(774,0,l),
(952,0,l),
(565,750,l),
(399,750,l),
(15,0,l),
(190,0,l)
);
},
{
closed = 1;
nodes = (
(252,180,l),
(705,180,l),
(705,305,l),
(262,305,l)
);
}
);
width = 968;
},
{
associatedMasterId = "6BCBDBF6-8315-4194-A290-F71994A92467";
layerId = "697832EB-163A-429C-8980-FAB6860436DF";
name = foreground;
shapes = (
{
closed = 1;
nodes = (
(487,595,l),
(789,0,l),
(968,0,l),
(576,750,l),
(400,750,l),
(10,0,l),
(185,0,l)
);
},
{
closed = 1;
nodes = (
(267,183,l),
(710,183,l),
(710,313,l),
(267,313,l)
);
}
);
width = 978;
},
{
anchors = (
{
name = bottom;
pos = (571,0);
},
{
name = ogonek;
pos = (1089,10);
},
{
name = top;
pos = (571,750);
}
);
layerId = "4F9EBE27-C263-4ED9-B2A0-4AD0096E628D";
shapes = (
{
closed = 1;
nodes = (
(624,670,l),
(494,670,l),
(773,0,l),
(1136,0,l),
(769,750,l),
(370,750,l),
(6,0,l),
(345,0,l)
);
},
{
closed = 1;
nodes = (
(337,138,l),
(770,138,l),
(770,293,l),
(347,293,l)
);
}
);
width = 1140;
}
);
unicode = 65;
},
{
glyphname = AE;
kernLeft = A;
kernRight = E;
layers = (
{
anchors = (
{
name = bottom;
pos = (666,0);
},
{
name = top;
pos = (666,750);
}
);
layerId = "6BCBDBF6-8315-4194-A290-F71994A92467";
shapes = (
{
closed = 1;
nodes = (
(490,620,l),
(639,620,l),
(688,750,l),
(398,750,l),
(10,0,l),
(188,0,l)
);
},
{
closed = 1;
nodes = (
(270,233,l),
(683,233,l),
(683,363,l),
(270,363,l)
);
},
{
closed = 1;
nodes = (
(1286,0,l),
(1286,130,l),
(763,130,l),
(763,314,l),
(1224,314,l),
(1224,444,l),
(763,444,l),
(763,620,l),
(1278,620,l),
(1278,750,l),
(603,750,l),
(603,0,l)
);
}
);
width = 1331;
},
{
anchors = (
{
name = bottom;
pos = (296,0);
},
{
name = top;
pos = (296,750);
}
);
background = {
shapes = (
{
closed = 1;
nodes = (
(629,670,l),
(499,670,l),
(778,0,l),
(1141,0,l),
(774,750,l),
(375,750,l),
(11,0,l),
(350,0,l)
);
},
{
closed = 1;
nodes = (
(342,138,l),
(775,138,l),
(775,293,l),
(352,293,l)
);
}
);
};
layerId = "4F9EBE27-C263-4ED9-B2A0-4AD0096E628D";
shapes = (
{
closed = 1;
nodes = (
(591,560,l),
(640,560,l),
(684,750,l),
(382,750,l),
(6,0,l),
(346,0,l)
);
},
{
closed = 1;
nodes = (
(266,164,l),
(679,164,l),
(679,333,l),
(266,333,l)
);
},
{
closed = 1;
nodes = (
(1441,0,l),
(1441,200,l),
(940,200,l),
(940,298,l),
(1390,298,l),
(1390,464,l),
(940,464,l),
(940,560,l),
(1433,560,l),
(1433,750,l),
(630,750,l),
(630,0,l)
);
}
);
width = 1478;
}
);
metricRight = E;
unicode = 198;
},
{
glyphname = B;
kernLeft = H;
kernRight = B;
layers = (
{
anchors = (
{
name = bottom;
pos = (426,0);
},
{
name = center;
pos = (434,375);
},
{
name = top;
pos = (426,750);
}
);
background = {
shapes = (
{
closed = 1;
nodes = (
(580,0,ls),
(747,0,o),
(838,66,o),
(838,186,cs),
(838,300,o),
(757,383,o),
(644,385,c),
(743,393,o),
(810,464,o),
(810,563,cs),
(810,683,o),
(712,750,o),
(534,750,cs),
(54,750,l),
(54,0,l)
);
},
{
closed = 1;
nodes = (
(214,620,l),
(516,620,ls),
(600,620,o),
(645,589,o),
(645,530,cs),
(645,473,o),
(601,442,o),
(520,442,cs),
(214,442,l)
);
},
{
closed = 1;
nodes = (
(214,319,l),
(524,319,ls),
(618,319,o),
(673,282,o),
(673,219,cs),
(673,164,o),
(631,130,o),
(562,130,cs),
(214,130,l)
);
}
);
};
guides = (
{
pos = (379,222);
}
);
layerId = "6BCBDBF6-8315-4194-A290-F71994A92467";
shapes = (
{
closed = 1;
nodes = (
(580,0,ls),
(747,0,o),
(838,76,o),
(838,196,cs),
(838,305,o),
(762,383,o),
(665,385,c),
(748,394,o),
(810,460,o),
(810,553,cs),
(810,673,o),
(712,750,o),
(534,750,cs),
(70,750,l),
(70,0,l)
);
},
{
closed = 1;
nodes = (
(220,625,l),
(516,625,ls),
(600,625,o),
(645,594,o),
(645,530,cs),
(645,473,o),
(601,442,o),
(520,442,cs),
(220,442,l)
);
},
{
closed = 1;
nodes = (
(220,319,l),
(524,319,ls),
(618,319,o),
(673,282,o),
(673,219,cs),
(673,161,o),
(631,127,o),
(562,127,cs),
(220,127,l)
);
}
);
width = 868;
},
{
associatedMasterId = "6BCBDBF6-8315-4194-A290-F71994A92467";
guides = (
{
pos = (395,222);
}
);
layerId = "0B912536-1948-490B-A378-AA6B4ECC8F78";
name = foreground;
shapes = (
{
closed = 1;
nodes = (
(596,0,ls),
(763,0,o),
(854,76,o),
(854,196,cs),
(854,305,o),
(778,383,o),
(681,385,c),
(764,394,o),
(826,460,o),
(826,553,cs),
(826,673,o),
(728,750,o),
(550,750,cs),
(70,750,l),
(70,0,l)
);
},
{
closed = 1;
nodes = (
(230,620,l),
(532,620,ls),
(616,620,o),
(661,589,o),
(661,530,cs),
(661,473,o),
(617,442,o),
(536,442,cs),
(230,442,l)
);
},
{
closed = 1;
nodes = (
(230,319,l),
(540,319,ls),
(634,319,o),
(689,282,o),
(689,219,cs),
(689,164,o),
(647,130,o),
(578,130,cs),
(230,130,l)
);
}
);
width = 894;
},
{
anchors = (
{
name = bottom;
pos = (517,0);
},
{
name = center;
pos = (517,375);
},
{
name = top;
pos = (517,750);
}
);
layerId = "4F9EBE27-C263-4ED9-B2A0-4AD0096E628D";
shapes = (
{
closed = 1;
nodes = (
(718,0,ls),
(885,0,o),
(976,76,o),
(976,196,cs),
(976,305,o),
(900,383,o),
(753,385,c),
(886,394,o),
(948,460,o),
(948,553,cs),
(948,673,o),
(850,750,o),
(672,750,cs),
(58,750,l),
(58,0,l)
);
},
{
closed = 1;
nodes = (
(358,575,l),
(532,575,ls),
(603,575,o),
(638,560,o),
(638,514,cs),
(638,470,o),
(604,456,o),
(536,456,cs),
(358,456,l)
);
},
{
closed = 1;
nodes = (
(358,299,l),
(540,299,ls),
(626,299,o),
(666,283,o),
(666,234,cs),
(666,191,o),
(638,177,o),
(590,177,cs),
(358,177,l)
);
}
);
width = 1000;
}
);
metricLeft = H;
unicode = 66;
},
{
glyphname = C;
kernLeft = O;
kernRight = C;
layers = (
{
anchors = (
{
name = bottom;
pos = (439,0);
},
{
name = top;
pos = (467,750);
}
);
background = {
shapes = (
{
closed = 1;
nodes = (
(788,714,l),
(714,748,o),
(621,770,o),
(514,770,cs),
(229,770,o),
(55,621,o),
(55,377,cs),
(55,129,o),
(229,-21,o),
(514,-21,cs),
(617,-21,o),
(727,1,o),
(800,35,c),
(800,181,l),
(742,143,o),
(632,109,o),
(524,109,cs),
(333,109,o),
(215,207,o),
(215,377,cs),
(215,542,o),
(333,640,o),
(524,640,cs),
(637,640,o),
(727,606,o),
(788,566,c)
);
}
);
};
layerId = "6BCBDBF6-8315-4194-A290-F71994A92467";
shapes = (
{
closed = 1;
nodes = (
(778,711,l),
(704,745,o),
(611,767,o),
(504,767,cs),
(219,767,o),
(45,618,o),
(45,375,cs),
(45,132,o),
(219,-18,o),
(507,-18,cs),
(606,-18,o),
(704,-2,o),
(792,38,c),
(801,182,l),
(710,138,o),
(620,115,o),
(525,115,cs),
(323,115,o),
(210,205,o),
(210,374,cs),
(210,547,o),
(317,639,o),
(514,639,cs),
(614,639,o),
(706,612,o),
(787,571,c)
);
}
);
width = 836;
},
{
associatedMasterId = "6BCBDBF6-8315-4194-A290-F71994A92467";
layerId = "6F13AF44-F1A6-4E71-85B3-0AEBE3DDAEAB";
name = foreground;
shapes = (
{
closed = 1;
nodes = (
(778,714,l),
(704,748,o),
(611,770,o),
(504,770,cs),
(219,770,o),
(45,621,o),
(45,375,cs),
(45,129,o),
(219,-21,o),
(504,-21,cs),
(597,-21,o),
(704,-5,o),
(790,35,c),
(803,176,l),
(714,134,o),
(603,109,o),
(508,109,cs),
(326.053,109,o),
(210,207,o),
(210,374,cs),
(210,543,o),
(326.133,642,o),
(521,642,cs),
(611,642,o),
(695,622,o),
(787,564,c)
);
}
);
width = 843;
},
{
anchors = (
{
name = bottom;
pos = (510,0);
},
{
name = top;
pos = (510,750);
}
);
background = {
shapes = (
{
closed = 1;
nodes = (
(856,729,l),
(776,756,o),
(675,775,o),
(549,775,cs),
(208,775,o),
(23,638,o),
(23,372,cs),
(23,106,o),
(212,-26,o),
(549,-26,cs),
(688,-26,o),
(791,-4,o),
(872,33,c),
(884,261,l),
(784,225,o),
(708,210,o),
(627,210,cs),
(446,210,o),
(371,261,o),
(371,382,cs),
(371,501,o),
(442,551,o),
(620,551,cs),
(728,551,o),
(798,536,o),
(865,509,c)
);
}
);
};
layerId = "4F9EBE27-C263-4ED9-B2A0-4AD0096E628D";
shapes = (
{
closed = 1;
nodes = (
(856,738,l),
(776,756,o),
(675,775,o),
(549,775,cs),
(208,775,o),
(23,638,o),
(23,372,cs),
(23,106,o),
(212,-26,o),
(549,-26,cs),
(688,-26,o),
(791,-4,o),
(872,24,c),
(884,262,l),
(784,235,o),
(708,220,o),
(627,220,cs),
(446,220,o),
(371,271,o),
(371,382,cs),
(371,501,o),
(442,551,o),
(620,551,cs),
(728,551,o),
(798,536,o),
(865,518,c)
);
}
);
width = 925;
}
);
metricLeft = O;
unicode = 67;
},
{
glyphname = D;
kernLeft = H;
kernRight = O;
layers = (
{
anchors = (
{
name = bottom;
pos = (430,0);
},
{
name = center;
pos = (430,375);
},
{
name = top;
pos = (412,740);
}
);
layerId = "6BCBDBF6-8315-4194-A290-F71994A92467";
shapes = (
{
closed = 1;
nodes = (
(444,0,ls),
(685,0,o),
(845,150,o),
(845,375,cs),
(845,600,o),
(685,750,o),
(444,750,cs),
(70,750,l),
(70,0,l)
);
},
{
closed = 1;
nodes = (
(230,620,l),
(440,620,ls),
(590,620,o),
(685,521,o),
(685,371,cs),
(685,223,o),
(592,130,o),
(440,130,cs),
(230,130,l)
);
}
);
width = 890;
},
{
associatedMasterId = "6BCBDBF6-8315-4194-A290-F71994A92467";
layerId = "86DA962B-1FCA-4B21-B43D-1508AD8E30DE";
name = foreground;
shapes = (
{
closed = 1;
nodes = (
(474,0,ls),
(715,0,o),
(875,150,o),
(875,375,cs),
(875,600,o),
(715,750,o),
(474,750,cs),
(70,750,l),
(70,0,l)
);
},
{
closed = 1;
nodes = (
(230,620,l),
(470,620,ls),
(620,620,o),
(715,521,o),
(715,371,cs),
(715,223,o),
(622,130,o),
(470,130,cs),
(230,130,l)
);
}
);
width = 930;
},
{
anchors = (
{
name = bottom;
pos = (511,0);
},
{
name = center;
pos = (511,375);
},
{
name = top;
pos = (511,750);
}
);
background = {
shapes = (
{
closed = 1;
nodes = (
(967,-26,o),
(1140,129,o),
(1140,375,cs),
(1140,620,o),
(967,775,o),
(645,775,cs),
(323,775,o),
(150,620,o),
(150,375,cs),
(150,129,o),
(323,-26,o),
(645,-26,cs)
);
},
{
closed = 1;
nodes = (
(543,204,o),
(490,263,o),
(490,375,cs),
(490,492,o),
(542,550,o),
(647,547,cs),
(747,544,o),
(800,485,o),
(800,375,cs),
(800,263,o),
(747,204,o),
(645,204,cs)
);
},
{
closed = 1;
nodes = (
(460,0,l),
(460,750,l),
(150,750,l),
(150,0,l)
);
}
);
};
layerId = "4F9EBE27-C263-4ED9-B2A0-4AD0096E628D";
shapes = (
{
closed = 1;
nodes = (
(592,0,ls),
(833,0,o),
(993,150,o),
(993,375,cs),
(993,600,o),
(833,750,o),
(592,750,cs),
(58,750,l),
(58,0,l)
);
},
{
closed = 1;
nodes = (
(368,535,l),
(479,535,ls),
(613,535,o),
(673,477,o),
(673,374,cs),
(673,270,o),
(613,215,o),
(479,215,cs),
(368,215,l)
);
}
);
width = 1016;
}
);
metricLeft = H;
metricRight = O;
unicode = 68;
},
{
glyphname = Eth;
kernLeft = H;
kernRight = O;
layers = (
{
layerId = "6BCBDBF6-8315-4194-A290-F71994A92467";
shapes = (
{
closed = 1;
nodes = (
(476,324,l),
(476,444,l),
(0,444,l),
(0,323,l)
);
},
{
ref = D;
}
);
width = 890;
},
{
layerId = "4F9EBE27-C263-4ED9-B2A0-4AD0096E628D";
shapes = (
{
closed = 1;
nodes = (
(506,304,l),
(506,454,l),
(0,454,l),
(0,303,l)
);
},
{
pos = (30,0);
ref = D;
}
);
width = 1046;
}
);
metricRight = D;
unicode = 208;
},
{
glyphname = E;
kernLeft = H;
kernRight = E;
layers = (
{
anchors = (
{
name = bottom;
pos = (402,0);
},
{
name = ogonek;
pos = (748,7);
},
{
name = top;
pos = (402,750);
},
{
name = topleft;
pos = (20,750);
}
);
layerId = "6BCBDBF6-8315-4194-A290-F71994A92467";
shapes = (
{
closed = 1;
nodes = (
(753,0,l),
(753,130,l),
(230,130,l),
(230,318,l),
(691,318,l),
(691,444,l),
(230,444,l),
(230,620,l),
(745,620,l),
(745,750,l),
(70,750,l),
(70,0,l)
);
}
);
width = 798;
},
{
associatedMasterId = "6BCBDBF6-8315-4194-A290-F71994A92467";
layerId = "52E13490-14C7-40A0-8056-84C98BC82FBD";
name = foreground;
shapes = (
{
closed = 1;
nodes = (
(753,0,l),
(753,130,l),
(230,130,l),
(230,314,l),
(691,314,l),
(691,444,l),
(230,444,l),
(230,620,l),
(745,620,l),
(745,750,l),
(70,750,l),
(70,0,l)
);
}
);
width = 803;
},
{
anchors = (
{
name = bottom;
pos = (416,0);
},
{
name = ogonek;
pos = (822,10);
},
{
name = top;
pos = (416,750);
},
{
name = topleft;
pos = (34,750);
}
);
background = {
shapes = (
{
closed = 1;
nodes = (
(364,0,l),
(364,277,l),
(676,277,l),
(676,477,l),
(364,477,l),
(364,750,l),
(54,750,l),
(54,0,l)
);
}
);
};
layerId = "4F9EBE27-C263-4ED9-B2A0-4AD0096E628D";
shapes = (
{
closed = 1;
nodes = (
(869,0,l),
(869,200,l),
(368,200,l),
(368,298,l),
(818,298,l),
(818,464,l),
(368,464,l),
(368,560,l),
(861,560,l),
(861,750,l),
(58,750,l),
(58,0,l)
);
}
);
width = 906;
}
);
metricLeft = H;
unicode = 69;
},
{
glyphname = Schwa;
kernLeft = O;
kernRight = O;
layers = (
{
layerId = "6BCBDBF6-8315-4194-A290-F71994A92467";
shapes = (
{
closed = 1;
nodes = (
(854,615,o),
(683,770,o),
(416,770,cs),
(293,770,o),
(213,752,o),
(90,696,c),
(70,564,l),
(211,616,o),
(294,632,o),
(383,632,cs),
(559,632,o),
(666,553,o),
(689,429,c),
(45,429,l),
(45,401,ls),
(45,120,o),
(199,-17,o),
(437,-17,cs),
(691,-17,o),
(854,136,o),
(854,375,cs)
);
},
{
closed = 1;
nodes = (
(685,186,o),
(595,114,o),
(438,114,cs),
(288,114,o),
(203,186,o),
(198,319,c),
(692,319,l)
);
}
);
width = 899;
},
{
layerId = "4F9EBE27-C263-4ED9-B2A0-4AD0096E628D";
shapes = (
{
closed = 1;
nodes = (
(1026,652,o),
(829,810,o),
(457,810,cs),
(288,810,o),
(151,777,o),
(57,727,c),
(47,505,l),
(129,543,o),
(241,574,o),
(361,574,cs),
(510,574,o),
(631,525,o),
(688,442,c),
(23,442,l),
(23,395,ls),
(23,113,o),
(206,-36,o),
(492,-36,cs),
(828,-36,o),
(1026,123,o),
(1026,392,cs)
);
},
{
closed = 1;
nodes = (
(691,240,o),
(628,186,o),
(521,186,cs),
(418,186,o),
(362,240,o),
(362,311,c),
(691,311,l)
);
}
);
width = 1049;
}
);
metricLeft = O;
metricRight = O;
unicode = 399;
},
{
glyphname = F;
kernLeft = H;
kernRight = F;
layers = (
{
anchors = (
{
name = bottom;
pos = (377,0);
},
{
name = top;
pos = (377,750);
}
);
layerId = "6BCBDBF6-8315-4194-A290-F71994A92467";
shapes = (
{
closed = 1;
nodes = (
(230,0,l),
(230,310,l),
(670,310,l),
(670,440,l),
(230,440,l),
(230,620,l),
(724,620,l),
(724,750,l),
(70,750,l),
(70,0,l)
);
}
);
width = 754;
},
{
associatedMasterId = "6BCBDBF6-8315-4194-A290-F71994A92467";
layerId = "58AA2E78-C827-409E-A00A-3B183D685FA2";
name = foreground;
shapes = (
{
closed = 1;
nodes = (
(230,0,l),
(230,310,l),
(680,310,l),
(680,440,l),
(230,440,l),
(230,620,l),
(734,620,l),
(734,750,l),
(70,750,l),
(70,0,l)
);
}
);
width = 754;
},
{
anchors = (
{
name = bottom;
pos = (308,0);
},
{
name = top;
pos = (308,750);
}
);
layerId = "4F9EBE27-C263-4ED9-B2A0-4AD0096E628D";
shapes = (
{
closed = 1;
nodes = (
(368,0,l),
(368,248,l),
(788,248,l),
(788,444,l),
(368,444,l),
(368,540,l),
(831,540,l),
(831,750,l),
(58,750,l),
(58,0,l)
);
}
);
width = 868;
}
);
metricLeft = E;
unicode = 70;
},
{
glyphname = G;
kernLeft = O;
kernRight = G;
layers = (
{
anchors = (
{
name = bottom;
pos = (521,0);
},
{
name = top;
pos = (458,750);
}
);
layerId = "6BCBDBF6-8315-4194-A290-F71994A92467";
shapes = (
{
closed = 1;
nodes = (
(45,132,o),
(226,-18,o),
(523,-18,cs),
(656,-18,o),
(778,15,o),
(855,73,c),
(855,425,l),
(488,425,l),
(488,300,l),
(705,300,l),
(705,142,l),
(653,125,o),
(594,116,o),
(534,116,cs),
(318,116,o),
(205,206,o),
(205,376,cs),
(205,548,o),
(321,639,o),
(535,639,cs),
(652,639,o),
(756,612,o),
(824,576,c),
(813,719,l),
(741,747,o),
(641,767,o),
(529,767,cs),
(228,767,o),
(45,618,o),
(45,376,cs)
);
}
);
width = 905;
},
{
associatedMasterId = "6BCBDBF6-8315-4194-A290-F71994A92467";
layerId = "1197D2B9-ED60-4443-BEE4-5A8BA0AA7117";
name = foreground;
shapes = (
{
closed = 1;
nodes = (
(45,129,o),
(226,-21,o),
(523,-21,cs),
(648,-21,o),
(773,9,o),
(855,70,c),
(855,425,l),
(488,425,l),
(488,295,l),
(705,295,l),
(705,139,l),
(656,123,o),
(597,113,o),
(534,113,cs),
(330,113,o),
(205,210,o),
(205,376,cs),
(205,542,o),
(334,640,o),
(543,640,cs),
(649,640,o),
(754,614,o),
(824,567,c),
(813,712,l),
(726,757,o),
(618,770,o),
(529,770,cs),
(228,770,o),
(45,621,o),
(45,376,cs)
);
}
);
width = 895;
},
{
anchors = (
{
name = bottom;
pos = (534,0);
},
{
name = top;
pos = (523,750);
}
);
background = {
shapes = (
{
closed = 1;
nodes = (
(814,719,l),
(734,756,o),
(633,775,o),
(507,775,cs),
(166,775,o),
(-19,638,o),
(-19,372,cs),
(-19,106,o),
(170,-26,o),
(507,-26,cs),
(646,-26,o),
(749,-4,o),
(830,33,c),
(842,261,l),
(764,233,o),
(684,210,o),
(585,210,cs),
(419,210,o),
(329,265,o),
(329,382,cs),
(329,497,o),
(414,551,o),
(571,551,cs),
(666,551,o),
(745,531,o),
(823,499,c)
);
}
);
};
layerId = "4F9EBE27-C263-4ED9-B2A0-4AD0096E628D";
shapes = (
{
closed = 1;
nodes = (
(23,99,o),
(231,-26,o),
(565,-26,cs),
(734,-26,o),
(856,7,o),
(933,45,c),
(933,456,l),
(496,456,l),
(496,291,l),
(677,291,l),
(677,203,l),
(647,198,o),
(617,195,o),
(583,195,cs),
(430,195,o),
(363,254,o),
(363,377,cs),
(363,505,o),
(437,559,o),
(604,559,cs),
(676,559,o),
(767,553,o),
(902,526,c),
(891,741,l),
(813,758,o),
(682,775,o),
(559,775,cs),
(214,775,o),
(23,623,o),
(23,366,cs)
);
}
);
width = 992;
}
);
metricLeft = O;
unicode = 71;
},
{
glyphname = H;
kernLeft = H;
kernRight = H;
layers = (
{
anchors = (
{
name = bottom;
pos = (466,0);
},
{
name = center;
pos = (466,375);
},
{
name = top;
pos = (466,750);
},
{
name = topleft;
pos = (20,750);
}
);
layerId = "6BCBDBF6-8315-4194-A290-F71994A92467";
shapes = (
{
closed = 1;
nodes = (
(230,0,l),
(230,313,l),
(702,313,l),
(702,0,l),
(862,0,l),
(862,750,l),
(702,750,l),
(702,443,l),
(230,443,l),
(230,750,l),
(70,750,l),
(70,0,l)
);
}
);
width = 932;
},
{
associatedMasterId = "6BCBDBF6-8315-4194-A290-F71994A92467";
layerId = "455D1B1E-E55D-4C40-90A2-AD581D1E757E";
name = foreground;
shapes = (
{
closed = 1;
nodes = (
(230,0,l),
(230,313,l),
(702,313,l),
(702,0,l),
(862,0,l),
(862,750,l),
(702,750,l),
(702,443,l),
(230,443,l),
(230,750,l),
(70,750,l),
(70,0,l)
);
}
);
width = 932;
},
{
anchors = (
{
name = bottom;
pos = (504,0);
},
{
name = center;
pos = (504,375);
},
{
name = top;
pos = (504,750);
},
{
name = topleft;
pos = (58,750);
}
);
layerId = "4F9EBE27-C263-4ED9-B2A0-4AD0096E628D";
shapes = (
{
closed = 1;
nodes = (
(368,0,l),
(368,277,l),
(640,277,l),
(640,0,l),
(950,0,l),
(950,750,l),
(640,750,l),
(640,477,l),
(368,477,l),
(368,750,l),
(58,750,l),
(58,0,l)
);
}
);
width = 1010;
}
);
unicode = 72;
},
{
glyphname = Hbar;
kernLeft = H;
kernRight = H;
layers = (
{
layerId = "6BCBDBF6-8315-4194-A290-F71994A92467";
shapes = (
{
closed = 1;
nodes = (
(962,554,l),
(962,663,l),
(20,663,l),
(20,553,l)
);
},
{
pos = (25,0);
ref = H;
}
);
width = 982;
},
{
layerId = "4F9EBE27-C263-4ED9-B2A0-4AD0096E628D";
shapes = (
{
closed = 1;
nodes = (
(1058,534,l),
(1058,693,l),
(-81,693,l),
(-81,533,l)
);
},
{
pos = (-7,0);
ref = H;
}
);
width = 977;
}
);
unicode = 294;
},
{
glyphname = I;
kernLeft = H;
kernRight = H;
layers = (
{
anchors = (
{
name = bottom;
pos = (150,0);
},
{
name = ogonek;
pos = (225,7);
},
{
name = top;
pos = (150,750);
},
{
name = topleft;
pos = (20,750);
}
);
layerId = "6BCBDBF6-8315-4194-A290-F71994A92467";
shapes = (
{
closed = 1;
nodes = (
(230,0,l),
(230,750,l),
(70,750,l),
(70,0,l)
);
}
);
width = 300;
},
{
associatedMasterId = "6BCBDBF6-8315-4194-A290-F71994A92467";
layerId = "5BCDC843-98AD-46E8-9C3C-0E78BE75F217";
name = foreground;
shapes = (
{
closed = 1;
nodes = (
(242,0,l),
(242,750,l),
(82,750,l),
(82,0,l)
);
}
);
width = 324;
},
{
anchors = (
{
name = bottom;
pos = (213,0);
},
{
name = ogonek;
pos = (321,10);
},
{
name = top;
pos = (213,750);
},
{
name = topleft;
pos = (28,750);
}
);
layerId = "4F9EBE27-C263-4ED9-B2A0-4AD0096E628D";
shapes = (
{
closed = 1;
nodes = (
(368,0,l),
(368,750,l),
(58,750,l),
(58,0,l)
);
}
);
width = 428;
}
);
metricLeft = H;
metricRight = H;
unicode = 73;
},
{
glyphname = J;
kernLeft = J;
kernRight = J;
layers = (
{
anchors = (
{
name = bottom;
pos = (322,0);
},
{
name = top;
pos = (435,750);
}
);
background = {
shapes = (
{
closed = 1;
nodes = (
(78,-9,o),
(145,-21,o),
(227,-21,cs),
(465,-21,o),
(609,80,o),
(609,260,cs),
(609,750,l),
(449,750,l),
(449,262,ls),
(449,166,o),
(345,103,o),
(198,103,cs),
(132,103,o),
(64,115,o),
(0,135,c),
(0,15,l)
);
}
);
};
layerId = "6BCBDBF6-8315-4194-A290-F71994A92467";
shapes = (
{
closed = 1;
nodes = (
(93,-9,o),
(166,-21,o),
(248,-21,cs),
(476,-21,o),
(614,69,o),
(614,260,cs),
(614,750,l),
(454,750,l),
(454,264,ls),
(454,173,o),
(371,115,o),
(213,115,cs),
(155,115,o),
(95,123,o),
(35,142,c),
(35,10,l)
);
},
{
closed = 1;
nodes = (
(186,625,l),
(544,625,l),
(544,750,l),
(186,750,l)
);
}
);
width = 684;
},
{
associatedMasterId = "6BCBDBF6-8315-4194-A290-F71994A92467";
layerId = "E7A2DD3C-444B-4F4D-BBC5-906E1B6D35AC";
name = foreground;
shapes = (
{
closed = 1;
nodes = (
(108,-9,o),
(175,-21,o),
(257,-21,cs),
(495,-21,o),
(639,80,o),
(639,260,cs),
(639,750,l),
(479,750,l),
(479,268,ls),
(479,172,o),
(375,109,o),
(228,109,cs),
(159,109,o),
(87,120,o),
(20,141,c),
(30,15,l)
);
}
);
width = 709;
},
{
anchors = (
{
name = bottom;
pos = (357,0);
},
{
name = top;
pos = (572,750);
}
);
associatedMasterId = "6BCBDBF6-8315-4194-A290-F71994A92467";
background = {
shapes = (
{
closed = 1;
nodes = (
(113,-9,o),
(180,-21,o),
(262,-21,cs),
(500,-21,o),
(644,80,o),
(644,260,cs),
(644,750,l),
(484,750,l),
(484,262,ls),
(484,166,o),
(380,103,o),
(233,103,cs),
(167,103,o),
(99,115,o),
(35,135,c),
(35,15,l)
);
}
);
};
layerId = "926FFB61-C86A-4F7B-B2AD-EA84D91FDBC5";
name = "3 Feb 21, 13:43";
shapes = (
{
closed = 1;
nodes = (
(113,-9,o),
(180,-21,o),
(262,-21,cs),
(500,-21,o),
(644,80,o),
(644,260,cs),
(644,750,l),
(484,750,l),
(484,258,ls),
(484,162,o),
(380,109,o),
(233,109,cs),
(164,109,o),
(92,120,o),
(25,147,c),
(35,15,l)
);
}
);
width = 714;
},
{
anchors = (
{
name = bottom;
pos = (396,0);
},
{
name = top;
pos = (480,750);
}
);
layerId = "4F9EBE27-C263-4ED9-B2A0-4AD0096E628D";
shapes = (
{
closed = 1;
nodes = (
(87,-9,o),
(160,-25,o),
(267,-25,cs),
(570,-25,o),
(738,105,o),
(738,296,cs),
(738,750,l),
(428,750,l),
(428,409,ls),
(428,259,o),
(373,210,o),
(192,210,cs),
(124,210,o),
(74,217,o),
(29,232,c),
(29,10,l)
);
},
{
closed = 1;
nodes = (
(180,545,l),
(568,545,l),
(568,750,l),
(180,750,l)
);
}
);
width = 798;
}
);
metricRight = H;
unicode = 74;
},
{
glyphname = K;
kernLeft = H;
kernRight = K;
layers = (
{
anchors = (
{
name = bottom;
pos = (433,0);
},
{
name = top;
pos = (447,750);
}
);
layerId = "6BCBDBF6-8315-4194-A290-F71994A92467";
shapes = (
{
closed = 1;
nodes = (
(230,0,l),
(230,750,l),
(70,750,l),
(70,0,l)
);
},
{
closed = 1;
nodes = (
(857,0,l),
(432,444,l),
(412,474,l),
(263,412,l),
(649,0,l)
);
},
{
closed = 1;
nodes = (
(165,385,l),
(207,255,l),
(362,363,l),
(389,387,l),
(847,750,l),
(638,750,l)
);
}
);
width = 877;
},
{
associatedMasterId = "6BCBDBF6-8315-4194-A290-F71994A92467";
layerId = "098440A0-50DD-4A4F-9BA4-6DCF3EFF94F3";
name = foreground;
shapes = (
{
closed = 1;
nodes = (
(242,0,l),
(242,750,l),
(82,750,l),
(82,0,l)
);
},
{
closed = 1;
nodes = (
(885,0,l),
(465,446,l),
(299,417,l),
(685,0,l)
);
},
{
closed = 1;
nodes = (
(148,320,l),
(225,219,l),
(861,750,l),
(661,750,l)
);
}
);
width = 931;
},
{
anchors = (
{
name = bottom;
pos = (552,0);
},
{
name = top;
pos = (552,750);
}
);
layerId = "4F9EBE27-C263-4ED9-B2A0-4AD0096E628D";
shapes = (
{
closed = 1;
nodes = (
(368,0,l),
(368,750,l),
(58,750,l),
(58,0,l)
);
},
{
closed = 1;
nodes = (
(1045,0,l),
(621,448,l),
(500,474,l),
(301,412,l),
(657,0,l)
);
},
{
closed = 1;
nodes = (
(202,395,l),
(316,199,l),
(471,321,l),
(577,387,l),
(1030,750,l),
(650,750,l)
);
}
);
width = 1069;
}
);
metricLeft = H;
unicode = 75;
},
{
glyphname = L;
kernLeft = H;
kernRight = L;
layers = (
{
anchors = (
{
name = bottom;
pos = (375,0);
},
{
name = center;
pos = (375,375);
},
{
name = top;
pos = (176,750);
},
{
name = topright;
pos = (240,770);
}
);
layerId = "6BCBDBF6-8315-4194-A290-F71994A92467";
shapes = (
{
closed = 1;
nodes = (
(230,0,l),
(700,0,l),
(700,130,l),
(230,130,l),
(230,750,l),
(70,750,l),
(70,0,l)
);
}
);
width = 740;
},
{
associatedMasterId = "6BCBDBF6-8315-4194-A290-F71994A92467";
layerId = "48D46DA8-1553-49FB-AFF2-EF46CFB97878";
name = foreground;
shapes = (
{
closed = 1;
nodes = (
(230,0,l),
(700,0,l),
(700,130,l),
(230,130,l),
(230,750,l),
(70,750,l),
(70,0,l)
);
}
);
width = 750;
},
{
anchors = (
{
name = bottom;
pos = (433,0);
},
{
name = center;
pos = (433,375);
},
{
name = top;
pos = (283,750);
},
{
name = topright;
pos = (399,750);
}
);
layerId = "4F9EBE27-C263-4ED9-B2A0-4AD0096E628D";
shapes = (
{
closed = 1;
nodes = (
(368,0,l),
(838,0,l),
(838,230,l),
(368,230,l),
(368,750,l),
(58,750,l),
(58,0,l)
);
}
);
width = 862;
}
);
metricLeft = H;
unicode = 76;
},
{
glyphname = Lslash;
kernLeft = H;
kernRight = L;
layers = (
{
layerId = "6BCBDBF6-8315-4194-A290-F71994A92467";
shapes = (
{
closed = 1;
nodes = (
(-5,284,l),
(449,469,l),
(449,598,l),
(-5,414,l)
);
},
{
ref = L;
}
);
width = 740;
},
{
layerId = "4F9EBE27-C263-4ED9-B2A0-4AD0096E628D";
shapes = (
{
closed = 1;
nodes = (
(-64,262,l),
(574,500,l),
(574,689,l),
(-64,452,l)
);
},
{
pos = (-9,0);
ref = L;
}
);
width = 853;
}
);
metricRight = L;
unicode = 321;
},
{
glyphname = M;
kernLeft = M;
kernRight = M;
layers = (
{
anchors = (
{
name = bottom;
pos = (523,0);
},
{
name = top;
pos = (523,750);
}
);
layerId = "6BCBDBF6-8315-4194-A290-F71994A92467";
shapes = (
{
closed = 1;
nodes = (
(225,0,l),
(225,590,l),
(198,594,l),
(450,0,l),
(596,0,l),
(847,594,l),
(821,590,l),
(821,0,l),
(976,0,l),
(976,750,l),
(781,750,l),
(496,99,l),
(550,99,l),
(264,750,l),
(70,750,l),
(70,0,l)
);
}
);
width = 1046;
},
{
associatedMasterId = "6BCBDBF6-8315-4194-A290-F71994A92467";
layerId = "D7BA5304-6D57-43F6-BDB7-259F1D7C130B";
name = foreground;
shapes = (
{
closed = 1;
nodes = (
(225,0,l),
(225,513,l),
(470,0,l),
(616,0,l),
(860,513,l),
(860,0,l),
(1016,0,l),
(1016,750,l),
(821,750,l),
(543,161,l),
(264,750,l),
(70,750,l),
(70,0,l)
);
}
);
width = 1086;
},
{
anchors = (
{
name = bottom;
pos = (543,0);
},
{
name = top;
pos = (543,750);
}
);
associatedMasterId = "6BCBDBF6-8315-4194-A290-F71994A92467";
layerId = "42AADCEC-45AB-4145-A14B-645D538153A9";
name = "9 Feb 21, 22:33";
shapes = (
{
closed = 1;
nodes = (
(225,0,l),
(225,580,l),
(198,574,l),
(470,0,l),
(616,0,l),
(887,574,l),
(860,580,l),
(860,0,l),
(1016,0,l),
(1016,750,l),
(821,750,l),
(543,161,l),
(264,750,l),
(70,750,l),
(70,0,l)
);
}
);
width = 1086;
},
{
anchors = (
{
name = bottom;
pos = (382,0);
},
{
name = top;
pos = (373,750);
}
);
layerId = "4F9EBE27-C263-4ED9-B2A0-4AD0096E628D";
shapes = (
{
closed = 1;
nodes = (
(358,0,l),
(358,610,l),
(296,585,l),
(508,0,l),
(694,0,l),
(905,585,l),
(844,590,l),
(844,0,l),
(1144,0,l),
(1144,750,l),
(749,750,l),
(577,288,l),
(625,288,l),
(452,750,l),
(58,750,l),
(58,0,l)
);
}
);
width = 1204;
}
);
metricLeft = H;
metricRight = H;
unicode = 77;
},
{
glyphname = N;
kernLeft = H;
kernRight = H;
layers = (
{
anchors = (
{
name = bottom;
pos = (466,0);
},
{
name = top;
pos = (476,750);
}
);
layerId = "6BCBDBF6-8315-4194-A290-F71994A92467";
shapes = (
{
closed = 1;
nodes = (
(230,0,l),
(230,613,l),
(185,596,l),
(722,0,l),
(882,0,l),
(882,750,l),
(722,750,l),
(722,137,l),
(767,154,l),
(230,750,l),
(70,750,l),
(70,0,l)
);
}
);
width = 952;
},
{
associatedMasterId = "6BCBDBF6-8315-4194-A290-F71994A92467";
layerId = "E4CD88F4-33E6-49EA-A615-963C47427C7C";
name = foreground;
shapes = (
{
closed = 1;
nodes = (
(230,0,l),
(230,546,l),
(722,0,l),
(882,0,l),
(882,750,l),
(722,750,l),
(722,204,l),
(230,750,l),
(70,750,l),
(70,0,l)
);
}
);
width = 952;
},
{
anchors = (
{
name = bottom;
pos = (544,0);
},
{
name = top;
pos = (544,750);
}
);
layerId = "4F9EBE27-C263-4ED9-B2A0-4AD0096E628D";
shapes = (
{
closed = 1;
nodes = (
(358,0,l),
(358,610,l),
(286,585,l),
(608,0,l),
(1029,0,l),
(1029,750,l),
(729,750,l),
(729,288,l),
(753,288,l),
(502,750,l),
(58,750,l),
(58,0,l)
);
}
);
width = 1089;
}
);
metricLeft = H;
metricRight = H;
unicode = 78;
},
{
glyphname = O;
kernLeft = O;
kernRight = O;
layers = (
{
anchors = (
{
name = bottom;
pos = (490,0);
},
{
name = center;
pos = (490,375);
},
{
name = ogonek;
pos = (882,10);
},
{
name = top;
pos = (490,750);
},
{
name = topleft;
pos = (20,750);
},
{
name = topright;
pos = (960,750);
}
);
layerId = "6BCBDBF6-8315-4194-A290-F71994A92467";
shapes = (
{
closed = 1;
nodes = (
(762,-18,o),
(935,137,o),
(935,375,cs),
(935,612,o),
(762,767,o),
(490,767,cs),
(218,767,o),
(45,612,o),
(45,375,cs),
(45,137,o),
(218,-18,o),
(490,-18,cs)
);
},
{
closed = 1;
nodes = (
(317,114,o),
(205,216,o),
(205,375,cs),
(205,534,o),
(317,637,o),
(490,637,cs),
(663,637,o),
(775,534,o),
(775,375,cs),
(775,216,o),
(663,114,o),
(490,114,cs)
);
}
);
width = 980;
},
{
associatedMasterId = "6BCBDBF6-8315-4194-A290-F71994A92467";
layerId = "8F811ACE-6062-44A9-8268-CC7A9FE24AA3";
name = foreground;
shapes = (
{
closed = 1;
nodes = (
(762,-21,o),
(935,134,o),
(935,375,cs),
(935,615,o),
(762,770,o),
(490,770,cs),
(218,770,o),
(45,615,o),
(45,375,cs),
(45,134,o),
(218,-21,o),
(490,-21,cs)
);
},
{
closed = 1;
nodes = (
(323,109,o),
(205,214,o),
(205,375,cs),
(205,535,o),
(323,640,o),
(490,640,cs),
(657,640,o),
(775,535,o),
(775,375,cs),
(775,214,o),
(657,109,o),
(490,109,cs)
);
}
);
width = 980;
},
{
anchors = (
{
name = bottom;
pos = (528,0);
},
{
name = center;
pos = (528,375);
},
{
name = ogonek;
pos = (948,10);
},
{
name = top;
pos = (528,750);
},
{
name = topleft;
pos = (23,750);
},
{
name = topright;
pos = (1033,750);
}
);
layerId = "4F9EBE27-C263-4ED9-B2A0-4AD0096E628D";
shapes = (
{
closed = 1;
nodes = (
(860,-26,o),
(1033,129,o),
(1033,375,cs),
(1033,620,o),
(860,775,o),
(528,775,cs),
(196,775,o),
(23,620,o),
(23,375,cs),
(23,129,o),
(196,-26,o),
(528,-26,cs)
);
},
{
closed = 1;
nodes = (
(416,204,o),
(363,263,o),
(363,375,cs),
(363,491,o),
(416,550,o),
(530,547,cs),
(640,544,o),
(693,485,o),
(693,375,cs),
(693,263,o),
(640,204,o),
(528,204,cs)
);
}
);
width = 1056;
}
);
unicode = 79;
},
{
glyphname = Oslash;
kernLeft = O;
kernRight = O;
layers = (
{
layerId = "6BCBDBF6-8315-4194-A290-F71994A92467";
shapes = (
{
closed = 1;
nodes = (
(70,23,l),
(152,-58,l),
(937,711,l),
(855,793,l)
);
},
{
ref = O;
}
);
width = 980;
},
{
layerId = "4F9EBE27-C263-4ED9-B2A0-4AD0096E628D";
shapes = (
{
closed = 1;
nodes = (
(70,25,l),
(182,-87,l),
(988,718,l),
(875,831,l)
);
},
{
ref = O;
}
);
width = 1053;
}
);
unicode = 216;
},
{
glyphname = OE;
kernLeft = O;
kernRight = E;
layers = (
{
anchors = (
{
name = bottom;
pos = (1382,0);
},
{
name = center;
pos = (490,375);
},
{
name = ogonek;
pos = (1728,7);
},
{
name = top;
pos = (1382,750);
},
{
name = topleft;
pos = (1000,750);
},
{
name = topright;
pos = (960,750);
}
);
layerId = "6BCBDBF6-8315-4194-A290-F71994A92467";
shapes = (
{
closed = 1;
nodes = (
(691,750,l),
(640,760,o),
(570,767,o),
(490,767,cs),
(218,767,o),
(45,612,o),
(45,375,cs),
(45,137,o),
(218,-18,o),
(490,-18,cs),
(570,-18,o),
(641,-9,o),
(692,1,c),
(703,160,l),
(653,131,o),
(580,114,o),
(490,114,cs),
(317,114,o),
(205,216,o),
(205,375,cs),
(205,534,o),
(317,637,o),
(490,637,cs),
(580,637,o),
(653,619,o),
(703,591,c)
);
},
{
closed = 1;
nodes = (
(1373,0,l),
(1373,130,l),
(850,130,l),
(850,318,l),
(1311,318,l),
(1311,444,l),
(850,444,l),
(850,620,l),
(1365,620,l),
(1365,750,l),
(690,750,l),
(690,0,l)
);
}
);
width = 1418;
},
{
anchors = (
{
name = bottom;
pos = (493,0);
},
{
name = center;
pos = (493,375);
},
{
name = ogonek;
pos = (885,10);
},
{
name = top;
pos = (493,750);
},
{
name = topleft;
pos = (23,750);
},
{
name = topright;
pos = (963,750);
}
);
layerId = "4F9EBE27-C263-4ED9-B2A0-4AD0096E628D";
shapes = (
{
closed = 1;
nodes = (
(726,740,l),
(659,762,o),
(591,775,o),
(501,775,cs),
(196,775,o),
(23,620,o),
(23,375,cs),
(23,129,o),
(196,-26,o),
(498,-26,cs),
(591,-26,o),
(664,-11,o),
(726,15,c),
(716,263,l),
(670,215,o),
(599,204,o),
(548,204,cs),
(426,204,o),
(353,263,o),
(353,375,cs),
(353,491,o),
(426,547,o),
(550,547,cs),
(632,547,o),
(679,520,o),
(716,483,c)
);
},
{
closed = 1;
nodes = (
(1497,0,l),
(1497,200,l),
(996,200,l),
(996,298,l),
(1446,298,l),
(1446,464,l),
(996,464,l),
(996,560,l),
(1489,560,l),
(1489,750,l),
(686,750,l),
(686,0,l)
);
}
);
width = 1534;
}
);
metricLeft = O;
metricRight = E;
unicode = 338;
},
{
glyphname = P;
kernLeft = H;
kernRight = P;
layers = (
{
anchors = (
{
name = bottom;
pos = (431,0);
},
{
name = top;
pos = (431,750);
}
);
layerId = "6BCBDBF6-8315-4194-A290-F71994A92467";
shapes = (
{
closed = 1;
nodes = (
(230,0,l),
(230,280,l),
(576,280,ls),
(702,280,o),
(827,355,o),
(827,515,cs),
(827,639,o),
(752,750,o),
(576,750,cs),
(70,750,l),
(70,0,l)
);
},
{
closed = 1;
nodes = (
(230,620,l),
(519,620,ls),
(623,620,o),
(667,589,o),
(667,515,cs),
(667,441,o),
(626,410,o),
(526,410,cs),
(230,410,l)
);
}
);
width = 862;
},
{
associatedMasterId = "6BCBDBF6-8315-4194-A290-F71994A92467";
layerId = "0910EA56-68CF-428B-95E6-80752DD1FB37";
name = foreground;
shapes = (
{
closed = 1;
nodes = (
(242,0,l),
(242,280,l),
(588,280,ls),
(714,280,o),
(839,355,o),
(839,515,cs),
(839,639,o),
(764,750,o),
(588,750,cs),
(82,750,l),
(82,0,l)
);
},
{
closed = 1;
nodes = (
(242,620,l),
(531,620,ls),
(630,620,o),
(679,585,o),
(679,515,cs),
(679,447,o),
(632,410,o),
(538,410,cs),
(242,410,l)
);
}
);
width = 884;
},
{
anchors = (
{
name = bottom;
pos = (497,0);
},
{
name = top;
pos = (497,750);
}
);
layerId = "4F9EBE27-C263-4ED9-B2A0-4AD0096E628D";
shapes = (
{
closed = 1;
nodes = (
(368,0,l),
(368,220,l),
(724,220,ls),
(877,220,o),
(975,326,o),
(975,491,cs),
(975,649,o),
(877,750,o),
(724,750,cs),
(58,750,l),
(58,0,l)
);
},
{
closed = 1;
nodes = (
(368,550,l),
(547,550,ls),
(619,550,o),
(655,536,o),
(655,485,cs),
(655,436,o),
(620,420,o),
(554,420,cs),
(368,420,l)
);
}
);
width = 989;
}
);
metricLeft = H;
unicode = 80;
},
{
glyphname = Thorn;
kernLeft = H;
kernRight = Thorn;
layers = (
{
layerId = "6BCBDBF6-8315-4194-A290-F71994A92467";
shapes = (
{
closed = 1;
nodes = (
(230,0,l),
(230,160,l),
(576,160,ls),
(702,160,o),
(827,235,o),
(827,395,cs),
(827,519,o),
(752,630,o),
(576,630,cs),
(230,630,l),
(230,785,l),
(70,785,l),
(70,0,l)
);
},
{
closed = 1;
nodes = (
(230,500,l),
(519,500,ls),
(623,500,o),
(667,469,o),
(667,395,cs),
(667,321,o),
(626,290,o),
(526,290,cs),
(230,290,l)
);
}
);
width = 862;
},
{
layerId = "4F9EBE27-C263-4ED9-B2A0-4AD0096E628D";
shapes = (
{
closed = 1;
nodes = (
(368,0,l),
(368,130,l),
(724,130,ls),
(877,130,o),
(975,236,o),
(975,401,cs),
(975,559,o),
(877,660,o),
(724,660,cs),
(368,660,l),
(368,780,l),
(58,780,l),
(58,0,l)
);
},
{
closed = 1;
nodes = (
(368,460,l),
(547,460,ls),
(619,460,o),
(655,446,o),
(655,395,cs),
(655,346,o),
(620,330,o),
(554,330,cs),
(368,330,l)
);
}
);
width = 989;
}
);
metricRight = P;
unicode = 222;
},
{
glyphname = Q;
kernLeft = O;
kernRight = O;
layers = (
{
associatedMasterId = "6BCBDBF6-8315-4194-A290-F71994A92467";
layerId = "CAD23A4B-9B80-40D7-BDF7-F23787A3978A";
name = foreground;
shapes = (
{
closed = 1;
nodes = (
(703,-173,l),
(879,-142,l),
(663,43,l),
(496,-2,l)
);
},
{
ref = O;
}
);
width = 980;
},
{
anchors = (
{
name = bottom;
pos = (490,0);
},
{
name = top;
pos = (490,750);
}
);
associatedMasterId = "6BCBDBF6-8315-4194-A290-F71994A92467";
layerId = "CF310807-EDCD-4C18-A71F-3F3A856D9BAB";
name = "7 Feb 21, 13:06";
shapes = (
{
closed = 1;
nodes = (
(703,-173,l),
(879,-142,l),
(663,43,l),
(496,-2,l)
);
},
{
ref = O;
}
);
width = 980;
},
{
anchors = (
{
name = bottom;
pos = (490,0);
},
{
name = top;
pos = (490,750);
}
);
associatedMasterId = "6BCBDBF6-8315-4194-A290-F71994A92467";
layerId = "C19714F2-0150-4B73-98E7-90EAAC104FA0";
name = "7 Feb 21, 13:08";
shapes = (
{
closed = 1;
nodes = (
(723,-189,l),
(867,-78,l),
(318,39,l),
(254,28,l)
);
},
{
locked = 1;
ref = O;
}
);
width = 980;
},
{
anchors = (
{
name = bottom;
pos = (490,0);
},
{
name = center;
pos = (490,375);
},
{
name = ogonek;
pos = (882,10);
},
{
name = top;
pos = (490,750);
},
{
name = topleft;
pos = (20,750);
},
{
name = topright;
pos = (960,750);
}
);
associatedMasterId = "6BCBDBF6-8315-4194-A290-F71994A92467";
background = {
shapes = (
{
closed = 1;
nodes = (
(863,-215,l),
(863,-57,l),
(594.526,-9.709,l),
(805.541,25.345,o),
(935,169.117,o),
(935,375,cs),
(935,612,o),
(762,767,o),
(490,767,cs),
(218,767,o),
(45,612,o),
(45,375,cs),
(45,211.297,o),
(127,87,o),
(266,25,c)
);
},
{
closed = 1;
nodes = (
(205,534,o),
(317,637,o),
(490,637,cs),
(663,637,o),
(775,534,o),
(775,375,cs),
(775,216,o),
(663,114,o),
(490,114,cs),
(317,114,o),
(205,216,o),
(205,375,cs)
);
}
);
};
layerId = "6240E5C7-FB9E-430B-9AB5-4873A37998B4";
name = "19 Apr 21, 12:24";
shapes = (
{
closed = 1;
nodes = (
(863,-215,c),
(863,-57,l),
(415,-10,l),
(806,-29,o),
(935,169.117,o),
(935,375,cs),
(935,612,o),
(762,767,o),
(490,767,cs),
(218,767,o),
(45,612,o),
(45,375,cs),
(45,211,o),
(93,-49,o)
);
},
{
closed = 1;
nodes = (
(205,534,o),
(317,637,o),
(490,637,cs),
(663,637,o),
(775,534,o),
(775,375,cs),
(775,216,o),
(663,114,o),
(490,114,cs),
(317,114,o),
(205,216,o),
(205,375,cs)
);
}
);
width = 980;
},
{
anchors = (
{
name = bottom;
pos = (490,0);
},
{
name = top;
pos = (490,750);
}
);
layerId = "6BCBDBF6-8315-4194-A290-F71994A92467";
name = "150";
shapes = (
{
closed = 1;
nodes = (
(762,-18,o),
(935,137,o),
(935,375,cs),
(935,612,o),
(762,767,o),
(490,767,cs),
(218,767,o),
(45,612,o),
(45,375,cs),
(45,137,o),
(218,-18,o),
(490,-18,cs)
);
},
{
closed = 1;
nodes = (
(317,114,o),
(205,216,o),
(205,375,cs),
(205,534,o),
(317,637,o),
(490,637,cs),
(663,637,o),
(775,534,o),
(775,375,cs),
(775,216,o),
(663,114,o),
(490,114,cs)
);
},
{
closed = 1;
nodes = (
(655,-215,l),
(854,-215,l),
(576,94,l),
(429,44,l)
);
}
);
width = 980;
},
{
anchors = (
{
name = bottom;
pos = (490,0);
},
{
name = center;
pos = (490,375);
},
{
name = ogonek;
pos = (882,10);
},
{
name = top;
pos = (490,750);
},
{
name = topleft;
pos = (20,750);
},
{
name = topright;
pos = (960,750);
}
);
associatedMasterId = "6BCBDBF6-8315-4194-A290-F71994A92467";
layerId = "5C0B9A4A-837E-4967-B473-5C7006288C41";
name = "19 Apr 21, 13:55";
shapes = (
{
closed = 1;
nodes = (
(863,-215,l),
(863,-57,l),
(594.526,-9.709,l),
(805.541,25.345,o),
(935,169.117,o),
(935,375,cs),
(935,612,o),
(762,767,o),
(490,767,cs),
(218,767,o),
(45,612,o),
(45,375,cs),
(45,211.297,o),
(127,87,o),
(266.462,25.124,c)
);
},
{
closed = 1;
nodes = (
(205,534,o),
(317,637,o),
(490,637,cs),
(663,637,o),
(775,534,o),
(775,375,cs),
(775,216,o),
(663,114,o),
(490,114,cs),
(317,114,o),
(205,216,o),
(205,375,cs)
);
}
);
width = 980;
},
{
anchors = (
{
name = bottom;
pos = (490,0);
},
{
name = center;
pos = (490,375);
},
{
name = ogonek;
pos = (882,10);
},
{
name = top;
pos = (490,750);
},
{
name = topleft;
pos = (20,750);
},
{
name = topright;
pos = (960,750);
}
);
associatedMasterId = "6BCBDBF6-8315-4194-A290-F71994A92467";
layerId = "EBEF4F95-3D2B-47BA-A072-3B17C9607498";
name = "19 Apr 21, 13:58";
shapes = (
{
closed = 1;
nodes = (
(762,-18,o),
(935,137,o),
(935,375,cs),
(935,612,o),
(762,767,o),
(490,767,cs),
(218,767,o),
(45,612,o),
(45,375,cs),
(45,137,o),
(218,-18,o),
(490,-18,cs)
);
},
{
closed = 1;
nodes = (
(317,114,o),
(205,216,o),
(205,375,cs),
(205,534,o),
(317,637,o),
(490,637,cs),
(663,637,o),
(775,534,o),
(775,375,cs),
(775,216,o),
(663,114,o),
(490,114,cs)
);
},
{
closed = 1;
nodes = (
(655,-215,l),
(770,-114,l),
(586,94,l),
(426,44,l)
);
}
);
width = 980;
},
{
anchors = (
{
name = bottom;
pos = (528,0);
},
{
name = top;
pos = (528,750);
}
);
layerId = "4F9EBE27-C263-4ED9-B2A0-4AD0096E628D";
shapes = (
{
closed = 1;
nodes = (
(860,-20,o),
(1033,129,o),
(1033,375,cs),
(1033,620,o),
(860,775,o),
(528,775,cs),
(196,775,o),
(23,620,o),
(23,375,cs),
(23,129,o),
(196,-20,o),
(528,-20,cs)
);
},
{
closed = 1;
nodes = (
(416,204,o),
(363,263,o),
(363,375,cs),
(363,491,o),
(416,550,o),
(530,547,cs),
(640,544,o),
(693,485,o),
(693,375,cs),
(693,263,o),
(640,204,o),
(528,204,cs)
);
},
{
closed = 1;
nodes = (
(627,-200,l),
(997,-200,l),
(675,94,l),
(357,44,l)
);
}
);
width = 1056;
}
);
metricLeft = O;
metricRight = O;
unicode = 81;
},
{
glyphname = R;
kernLeft = H;
kernRight = R;
layers = (
{
anchors = (
{
name = bottom;
pos = (454,0);
},
{
name = top;
pos = (433,750);
}
);
layerId = "6BCBDBF6-8315-4194-A290-F71994A92467";
shapes = (
{
closed = 1;
nodes = (
(230,0,l),
(230,295,l),
(424,295,l),
(652,0,l),
(848,0,l),
(599,309,l),
(748,316,o),
(837,400,o),
(837,523,cs),
(837,656,o),
(739,750,o),
(563,750,cs),
(70,750,l),
(70,0,l)
);
},
{
closed = 1;
nodes = (
(230,620,l),
(529,620,ls),
(633,620,o),
(677,591,o),
(677,522,cs),
(677,454,o),
(636,425,o),
(536,425,cs),
(230,425,l)
);
}
);
width = 880;
},
{
associatedMasterId = "6BCBDBF6-8315-4194-A290-F71994A92467";
layerId = "E3849A30-33ED-4573-85C5-33BC44B14189";
name = foreground;
shapes = (
{
closed = 1;
nodes = (
(230,0,l),
(230,295,l),
(436,295,l),
(664,0,l),
(845,0,l),
(596,309,l),
(748,316,o),
(837,400,o),
(837,523,cs),
(837,656,o),
(739,750,o),
(563,750,cs),
(70,750,l),
(70,0,l)
);
},
{
closed = 1;
nodes = (
(230,620,l),
(529,620,ls),
(627,620,o),
(677,587,o),
(677,522,cs),
(677,458,o),
(630,425,o),
(536,425,cs),
(230,425,l)
);
}
);
width = 865;
},
{
anchors = (
{
name = bottom;
pos = (502,0);
},
{
name = top;
pos = (502,750);
}
);
background = {
shapes = (
{
closed = 1;
nodes = (
(368,0,l),
(368,260,l),
(674,260,ls),
(827,260,o),
(955,326,o),
(955,491,cs),
(955,649,o),
(857,750,o),
(704,750,cs),
(58,750,l),
(58,0,l)
);
},
{
closed = 1;
nodes = (
(368,554,l),
(547,554,ls),
(619,554,o),
(655,540,o),
(655,489,cs),
(655,440,o),
(620,424,o),
(554,424,cs),
(368,424,l)
);
},
{
closed = 1;
nodes = (
(620,0,l),
(976,0,l),
(667,309,l),
(362,295,l)
);
}
);
};
layerId = "4F9EBE27-C263-4ED9-B2A0-4AD0096E628D";
shapes = (
{
closed = 1;
nodes = (
(368,0,l),
(368,260,l),
(383,260,l),
(620,0,l),
(996,0,l),
(724,262,l),
(869,273,o),
(975,341,o),
(975,491,cs),
(975,649,o),
(877,750,o),
(724,750,cs),
(58,750,l),
(58,0,l)
);
},
{
closed = 1;
nodes = (
(368,554,l),
(547,554,ls),
(619,554,o),
(655,540,o),
(655,489,cs),
(655,440,o),
(620,424,o),
(554,424,cs),
(368,424,l)
);
}
);
width = 997;
},
{
anchors = (
{
name = bottom;
pos = (494,0);
},
{
name = top;
pos = (494,750);
}
);
associatedMasterId = "4F9EBE27-C263-4ED9-B2A0-4AD0096E628D";
layerId = "CA5BBAA6-CAEC-4044-8C42-710ACC3C5346";
name = "14 Oct 21, 15:38";
shapes = (
{
closed = 1;
nodes = (
(360,0,l),
(360,260,l),
(666,260,ls),
(819,260,o),
(947,326,o),
(947,491,cs),
(947,649,o),
(849,750,o),
(696,750,cs),
(50,750,l),
(50,0,l)
);
},
{
closed = 1;
nodes = (
(360,554,l),
(539,554,ls),
(611,554,o),
(647,540,o),
(647,489,cs),
(647,440,o),
(612,424,o),
(546,424,cs),
(360,424,l)
);
},
{
closed = 1;
nodes = (
(612,0,l),
(968,0,l),
(659,309,l),
(354,295,l)
);
}
);
width = 988;
}
);
metricLeft = H;
unicode = 82;
},
{
glyphname = S;
kernLeft = S;
kernRight = S;
layers = (
{
anchors = (
{
name = bottom;
pos = (422,0);
},
{
name = top;
pos = (422,750);
}
);
background = {
shapes = (
{
closed = 1;
nodes = (
(56,439,o),
(162,364,o),
(390,326,cs),
(570,297,o),
(640,262,o),
(640,200,cs),
(640,142,o),
(579,116,o),
(442,116,cs),
(297,116,o),
(183,145,o),
(52,217,c),
(62,71,l),
(175,6,o),
(288,-21,o),
(441,-21,cs),
(685,-21,o),
(800,48,o),
(800,192,cs),
(800,329,o),
(702,405,o),
(468,452,cs),
(290,487,o),
(216,513,o),
(216,565,cs),
(216,610,o),
(272,640,o),
(406,640,cs),
(546,640,o),
(661,615,o),
(756,562,c),
(746,705,l),
(665,748,o),
(550,770,o),
(413,770,cs),
(173,770,o),
(56,700,o),
(56,564,cs)
);
}
);
};
guides = (
{
angle = 90;
pos = (424,0);
}
);
layerId = "6BCBDBF6-8315-4194-A290-F71994A92467";
shapes = (
{
closed = 1;
nodes = (
(57,245,o),
(634,384,o),
(634,211,cs),
(634,153,o),
(573,117,o),
(442,117,cs),
(304,117,o),
(190,155,o),
(59,217,c),
(69,64,l),
(174,14,o),
(304,-18,o),
(441,-18,cs),
(669,-18,o),
(792,65,o),
(792,214,cs),
(792,532,o),
(215,401,o),
(215,558,cs),
(215,611,o),
(275,640,o),
(420,640,cs),
(552,640,o),
(666,614,o),
(756,583,c),
(747,723,l),
(666,746,o),
(551,768,o),
(417,768,cs),
(176,768,o),
(61,698,o),
(60,561,cs)
);
}
);
width = 830;
},
{
associatedMasterId = "6BCBDBF6-8315-4194-A290-F71994A92467";
guides = (
{
angle = 90;
pos = (416.5,0);
}
);
layerId = "71917E73-C426-482F-A9C4-1499F63BB30D";
name = foreground;
shapes = (
{
closed = 1;
nodes = (
(49,258,o),
(633,377,o),
(633,200,cs),
(633,141,o),
(564,112,o),
(427,112,cs),
(287,112,o),
(173,143,o),
(40,217,c),
(55,67,l),
(163,5,o),
(285,-25,o),
(427,-25,cs),
(667,-25,o),
(793,52,o),
(793,198,cs),
(793,520,o),
(209,420,o),
(209,563,cs),
(209,616,o),
(284,645,o),
(419,645,cs),
(546,645,o),
(659,618,o),
(750,564,c),
(739,709,l),
(660,751,o),
(547,774,o),
(419,774,cs),
(178,774,o),
(49,699,o),
(49,559,cs)
);
}
);
width = 828;
},
{
anchors = (
{
name = bottom;
pos = (414,0);
},
{
name = top;
pos = (414,750);
}
);
associatedMasterId = "6BCBDBF6-8315-4194-A290-F71994A92467";
background = {
shapes = (
{
closed = 1;
nodes = (
(40,253,o),
(664,372,o),
(664,202,cs),
(664,142,o),
(590,112,o),
(438,112,cs),
(281,112,o),
(159,145,o),
(46,217,c),
(46,67,l),
(155,5,o),
(284,-25,o),
(438,-25,cs),
(692,-25,o),
(824,52,o),
(824,201,cs),
(824,512,o),
(200,413,o),
(200,552,cs),
(200,610,o),
(274,642,o),
(411,642,cs),
(545,642,o),
(666,621,o),
(760,563,c),
(760,709,l),
(668,758,o),
(543,774,o),
(405,774,cs),
(168,774,o),
(40,694,o),
(40,546,cs)
);
}
);
};
guides = (
{
angle = 90;
pos = (416.5,0);
}
);
layerId = "897397F1-D4B6-4CBF-ABD9-A7CE468DE625";
name = "11 Jan 21, 19:26";
shapes = (
{
closed = 1;
nodes = (
(49,258,o),
(633,377,o),
(633,200,cs),
(633,141,o),
(564,112,o),
(427,112,cs),
(287,112,o),
(173,143,o),
(45,213,c),
(55,67,l),
(163,5,o),
(285,-25,o),
(427,-25,cs),
(667,-25,o),
(793,52,o),
(793,198,cs),
(793,520,o),
(209,419,o),
(209,562,cs),
(209,613,o),
(286,644,o),
(419,644,cs),
(546,644,o),
(659,615,o),
(749,565,c),
(739,709,l),
(660,751,o),
(547,774,o),
(419,774,cs),
(178,774,o),
(49,699,o),
(49,559,cs)
);
}
);
width = 828;
},
{
anchors = (
{
name = bottom;
pos = (414,0);
},
{
name = top;
pos = (414,750);
}
);
associatedMasterId = "6BCBDBF6-8315-4194-A290-F71994A92467";
background = {
shapes = (
{
closed = 1;
nodes = (
(40,253,o),
(664,372,o),
(664,202,cs),
(664,142,o),
(590,112,o),
(438,112,cs),
(281,112,o),
(159,145,o),
(46,217,c),
(46,67,l),
(155,5,o),
(284,-25,o),
(438,-25,cs),
(692,-25,o),
(824,52,o),
(824,201,cs),
(824,512,o),
(200,413,o),
(200,552,cs),
(200,610,o),
(274,642,o),
(411,642,cs),
(545,642,o),
(666,621,o),
(760,563,c),
(760,709,l),
(668,758,o),
(543,774,o),
(405,774,cs),
(168,774,o),
(40,694,o),
(40,546,cs)
);
}
);
};
guides = (
{
angle = 90;
pos = (416.5,0);
}
);
layerId = "5AB75996-ABA0-45B2-BF58-AA25432B0D85";
name = "3 Feb 21, 15:04";
shapes = (
{
closed = 1;
nodes = (
(49,429,o),
(148,362,o),
(393,323,cs),
(572,293,o),
(633,264,o),
(633,206,cs),
(633,146,o),
(565,116,o),
(427,116,cs),
(289,116,o),
(175,146,o),
(45,217,c),
(55,71,l),
(163,9,o),
(285,-21,o),
(427,-21,cs),
(668,-21,o),
(793,57,o),
(793,206,cs),
(793,337,o),
(698,403,o),
(431,456,cs),
(267,488,o),
(209,515,o),
(209,560,cs),
(209,612,o),
(283,640,o),
(419,640,cs),
(542,640,o),
(656,613,o),
(749,561,c),
(739,705,l),
(660,747,o),
(547,770,o),
(419,770,cs),
(178,770,o),
(49,695,o),
(49,555,cs)
);
}
);
width = 828;
},
{
anchors = (
{
name = bottom;
pos = (414,0);
},
{
name = top;
pos = (414,750);
}
);
associatedMasterId = "6BCBDBF6-8315-4194-A290-F71994A92467";
background = {
shapes = (
{
closed = 1;
nodes = (
(40,253,o),
(664,372,o),
(664,202,cs),
(664,142,o),
(590,112,o),
(438,112,cs),
(281,112,o),
(159,145,o),
(46,217,c),
(46,67,l),
(155,5,o),
(284,-25,o),
(438,-25,cs),
(692,-25,o),
(824,52,o),
(824,201,cs),
(824,512,o),
(200,413,o),
(200,552,cs),
(200,610,o),
(274,642,o),
(411,642,cs),
(545,642,o),
(666,621,o),
(760,563,c),
(760,709,l),
(668,758,o),
(543,774,o),
(405,774,cs),
(168,774,o),
(40,694,o),
(40,546,cs)
);
}
);
};
guides = (
{
angle = 90;
pos = (416.5,0);
}
);
layerId = "95708926-C0BE-430B-B43F-35104D7E2E5F";
name = "3 Feb 21, 15:14";
shapes = (
{
closed = 1;
nodes = (
(49,439,o),
(155,364,o),
(383,326,cs),
(563,297,o),
(633,262,o),
(633,200,cs),
(633,142,o),
(572,116,o),
(435,116,cs),
(290,116,o),
(176,145,o),
(45,217,c),
(55,71,l),
(168,6,o),
(281,-21,o),
(434,-21,cs),
(678,-21,o),
(793,48,o),
(793,192,cs),
(793,329,o),
(695,405,o),
(461,452,cs),
(283,487,o),
(209,513,o),
(209,565,cs),
(209,610,o),
(265,640,o),
(399,640,cs),
(539,640,o),
(654,615,o),
(749,562,c),
(739,705,l),
(658,748,o),
(543,770,o),
(406,770,cs),
(166,770,o),
(49,700,o),
(49,564,cs)
);
}
);
width = 828;
},
{
anchors = (
{
name = bottom;
pos = (414,0);
},
{
name = top;
pos = (414,750);
}
);
associatedMasterId = "6BCBDBF6-8315-4194-A290-F71994A92467";
background = {
shapes = (
{
closed = 1;
nodes = (
(49,439,o),
(155,364,o),
(383,326,cs),
(563,297,o),
(633,262,o),
(633,200,cs),
(633,142,o),
(572,116,o),
(435,116,cs),
(290,116,o),
(176,145,o),
(45,217,c),
(55,71,l),
(168,6,o),
(281,-21,o),
(434,-21,cs),
(678,-21,o),
(793,48,o),
(793,192,cs),
(793,329,o),
(695,405,o),
(461,452,cs),
(283,487,o),
(209,513,o),
(209,565,cs),
(209,610,o),
(265,640,o),
(399,640,cs),
(539,640,o),
(654,615,o),
(749,562,c),
(739,705,l),
(658,748,o),
(543,770,o),
(406,770,cs),
(166,770,o),
(49,700,o),
(49,564,cs)
);
}
);
};
guides = (
{
angle = 90;
pos = (416.5,0);
}
);
layerId = "986D9277-C63F-493A-BF1A-945B532A6492";
name = "3 Feb 21, 15:21";
shapes = (
{
closed = 1;
nodes = (
(49,253,o),
(633,388,o),
(633,202,cs),
(633,142,o),
(572,116,o),
(435,116,cs),
(290,116,o),
(176,145,o),
(45,217,c),
(55,71,l),
(168,6,o),
(281,-21,o),
(434,-21,cs),
(678,-21,o),
(793,48,o),
(793,192,cs),
(793,522,o),
(209,413,o),
(209,564,cs),
(209,611,o),
(265,640,o),
(409,640,cs),
(539,640,o),
(654,615,o),
(749,562,c),
(739,705,l),
(658,748,o),
(543,770,o),
(406,770,cs),
(166,770,o),
(49,700,o),
(49,563,cs)
);
}
);
width = 828;
},
{
anchors = (
{
name = bottom;
pos = (414,0);
},
{
name = top;
pos = (414,750);
}
);
associatedMasterId = "6BCBDBF6-8315-4194-A290-F71994A92467";
background = {
shapes = (
{
closed = 1;
nodes = (
(49,439,o),
(155,364,o),
(383,326,cs),
(563,297,o),
(633,262,o),
(633,200,cs),
(633,142,o),
(572,116,o),
(435,116,cs),
(290,116,o),
(176,145,o),
(45,217,c),
(55,71,l),
(168,6,o),
(281,-21,o),
(434,-21,cs),
(678,-21,o),
(793,48,o),
(793,192,cs),
(793,329,o),
(695,405,o),
(461,452,cs),
(283,487,o),
(209,513,o),
(209,565,cs),
(209,610,o),
(265,640,o),
(399,640,cs),
(539,640,o),
(654,615,o),
(749,562,c),
(739,705,l),
(658,748,o),
(543,770,o),
(406,770,cs),
(166,770,o),
(49,700,o),
(49,564,cs)
);
}
);
};
guides = (
{
angle = 90;
pos = (416.5,0);
}
);
layerId = "82017188-8DE8-4A65-B82E-B297E6AED657";
name = "7 Feb 21, 12:58";
shapes = (
{
closed = 1;
nodes = (
(43,253,o),
(633,388,o),
(633,202,cs),
(633,142,o),
(572,116,o),
(435,116,cs),
(290,116,o),
(176,145,o),
(45,217,c),
(55,71,l),
(160,11,o),
(290,-21,o),
(434,-21,cs),
(670,-21,o),
(793,52,o),
(793,192,cs),
(793,522,o),
(203,413,o),
(203,564,cs),
(203,613,o),
(259,642,o),
(409,642,cs),
(539,642,o),
(654,617,o),
(749,564,c),
(739,705,l),
(658,748,o),
(543,770,o),
(406,770,cs),
(160,770,o),
(43,700,o),
(43,563,cs)
);
}
);
width = 828;
},
{
anchors = (
{
name = bottom;
pos = (421,0);
},
{
name = top;
pos = (421,750);
}
);
associatedMasterId = "6BCBDBF6-8315-4194-A290-F71994A92467";
background = {
shapes = (
{
closed = 1;
nodes = (
(56,439,o),
(162,364,o),
(390,326,cs),
(570,297,o),
(640,262,o),
(640,200,cs),
(640,142,o),
(579,116,o),
(442,116,cs),
(297,116,o),
(183,145,o),
(52,217,c),
(62,71,l),
(175,6,o),
(288,-21,o),
(441,-21,cs),
(685,-21,o),
(800,48,o),
(800,192,cs),
(800,329,o),
(702,405,o),
(468,452,cs),
(290,487,o),
(216,513,o),
(216,565,cs),
(216,610,o),
(272,640,o),
(406,640,cs),
(546,640,o),
(661,615,o),
(756,562,c),
(746,705,l),
(665,748,o),
(550,770,o),
(413,770,cs),
(173,770,o),
(56,700,o),
(56,564,cs)
);
}
);
};
guides = (
{
angle = 90;
pos = (424,0);
}
);
layerId = "16C1D393-E431-4201-B012-3FD97D11C5DC";
name = "9 Feb 21, 00:55";
shapes = (
{
closed = 1;
nodes = (
(50,253,o),
(640,388,o),
(640,202,cs),
(640,142,o),
(579,116,o),
(442,116,cs),
(297,116,o),
(183,145,o),
(52,217,c),
(62,71,l),
(167,11,o),
(297,-21,o),
(441,-21,cs),
(677,-21,o),
(800,52,o),
(800,192,cs),
(800,522,o),
(210,413,o),
(210,564,cs),
(210,613,o),
(266,642,o),
(416,642,cs),
(546,642,o),
(661,617,o),
(756,564,c),
(746,705,l),
(665,748,o),
(550,770,o),
(413,770,cs),
(167,770,o),
(50,700,o),
(50,563,cs)
);
}
);
width = 830;
},
{
anchors = (
{
name = bottom;
pos = (421,0);
},
{
name = top;
pos = (421,750);
}
);
associatedMasterId = "6BCBDBF6-8315-4194-A290-F71994A92467";
background = {
shapes = (
{
closed = 1;
nodes = (
(56,439,o),
(162,364,o),
(390,326,cs),
(570,297,o),
(640,262,o),
(640,200,cs),
(640,142,o),
(579,116,o),
(442,116,cs),
(297,116,o),
(183,145,o),
(52,217,c),
(62,71,l),
(175,6,o),
(288,-21,o),
(441,-21,cs),
(685,-21,o),
(800,48,o),
(800,192,cs),
(800,329,o),
(702,405,o),
(468,452,cs),
(290,487,o),
(216,513,o),
(216,565,cs),
(216,610,o),
(272,640,o),
(406,640,cs),
(546,640,o),
(661,615,o),
(756,562,c),
(746,705,l),
(665,748,o),
(550,770,o),
(413,770,cs),
(173,770,o),
(56,700,o),
(56,564,cs)
);
}
);
};
guides = (
{
angle = 90;
pos = (424,0);
}
);
layerId = "325E2D89-F194-441F-8CF7-220F342AF744";
name = "22 Feb 21, 19:26";
shapes = (
{
closed = 1;
nodes = (
(60,261,o),
(632,400,o),
(632,215,cs),
(632,153,o),
(571,117,o),
(442,117,cs),
(307,117,o),
(193,155,o),
(62,227,c),
(72,74,l),
(177,14,o),
(307,-18,o),
(441,-18,cs),
(667,-18,o),
(790,65,o),
(790,214,cs),
(790,537,o),
(215,411,o),
(215,562,cs),
(215,611,o),
(275,640,o),
(420,640,cs),
(552,640,o),
(666,614,o),
(756,573,c),
(747,713,l),
(666,746,o),
(551,768,o),
(417,768,cs),
(176,768,o),
(60,698,o),
(60,561,cs)
);
}
);
width = 830;
},
{
anchors = (
{
name = bottom;
pos = (421,0);
},
{
name = top;
pos = (421,750);
}
);
associatedMasterId = "6BCBDBF6-8315-4194-A290-F71994A92467";
background = {
shapes = (
{
closed = 1;
nodes = (
(56,439,o),
(162,364,o),
(390,326,cs),
(570,297,o),
(640,262,o),
(640,200,cs),
(640,142,o),
(579,116,o),
(442,116,cs),
(297,116,o),
(183,145,o),
(52,217,c),
(62,71,l),
(175,6,o),
(288,-21,o),
(441,-21,cs),
(685,-21,o),
(800,48,o),
(800,192,cs),
(800,329,o),
(702,405,o),
(468,452,cs),
(290,487,o),
(216,513,o),
(216,565,cs),
(216,610,o),
(272,640,o),
(406,640,cs),
(546,640,o),
(661,615,o),
(756,562,c),
(746,705,l),
(665,748,o),
(550,770,o),
(413,770,cs),
(173,770,o),
(56,700,o),
(56,564,cs)
);
}
);
};
guides = (
{
angle = 90;
pos = (424,0);
}
);
layerId = "2A500F0F-FAAA-4104-B59E-43C4EEDE3244";
name = "11 Apr 21, 22:08";
shapes = (
{
closed = 1;
nodes = (
(60,245,o),
(632,384,o),
(632,211,cs),
(632,153,o),
(571,117,o),
(442,117,cs),
(307,117,o),
(193,155,o),
(62,227,c),
(72,74,l),
(177,14,o),
(307,-18,o),
(441,-18,cs),
(667,-18,o),
(790,65,o),
(790,214,cs),
(790,532,o),
(215,401,o),
(215,558,cs),
(215,611,o),
(275,640,o),
(420,640,cs),
(552,640,o),
(666,614,o),
(756,573,c),
(747,713,l),
(666,746,o),
(551,768,o),
(417,768,cs),
(176,768,o),
(60,698,o),
(60,561,cs)
);
}
);
width = 830;
},
{
anchors = (
{
name = bottom;
pos = (421,0);
},
{
name = top;
pos = (421,750);
}
);
associatedMasterId = "6BCBDBF6-8315-4194-A290-F71994A92467";
background = {
shapes = (
{
closed = 1;
nodes = (
(56,439,o),
(162,364,o),
(390,326,cs),
(570,297,o),
(640,262,o),
(640,200,cs),
(640,142,o),
(579,116,o),
(442,116,cs),
(297,116,o),
(183,145,o),
(52,217,c),
(62,71,l),
(175,6,o),
(288,-21,o),
(441,-21,cs),
(685,-21,o),
(800,48,o),
(800,192,cs),
(800,329,o),
(702,405,o),
(468,452,cs),
(290,487,o),
(216,513,o),
(216,565,cs),
(216,610,o),
(272,640,o),
(406,640,cs),
(546,640,o),
(661,615,o),
(756,562,c),
(746,705,l),
(665,748,o),
(550,770,o),
(413,770,cs),
(173,770,o),
(56,700,o),
(56,564,cs)
);
}
);
};
guides = (
{
angle = 90;
pos = (424,0);
}
);
layerId = "5CDC9493-BBC1-4A3F-B4CD-BC7609ABC2EB";
name = "19 Apr 21, 14:02";
shapes = (
{
closed = 1;
nodes = (
(57,245,o),
(634,384,o),
(634,211,cs),
(634,153,o),
(573,117,o),
(442,117,cs),
(304,117,o),
(190,155,o),
(59,227,c),
(69,74,l),
(174,14,o),
(304,-18,o),
(441,-18,cs),
(669,-18,o),
(792,65,o),
(792,214,cs),
(792,532,o),
(215,401,o),
(215,558,cs),
(215,611,o),
(275,640,o),
(420,640,cs),
(552,640,o),
(666,614,o),
(756,583,c),
(747,723,l),
(666,746,o),
(551,768,o),
(417,768,cs),
(176,768,o),
(61,698,o),
(60,561,cs)
);
}
);
width = 830;
},
{
associatedMasterId = "4F9EBE27-C263-4ED9-B2A0-4AD0096E628D";
layerId = "5E6A21F7-0B9C-401A-A69F-8FE2B1B91840";
name = "14 Oct 21, 16:15";
shapes = (
{
closed = 1;
nodes = (
(31,187,o),
(605,329,o),
(605,229,cs),
(605,203,o),
(568,187,o),
(453,187,cs),
(279,187,o),
(168,225,o),
(40,287,c),
(50,54,l),
(180,4,o),
(342,-28,o),
(512,-28,cs),
(806,-28,o),
(964,84,o),
(964,255,cs),
(963,606,o),
(387,450,o),
(387,553,cs),
(387,578,o),
(420,592,o),
(521,592,cs),
(699,592,o),
(797,578,o),
(917,535,c),
(908,735,l),
(805,758,o),
(659,780,o),
(488,780,cs),
(179,780,o),
(31,700,o),
(31,533,cs)
);
}
);
width = 974;
},
{
anchors = (
{
name = bottom;
pos = (495,0);
},
{
name = top;
pos = (495,750);
}
);
background = {
shapes = (
{
closed = 1;
nodes = (
(59,162,o),
(613,338,o),
(613,236,cs),
(613,209,o),
(575,192,o),
(466,192,cs),
(312,192,o),
(163,226,o),
(58,284,c),
(68,56,l),
(201,6,o),
(346,-26,o),
(520,-26,cs),
(819,-26,o),
(952,65,o),
(952,240,cs),
(952,594,o),
(395,424,o),
(395,527,cs),
(395,553,o),
(431,569,o),
(539,569,cs),
(654,569,o),
(779,552,o),
(905,512,c),
(896,730,l),
(793,753,o),
(667,775,o),
(516,775,cs),
(171,775,o),
(59,668,o),
(59,512,cs)
);
}
);
};
layerId = "4F9EBE27-C263-4ED9-B2A0-4AD0096E628D";
name = "300";
shapes = (
{
closed = 1;
nodes = (
(59,199,o),
(613,338,o),
(613,236,cs),
(613,209,o),
(575,192,o),
(466,192,cs),
(312,192,o),
(163,226,o),
(58,284,c),
(68,56,l),
(201,6,o),
(346,-26,o),
(520,-26,cs),
(795,-26,o),
(952,64,o),
(952,243,cs),
(952,579,o),
(395,429,o),
(395,532,cs),
(395,558,o),
(431,574,o),
(539,574,cs),
(654,574,o),
(779,557,o),
(907,517,c),
(898,735,l),
(793,758,o),
(667,780,o),
(496,780,cs),
(210,780,o),
(59,705,o),
(59,536,cs)
);
}
);
width = 989;
}
);
unicode = 83;
},
{
glyphname = Germandbls;
kernLeft = Germandbls;
kernRight = Germandbls;
layers = (
{
background = {
shapes = (
{
closed = 1;
nodes = (
(217,0,l),
(217,565,ls),
(217,642,o),
(274,675,o),
(396,675,cs),
(509,675,o),
(570,653,o),
(570,609,cs),
(570,520,o),
(311,560,o),
(311,388,cs),
(311,188,o),
(666,269,o),
(666,162,cs),
(666,115,o),
(598,93,o),
(521,93,cs),
(456,93,o),
(378,109,o),
(308,140,c),
(308,22,l),
(377,-6,o),
(466,-21,o),
(547,-21,cs),
(700,-21,o),
(816,37,o),
(816,162,cs),
(816,398,o),
(461,285,o),
(461,393,cs),
(461,484,o),
(720,419,o),
(720,612,cs),
(720,730,o),
(626,790,o),
(401,790,cs),
(187,790,o),
(67,706,o),
(67,568,cs),
(67,0,l)
);
},
{
closed = 1;
nodes = (
(87,560,l),
(-60,560,l),
(-60,445,l),
(87,445,l)
);
}
);
};
layerId = "6BCBDBF6-8315-4194-A290-F71994A92467";
shapes = (
{
closed = 1;
nodes = (
(230,0,l),
(230,455,ls),
(230,557,o),
(277,620,o),
(409,620,cs),
(710,620,l),
(698,659,l),
(354,418,l),
(354,321,l),
(606,321,o),
(703,299,o),
(703,213,cs),
(703,150,o),
(652,119,o),
(530,119,cs),
(452,119,o),
(380,130,o),
(331,148,c),
(331,22,l),
(401,1,o),
(479,-11,o),
(553,-11,cs),
(722,-11,o),
(873,50,o),
(873,208,cs),
(873,352,o),
(749,423,o),
(542,423,c),
(803,596,l),
(803,750,l),
(424,750,ls),
(195,750,o),
(70,639,o),
(70,468,cs),
(70,0,l)
);
}
);
width = 903;
},
{
background = {
shapes = (
{
closed = 1;
nodes = (
(263,0,l),
(263,455,ls),
(263,557,o),
(310,620,o),
(442,620,cs),
(676,620,l),
(387,418,l),
(387,321,l),
(639,321,o),
(736,299,o),
(736,213,cs),
(736,150,o),
(685,119,o),
(563,119,cs),
(485,119,o),
(413,130,o),
(364,142,c),
(364,22,l),
(434,1,o),
(512,-11,o),
(586,-11,cs),
(755,-11,o),
(906,50,o),
(906,208,cs),
(906,352,o),
(782,423,o),
(575,423,c),
(836,596,l),
(836,750,l),
(457,750,ls),
(228,750,o),
(103,639,o),
(103,468,cs),
(103,0,l)
);
}
);
};
layerId = "4F9EBE27-C263-4ED9-B2A0-4AD0096E628D";
shapes = (
{
closed = 1;
nodes = (
(283,0,l),
(283,385,ls),
(283,487,o),
(310,550,o),
(442,550,cs),
(832,550,l),
(756,660,l),
(452,446,l),
(452,302,l),
(639,302,o),
(675,292,o),
(675,250,cs),
(675,209,o),
(641,191,o),
(568,191,cs),
(483,191,o),
(414,201,o),
(356,215,c),
(366,-5,l),
(432,-18,o),
(504,-26,o),
(594,-26,cs),
(831,-26,o),
(986,63,o),
(986,230,cs),
(986,386,o),
(836,452,o),
(709,442,c),
(940,567,l),
(940,750,l),
(457,750,ls),
(179,750,o),
(23,653,o),
(23,468,cs),
(23,0,l)
);
}
);
width = 1022;
}
);
unicode = 7838;
},
{
glyphname = T;
kernLeft = T;
kernRight = T;
layers = (
{
anchors = (
{
name = bottom;
pos = (415,0);
},
{
name = center;
pos = (415,375);
},
{
name = top;
pos = (415,750);
}
);
layerId = "6BCBDBF6-8315-4194-A290-F71994A92467";
shapes = (
{
closed = 1;
nodes = (
(335,620,l),
(335,0,l),
(495,0,l),
(495,620,l),
(790,620,l),
(790,750,l),
(40,750,l),
(40,620,l)
);
}
);
width = 830;
},
{
associatedMasterId = "6BCBDBF6-8315-4194-A290-F71994A92467";
layerId = "05B0A305-5D16-4E10-B86F-2B51F313A355";
name = foreground;
shapes = (
{
closed = 1;
nodes = (
(325,620,l),
(325,0,l),
(485,0,l),
(485,620,l),
(790,620,l),
(790,750,l),
(20,750,l),
(20,620,l)
);
}
);
width = 810;
},
{
anchors = (
{
name = bottom;
pos = (470,0);
},
{
name = center;
pos = (470,375);
},
{
name = top;
pos = (470,750);
}
);
layerId = "4F9EBE27-C263-4ED9-B2A0-4AD0096E628D";
shapes = (
{
closed = 1;
nodes = (
(315,510,l),
(315,0,l),
(625,0,l),
(625,511,l),
(905,511,l),
(905,750,l),
(35,750,l),
(35,510,l)
);
}
);
width = 942;
}
);
unicode = 84;
},
{
glyphname = U;
kernLeft = U;
kernRight = U;
layers = (
{
anchors = (
{
name = bottom;
pos = (458,0);
},
{
name = ogonek;
pos = (609,10);
},
{
name = top;
pos = (458,750);
},
{
name = topright;
pos = (896,750);
}
);
layerId = "6BCBDBF6-8315-4194-A290-F71994A92467";
shapes = (
{
closed = 1;
nodes = (
(70,107,o),
(223,-18,o),
(459,-18,cs),
(698,-18,o),
(846,111,o),
(846,319,cs),
(846,750,l),
(686,750,l),
(686,308,ls),
(686,190,o),
(598,114,o),
(460,114,cs),
(320,114,o),
(230,190,o),
(230,308,cs),
(230,750,l),
(70,750,l),
(70,299,ls)
);
}
);
width = 916;
},
{
associatedMasterId = "6BCBDBF6-8315-4194-A290-F71994A92467";
layerId = "509DC822-697B-43A9-BDCD-D837440A6DB9";
name = foreground;
shapes = (
{
closed = 1;
nodes = (
(50,104,o),
(203,-21,o),
(439,-21,cs),
(673,-21,o),
(826,104,o),
(826,296,cs),
(826,750,l),
(666,750,l),
(666,305,ls),
(666,190,o),
(574,111,o),
(440,111,cs),
(304,111,o),
(210,190,o),
(210,305,cs),
(210,750,l),
(50,750,l),
(50,296,ls)
);
}
);
width = 876;
},
{
anchors = (
{
name = bottom;
pos = (506,0);
},
{
name = ogonek;
pos = (668,10);
},
{
name = top;
pos = (506,750);
},
{
name = topright;
pos = (984,750);
}
);
layerId = "4F9EBE27-C263-4ED9-B2A0-4AD0096E628D";
shapes = (
{
closed = 1;
nodes = (
(58,84,o),
(209,-25,o),
(507,-25,cs),
(804,-25,o),
(954,91,o),
(954,312,cs),
(954,750,l),
(644,750,l),
(644,389,ls),
(644,243,o),
(611,195,o),
(508,195,cs),
(402,195,o),
(368,243,o),
(368,389,cs),
(368,750,l),
(58,750,l),
(58,292,ls)
);
}
);
width = 1014;
}
);
metricLeft = H;
metricRight = H;
unicode = 85;
},
{
glyphname = V;
kernLeft = V;
kernRight = V;
layers = (
{
anchors = (
{
name = bottom;
pos = (460,0);
},
{
name = top;
pos = (460,750);
}
);
background = {
shapes = (
{
closed = 1;
nodes = (
(27,750,l),
(409,0,l),
(587,0,l),
(967,750,l),
(792,750,l),
(500,160,l),
(205,750,l)
);
}
);
};
layerId = "6BCBDBF6-8315-4194-A290-F71994A92467";
shapes = (
{
closed = 1;
nodes = (
(20,750,l),
(372,0,l),
(550,0,l),
(900,750,l),
(725,750,l),
(436,98,l),
(491,98,l),
(198,750,l)
);
}
);
width = 920;
},
{
associatedMasterId = "6BCBDBF6-8315-4194-A290-F71994A92467";
layerId = "A3A62E90-77FF-45C8-9E62-D45AC25026D1";
name = foreground;
shapes = (
{
closed = 1;
nodes = (
(20,750,l),
(372,0,l),
(550,0,l),
(900,750,l),
(725,750,l),
(463,160,l),
(198,750,l)
);
}
);
width = 920;
},
{
anchors = (
{
name = bottom;
pos = (282,0);
},
{
name = top;
pos = (282,750);
}
);
layerId = "4F9EBE27-C263-4ED9-B2A0-4AD0096E628D";
shapes = (
{
closed = 1;
nodes = (
(17,750,l),
(358,0,l),
(757,0,l),
(1087,750,l),
(748,750,l),
(503,100,l),
(635,100,l),
(382,750,l)
);
}
);
width = 1106;
}
);
unicode = 86;
},
{
glyphname = W;
kernLeft = W;
kernRight = W;
layers = (
{
anchors = (
{
name = bottom;
pos = (650,0);
},
{
name = top;
pos = (650,750);
}
);
layerId = "6BCBDBF6-8315-4194-A290-F71994A92467";
shapes = (
{
closed = 1;
nodes = (
(294,0,l),
(482,0,l),
(667,637,l),
(629,637,l),
(817,0,l),
(1009,0,l),
(1272,750,l),
(1102,750,l),
(899,119,l),
(940,119,l),
(745,750,l),
(559,750,l),
(365,118,l),
(405,119,l),
(205,750,l),
(32,750,l)
);
}
);
width = 1299;
},
{
associatedMasterId = "6BCBDBF6-8315-4194-A290-F71994A92467";
layerId = "AAC2F2C2-F94F-4AC4-BCA5-D53F79AED9F4";
name = foreground;
shapes = (
{
closed = 1;
nodes = (
(309,0,l),
(497,0,l),
(646,584,l),
(810,0,l),
(1002,0,l),
(1262,750,l),
(1092,750,l),
(913,183,l),
(743,750,l),
(557,750,l),
(400,183,l),
(210,750,l),
(37,750,l)
);
}
);
width = 1299;
},
{
anchors = (
{
name = bottom;
pos = (724,0);
},
{
name = top;
pos = (724,750);
}
);
background = {
shapes = (
{
closed = 1;
nodes = (
(-2,750,l),
(339,0,l),
(738,0,l),
(1068,750,l),
(729,750,l),
(484,80,l),
(614,80,l),
(361,750,l)
);
}
);
};
layerId = "4F9EBE27-C263-4ED9-B2A0-4AD0096E628D";
shapes = (
{
closed = 1;
nodes = (
(266,0,l),
(604,0,l),
(809,707,l),
(634,707,l),
(840,0,l),
(1182,0,l),
(1442,750,l),
(1136,750,l),
(909,40,l),
(1072,40,l),
(879,750,l),
(579,750,l),
(388,40,l),
(551,40,l),
(325,750,l),
(6,750,l)
);
}
);
width = 1446;
}
);
unicode = 87;
},
{
glyphname = X;
kernLeft = X;
kernRight = X;
layers = (
{
anchors = (
{
name = bottom;
pos = (458,0);
},
{
name = top;
pos = (458,750);
}
);
background = {
shapes = (
{
closed = 1;
nodes = (
(883,750,l),
(676,750,l),
(449,480,l),
(541,359,l)
);
},
{
closed = 1;
nodes = (
(896,0,l),
(501,442,l),
(250,750,l),
(41,750,l),
(404,324,l),
(686,0,l)
);
},
{
closed = 1;
nodes = (
(228,0,l),
(453,280,l),
(358,402,l),
(21,0,l)
);
}
);
};
layerId = "6BCBDBF6-8315-4194-A290-F71994A92467";
shapes = (
{
closed = 1;
nodes = (
(893,0,l),
(554,381,l),
(883,750,l),
(678,750,l),
(460,493,l),
(249,750,l),
(43,750,l),
(350,390,l),
(22,0,l),
(228,0,l),
(449,272,l),
(686,0,l)
);
}
);
width = 916;
},
{
associatedMasterId = "6BCBDBF6-8315-4194-A290-F71994A92467";
layerId = "3F4A420A-AC18-4CFD-AD64-9B8223F66417";
name = foreground;
shapes = (
{
closed = 1;
nodes = (
(891,750,l),
(672,750,l),
(447,480,l),
(544,359,l)
);
},
{
closed = 1;
nodes = (
(903,0,l),
(509,442,l),
(258,750,l),
(41,750,l),
(404,324,l),
(686,0,l)
);
},
{
closed = 1;
nodes = (
(242,0,l),
(464,280,l),
(365,402,l),
(23,0,l)
);
}
);
width = 917;
},
{
anchors = (
{
name = bottom;
pos = (458,0);
},
{
name = top;
pos = (458,750);
}
);
associatedMasterId = "6BCBDBF6-8315-4194-A290-F71994A92467";
background = {
shapes = (
{
closed = 1;
nodes = (
(689,225,l),
(207,800,l),
(85,697,l),
(567,122,l)
);
}
);
};
layerId = "677ACC8A-EC48-41A5-AAC2-FAE4644AA7DA";
name = "5 Feb 21, 20:48";
shapes = (
{
closed = 1;
nodes = (
(883,750,l),
(676,750,l),
(449,480,l),
(541,359,l)
);
},
{
closed = 1;
nodes = (
(896,0,l),
(501,442,l),
(250,750,l),
(41,750,l),
(404,324,l),
(686,0,l)
);
},
{
closed = 1;
nodes = (
(228,0,l),
(453,280,l),
(358,402,l),
(21,0,l)
);
}
);
width = 916;
},
{
anchors = (
{
name = bottom;
pos = (458,0);
},
{
name = top;
pos = (458,750);
}
);
associatedMasterId = "6BCBDBF6-8315-4194-A290-F71994A92467";
background = {
shapes = (
{
closed = 1;
nodes = (
(883,750,l),
(676,750,l),
(449,480,l),
(541,359,l)
);
},
{
closed = 1;
nodes = (
(896,0,l),
(501,442,l),
(250,750,l),
(41,750,l),
(404,324,l),
(686,0,l)
);
},
{
closed = 1;
nodes = (
(228,0,l),
(453,280,l),
(358,402,l),
(21,0,l)
);
}
);
};
layerId = "7396F269-892B-44CB-A28E-FE5F867A94EE";
name = "5 Feb 21, 20:55";
shapes = (
{
closed = 1;
nodes = (
(883,750,l),
(678,750,l),
(449,480,l),
(541,360,l)
);
},
{
closed = 1;
nodes = (
(896,0,l),
(501,442,l),
(249,750,l),
(41,750,l),
(404,324,l),
(686,0,l)
);
},
{
closed = 1;
nodes = (
(228,0,l),
(455,280,l),
(358,402,l),
(21,0,l)
);
}
);
width = 916;
},
{
anchors = (
{
name = bottom;
pos = (378,0);
},
{
name = top;
pos = (378,750);
}
);
background = {
shapes = (
{
closed = 1;
nodes = (
(1071,0,l),
(732,383,l),
(1051,750,l),
(696,750,l),
(423,388,l),
(674,389,l),
(397,750,l),
(31,750,l),
(328,389,l),
(0,0,l),
(356,0,l),
(640,379,l),
(388,374,l),
(704,0,l)
);
}
);
};
layerId = "4F9EBE27-C263-4ED9-B2A0-4AD0096E628D";
shapes = (
{
closed = 1;
nodes = (
(1071,0,l),
(732,383,l),
(1071,750,l),
(716,750,l),
(548,553,l),
(377,750,l),
(11,750,l),
(328,389,l),
(0,0,l),
(356,0,l),
(522,218,l),
(704,0,l)
);
}
);
width = 1071;
}
);
unicode = 88;
},
{
glyphname = Y;
kernLeft = Y;
kernRight = Y;
layers = (
{
anchors = (
{
name = bottom;
pos = (430,0);
},
{
name = top;
pos = (430,750);
},
{
name = topleft;
pos = (20,750);
}
);
background = {
shapes = (
{
closed = 1;
nodes = (
(20,750,l),
(372,0,l),
(550,0,l),
(900,750,l),
(725,750,l),
(463,160,l),
(198,750,l)
);
}
);
};
layerId = "6BCBDBF6-8315-4194-A290-F71994A92467";
shapes = (
{
closed = 1;
nodes = (
(0,750,l),
(354,260,l),
(508,260,l),
(860,750,l),
(675,750,l),
(394,353,l),
(472,353,l),
(188,750,l)
);
},
{
closed = 1;
nodes = (
(511,0,l),
(511,335,l),
(351,335,l),
(351,0,l)
);
}
);
width = 860;
},
{
associatedMasterId = "6BCBDBF6-8315-4194-A290-F71994A92467";
layerId = "8928EF81-19CD-4BBE-B0A2-008CD312208A";
name = foreground;
shapes = (
{
closed = 1;
nodes = (
(0,750,l),
(352,270,l),
(510,270,l),
(860,750,l),
(675,750,l),
(433,410,l),
(188,750,l)
);
},
{
closed = 1;
nodes = (
(511,0,l),
(511,335,l),
(351,335,l),
(351,0,l)
);
}
);
width = 860;
},
{
anchors = (
{
name = bottom;
pos = (542,0);
},
{
name = top;
pos = (542,750);
},
{
name = topleft;
pos = (22,750);
}
);
layerId = "4F9EBE27-C263-4ED9-B2A0-4AD0096E628D";
shapes = (
{
closed = 1;
nodes = (
(12,750,l),
(366,260,l),
(720,260,l),
(1072,750,l),
(717,750,l),
(417,258,l),
(692,258,l),
(388,750,l)
);
},
{
closed = 1;
nodes = (
(723,0,l),
(723,335,l),
(363,335,l),
(363,0,l)
);
}
);
width = 1086;
}
);
unicode = 89;
},
{
glyphname = Z;
kernLeft = Z;
kernRight = Z;
layers = (
{
anchors = (
{
name = bottom;
pos = (440,0);
},
{
name = center;
pos = (440,375);
},
{
name = top;
pos = (440,750);
}
);
background = {
shapes = (
{
closed = 1;
nodes = (
(672,620,l),
(672,750,l),
(3,750,l),
(3,620,l)
);
},
{
closed = 1;
nodes = (
(692,0,l),
(692,130,l),
(23,130,l),
(23,0,l)
);
},
{
closed = 1;
nodes = (
(-129,0,l),
(75,0,l),
(783,750,l),
(577,750,l)
);
}
);
};
layerId = "6BCBDBF6-8315-4194-A290-F71994A92467";
shapes = (
{
closed = 1;
nodes = (
(800,0,l),
(800,130,l),
(221,129,l),
(245,108,l),
(797,611,l),
(797,750,l),
(90,750,l),
(90,620,l),
(652,620,l),
(625,641,l),
(70,140,l),
(70,0,l)
);
}
);
width = 870;
},
{
associatedMasterId = "6BCBDBF6-8315-4194-A290-F71994A92467";
layerId = "AAF52107-A7CB-4BBC-B739-42D6495F491E";
name = foreground;
shapes = (
{
closed = 1;
nodes = (
(745,0,l),
(745,130,l),
(176,129,l),
(194,108,l),
(736,611,l),
(736,750,l),
(55,750,l),
(55,620,l),
(588,620,l),
(570,641,l),
(25,140,l),
(25,0,l)
);
}
);
width = 500;
},
{
anchors = (
{
name = bottom;
pos = (513,0);
},
{
name = center;
pos = (513,375);
},
{
name = top;
pos = (513,750);
}
);
layerId = "4F9EBE27-C263-4ED9-B2A0-4AD0096E628D";
shapes = (
{
closed = 1;
nodes = (
(968,0,l),
(968,230,l),
(229,219,l),
(283,78,l),
(945,521,l),
(945,750,l),
(83,750,l),
(83,530,l),
(800,540,l),
(743,680,l),
(58,230,l),
(58,0,l)
);
}
);
width = 1028;
}
);
metricLeft = H;
metricRight = H;
unicode = 90;
},
{
glyphname = I.ss01;
kernLeft = I.ss01;
kernRight = I.ss01;
layers = (
{
anchors = (
{
name = bottom;
pos = (336,0);
},
{
name = ogonek;
pos = (602,0);
},
{
name = top;
pos = (336,750);
},
{
name = topleft;
pos = (20,750);
}
);
layerId = "6BCBDBF6-8315-4194-A290-F71994A92467";
shapes = (
{
closed = 1;
nodes = (
(414,0,l),
(414,750,l),
(259,750,l),
(259,0,l)
);
},
{
closed = 1;
nodes = (
(70,620,l),
(602,620,l),
(602,750,l),
(70,750,l)
);
},
{
closed = 1;
nodes = (
(70,0,l),
(602,0,l),
(602,130,l),
(70,130,l)
);
}
);
width = 672;
},
{
associatedMasterId = "6BCBDBF6-8315-4194-A290-F71994A92467";
layerId = "5BCDC843-98AD-46E8-9C3C-0E78BE75F217";
name = foreground;
shapes = (
{
closed = 1;
nodes = (
(242,0,l),
(242,750,l),
(82,750,l),
(82,0,l)
);
}
);
width = 324;
},
{
anchors = (
{
name = bottom;
pos = (423,0);
},
{
name = ogonek;
pos = (741,10);
},
{
name = top;
pos = (423,750);
},
{
name = topleft;
pos = (28,750);
}
);
layerId = "4F9EBE27-C263-4ED9-B2A0-4AD0096E628D";
shapes = (
{
closed = 1;
nodes = (
(574,0,l),
(574,750,l),
(273,750,l),
(273,0,l)
);
},
{
closed = 1;
nodes = (
(58,550,l),
(788,550,l),
(788,750,l),
(58,750,l)
);
},
{
closed = 1;
nodes = (
(58,0,l),
(788,0,l),
(788,200,l),
(58,200,l)
);
}
);
width = 848;
}
);
metricLeft = H;
metricRight = H;
},
{
glyphname = IJ.ss01;
kernLeft = IJ.ss01;
kernRight = IJ.ss01;
layers = (
{
layerId = "6BCBDBF6-8315-4194-A290-F71994A92467";
shapes = (
{
closed = 1;
nodes = (
(245,230,l),
(245,750,l),
(85,750,l),
(85,230,l)
);
},
{
closed = 1;
nodes = (
(128,-9,o),
(201,-21,o),
(283,-21,cs),
(511,-21,o),
(649,69,o),
(649,260,cs),
(649,750,l),
(489,750,l),
(489,264,ls),
(489,173,o),
(406,115,o),
(248,115,cs),
(190,115,o),
(130,123,o),
(70,142,c),
(70,10,l)
);
},
{
closed = 1;
nodes = (
(361,625,l),
(579,625,l),
(579,750,l),
(361,750,l)
);
}
);
width = 719;
},
{
layerId = "4F9EBE27-C263-4ED9-B2A0-4AD0096E628D";
shapes = (
{
closed = 1;
nodes = (
(368,307,l),
(368,750,l),
(58,750,l),
(58,307,l)
);
},
{
closed = 1;
nodes = (
(170,-15,o),
(278,-25,o),
(367,-25,cs),
(700,-25,o),
(868,115,o),
(868,306,cs),
(868,750,l),
(578,750,l),
(578,419,ls),
(578,269,o),
(503,210,o),
(292,210,cs),
(214,210,o),
(136,220,o),
(59,242,c),
(59,20,l)
);
},
{
closed = 1;
nodes = (
(430,545,l),
(698,545,l),
(698,750,l),
(430,750,l)
);
}
);
width = 928;
}
);
metricLeft = I;
metricRight = J;
},
{
glyphname = Q.ss01;
kernLeft = Q.ss01;
kernRight = Q.ss01;
layers = (
{
background = {
shapes = (
{
closed = 1;
nodes = (
(863,-215,l),
(863,-57,l),
(594.526,-9.709,l),
(805.541,25.345,o),
(935,169.117,o),
(935,375,cs),
(935,612,o),
(762,767,o),
(490,767,cs),
(218,767,o),
(45,612,o),
(45,375,cs),
(45,211.297,o),
(127,87,o),
(266.462,25.124,c)
);
},
{
closed = 1;
nodes = (
(205,534,o),
(317,637,o),
(490,637,cs),
(663,637,o),
(775,534,o),
(775,375,cs),
(775,216,o),
(663,114,o),
(490,114,cs),
(317,114,o),
(205,216,o),
(205,375,cs)
);
}
);
};
layerId = "6BCBDBF6-8315-4194-A290-F71994A92467";
shapes = (
{
closed = 1;
nodes = (
(45,118,o),
(212,-62,o),
(863,-225,c),
(863,-67,l),
(594.526,-9.709,l),
(805.541,25.345,o),
(935,169.117,o),
(935,375,cs),
(935,612,o),
(762,767,o),
(490,767,cs),
(218,767,o),
(45,612,o),
(45,375,cs)
);
},
{
closed = 1;
nodes = (
(205,534,o),
(317,637,o),
(490,637,cs),
(663,637,o),
(775,534,o),
(775,375,cs),
(775,216,o),
(663,114,o),
(490,114,cs),
(317,114,o),
(205,216,o),
(205,375,cs)
);
}
);
width = 980;
},
{
background = {
shapes = (
{
closed = 1;
nodes = (
(23,212,o),
(99,90,o),
(246,25,c),
(469,-92,o),
(693,-208,o),
(916,-325,c),
(966,-37,l),
(677,-14,l),
(912,27,o),
(1033,169,o),
(1033,375,cs),
(1033,620,o),
(860,775,o),
(528,775,cs),
(196,775,o),
(23,620,o),
(23,375,cs)
);
},
{
closed = 1;
nodes = (
(416,204,o),
(363,263,o),
(363,375,cs),
(363,491,o),
(416,550,o),
(530,547,cs),
(640,544,o),
(693,485,o),
(693,375,cs),
(693,263,o),
(640,204,o),
(528,204,cs)
);
}
);
};
layerId = "4F9EBE27-C263-4ED9-B2A0-4AD0096E628D";
shapes = (
{
closed = 1;
nodes = (
(23,51,o),
(302,-208,o),
(956,-365,c),
(976,-67,l),
(597,-4,l),
(912,27,o),
(1033,169,o),
(1033,375,cs),
(1033,620,o),
(860,775,o),
(528,775,cs),
(196,775,o),
(23,620,o),
(23,355,cs)
);
},
{
closed = 1;
nodes = (
(363,491,o),
(416,550,o),
(530,547,cs),
(640,544,o),
(693,485,o),
(693,375,cs),
(693,263,o),
(640,204,o),
(528,204,cs),
(416,204,o),
(363,263,o),
(363,375,cs)
);
}
);
width = 1056;
},
{
associatedMasterId = "6BCBDBF6-8315-4194-A290-F71994A92467";
layerId = "BFC85E66-0AF8-4160-8126-B090454FF476";
name = "8 Nov 21, 16:20";
shapes = (
{
closed = 1;
nodes = (
(863,-215,l),
(863,-57,l),
(594.526,-9.709,l),
(805.541,25.345,o),
(935,169.117,o),
(935,375,cs),
(935,612,o),
(762,767,o),
(490,767,cs),
(218,767,o),
(45,612,o),
(45,375,cs),
(45,211.297,o),
(127,87,o),
(266.462,25.124,c)
);
},
{
closed = 1;
nodes = (
(205,534,o),
(317,637,o),
(490,637,cs),
(663,637,o),
(775,534,o),
(775,375,cs),
(775,216,o),
(663,114,o),
(490,114,cs),
(317,114,o),
(205,216,o),
(205,375,cs)
);
}
);
width = 980;
},
{
anchors = (
{
name = bottom;
pos = (490,0);
},
{
name = center;
pos = (490,375);
},
{
name = ogonek;
pos = (882,10);
},
{
name = top;
pos = (490,750);
},
{
name = topleft;
pos = (20,750);
},
{
name = topright;
pos = (960,750);
}
);
associatedMasterId = "4F9EBE27-C263-4ED9-B2A0-4AD0096E628D";
layerId = "A8737036-214A-4C6B-A4FD-453838462141";
name = "8 Nov 21, 16:23";
shapes = (
{
closed = 1;
nodes = (
(857,-26,o),
(1030,129,o),
(1030,375,cs),
(1030,620,o),
(857,775,o),
(525,775,cs),
(193,775,o),
(20,620,o),
(20,375,cs),
(20,129,o),
(193,-26,o),
(525,-26,cs)
);
},
{
closed = 1;
nodes = (
(413,204,o),
(360,263,o),
(360,375,cs),
(360,491,o),
(413,550,o),
(527,547,cs),
(637,544,o),
(690,485,o),
(690,375,cs),
(690,263,o),
(637,204,o),
(525,204,cs)
);
},
{
closed = 1;
nodes = (
(242,25,l),
(913,-325,l),
(963,-37,l),
(625,-10,l)
);
}
);
width = 1050;
}
);
metricLeft = O;
metricRight = O;
},
{
glyphname = a;
kernLeft = a;
kernRight = n;
layers = (
{
anchors = (
{
name = bottom;
pos = (331,0);
},
{
name = ogonek;
pos = (620,0);
},
{
name = top;
pos = (351,560);
}
);
background = {
shapes = (
{
closed = 1;
nodes = (
(26,36,o),
(102,-21,o),
(225,-21,cs),
(328,-21,o),
(414,21,o),
(474,100,c),
(474,0,l),
(620,0,l),
(620,334,l),
(620,494,o),
(520,580,o),
(329,580,cs),
(224,580,o),
(130,557,o),
(61,506,c),
(55,386,l),
(111,433,o),
(201,465,o),
(300,465,cs),
(408,465,o),
(473,427,o),
(473,353,c),
(473,332,l),
(436,332,ls),
(161,332,o),
(26,265,o),
(26,128,cs)
);
},
{
closed = 1;
nodes = (
(165,209,o),
(254,236,o),
(440,236,cs),
(473,236,l),
(473,182,l),
(406,120,o),
(343,92,o),
(271,92,cs),
(205,92,o),
(165,115,o),
(165,153,cs)
);
}
);
};
layerId = "6BCBDBF6-8315-4194-A290-F71994A92467";
shapes = (
{
closed = 1;
nodes = (
(35,39,o),
(107,-18,o),
(229,-18,cs),
(338,-18,o),
(420,30,o),
(474,100,c),
(474,0,l),
(620,0,l),
(620,334,ls),
(620,490,o),
(512,577,o),
(319,577,cs),
(228,577,o),
(155,558,o),
(81,523,c),
(81,413,l),
(174,448,o),
(235,462,o),
(304,462,cs),
(412,462,o),
(473,420,o),
(473,345,cs),
(473,326,l),
(436,326,ls),
(166,326,o),
(35,263,o),
(35,134,cs)
);
},
{
closed = 1;
nodes = (
(178,208,o),
(245,236,o),
(440,236,cs),
(473,236,l),
(473,167,l),
(407,117,o),
(340,91,o),
(276,91,cs),
(216,91,o),
(178,115,o),
(178,155,cs)
);
}
);
width = 670;
},
{
associatedMasterId = "6BCBDBF6-8315-4194-A290-F71994A92467";
layerId = "7A8026EB-D1BC-4FB2-807E-549008A4621F";
name = foreground;
shapes = (
{
closed = 1;
nodes = (
(30,36,o),
(106,-21,o),
(229,-21,cs),
(332,-21,o),
(418,21,o),
(478,100,c),
(478,0,l),
(624,0,l),
(624,334,l),
(624,494,o),
(524,580,o),
(333,580,cs),
(231.918,580,o),
(142.346,555.778,o),
(75,506,c),
(62,386,l),
(123,432,o),
(209,465,o),
(307,465,cs),
(412,465,o),
(477,427,o),
(477,353,c),
(477,332,l),
(440,332,ls),
(165,332,o),
(30,265,o),
(30,128,cs)
);
},
{
closed = 1;
nodes = (
(169,209,o),
(258,236,o),
(444,236,cs),
(477,236,l),
(477,167,l),
(410,120,o),
(347,92,o),
(275,92,cs),
(209,92,o),
(169,115,o),
(169,153,cs)
);
}
);
width = 674;
},
{
anchors = (
{
name = bottom;
pos = (340,0);
},
{
name = ogonek;
pos = (611,10);
},
{
name = top;
pos = (350,560);
}
);
associatedMasterId = "6BCBDBF6-8315-4194-A290-F71994A92467";
background = {
shapes = (
{
closed = 1;
nodes = (
(35,36,o),
(111,-21,o),
(234,-21,cs),
(337,-21,o),
(423,21,o),
(483,100,c),
(483,0,l),
(629,0,l),
(629,334,l),
(629,494,o),
(529,580,o),
(338,580,cs),
(233,580,o),
(139,557,o),
(70,506,c),
(64,386,l),
(120,433,o),
(210,465,o),
(309,465,cs),
(417,465,o),
(482,427,o),
(482,353,c),
(482,332,l),
(445,332,ls),
(170,332,o),
(35,265,o),
(35,128,cs)
);
},
{
closed = 1;
nodes = (
(174,209,o),
(263,236,o),
(449,236,cs),
(482,236,l),
(482,182,l),
(415,120,o),
(352,92,o),
(280,92,cs),
(214,92,o),
(174,115,o),
(174,153,cs)
);
}
);
};
layerId = "370C5AEF-266A-453E-966C-B6C91ADFBF5B";
name = "11 Jan 21, 18:01";
shapes = (
{
closed = 1;
nodes = (
(35,36,o),
(111,-21,o),
(234,-21,cs),
(337,-21,o),
(423,21,o),
(483,100,c),
(483,0,l),
(629,0,l),
(629,334,l),
(629,494,o),
(519,580,o),
(328,580,cs),
(227,580,o),
(147,556,o),
(80,506,c),
(80,394,l),
(152,437,o),
(227,463,o),
(313,463,cs),
(417,463,o),
(482,425,o),
(482,345,c),
(482,332,l),
(445,332,ls),
(170,332,o),
(35,265,o),
(35,134,cs)
);
},
{
closed = 1;
nodes = (
(174,208,o),
(263,236,o),
(449,236,cs),
(482,236,l),
(482,167,l),
(408,115,o),
(346,92,o),
(280,92,cs),
(214,92,o),
(174,115,o),
(174,152,cs)
);
}
);
width = 679;
},
{
anchors = (
{
name = bottom;
pos = (331,0);
},
{
name = ogonek;
pos = (602,10);
},
{
name = top;
pos = (351,560);
}
);
associatedMasterId = "6BCBDBF6-8315-4194-A290-F71994A92467";
background = {
shapes = (
{
closed = 1;
nodes = (
(26,36,o),
(102,-21,o),
(225,-21,cs),
(328,-21,o),
(414,21,o),
(474,100,c),
(474,0,l),
(620,0,l),
(620,334,l),
(620,494,o),
(520,580,o),
(329,580,cs),
(224,580,o),
(130,557,o),
(61,506,c),
(55,386,l),
(111,433,o),
(201,465,o),
(300,465,cs),
(408,465,o),
(473,427,o),
(473,353,c),
(473,332,l),
(436,332,ls),
(161,332,o),
(26,265,o),
(26,128,cs)
);
},
{
closed = 1;
nodes = (
(165,209,o),
(254,236,o),
(440,236,cs),
(473,236,l),
(473,182,l),
(406,120,o),
(343,92,o),
(271,92,cs),
(205,92,o),
(165,115,o),
(165,153,cs)
);
}
);
};
layerId = "F083FBB3-296E-4777-8981-D0C795E5C1F1";
name = "27 Mar 21, 02:48";
shapes = (
{
closed = 1;
nodes = (
(35,37,o),
(109,-21,o),
(233,-21,cs),
(334,-21,o),
(412,18,o),
(474,100,c),
(474,0,l),
(620,0,l),
(620,334,l),
(620,496,o),
(510,582,o),
(319,582,cs),
(218,582,o),
(138,558,o),
(71,508,c),
(71,396,l),
(143,439,o),
(218,465,o),
(304,465,cs),
(408,465,o),
(473,427,o),
(473,345,c),
(473,332,l),
(436,332,ls),
(170,332,o),
(35,265,o),
(35,134,cs)
);
},
{
closed = 1;
nodes = (
(174,208,o),
(254,236,o),
(440,236,cs),
(473,236,l),
(473,167,l),
(404,115,o),
(337,92,o),
(275,92,cs),
(212,92,o),
(174,115,o),
(174,153,cs)
);
}
);
width = 670;
},
{
anchors = (
{
name = bottom;
pos = (331,0);
},
{
name = ogonek;
pos = (602,10);
},
{
name = top;
pos = (351,560);
}
);
associatedMasterId = "6BCBDBF6-8315-4194-A290-F71994A92467";
background = {
shapes = (
{
closed = 1;
nodes = (
(26,36,o),
(102,-21,o),
(225,-21,cs),
(328,-21,o),
(414,21,o),
(474,100,c),
(474,0,l),
(620,0,l),
(620,334,l),
(620,494,o),
(520,580,o),
(329,580,cs),
(224,580,o),
(130,557,o),
(61,506,c),
(55,386,l),
(111,433,o),
(201,465,o),
(300,465,cs),
(408,465,o),
(473,427,o),
(473,353,c),
(473,332,l),
(436,332,ls),
(161,332,o),
(26,265,o),
(26,128,cs)
);
},
{
closed = 1;
nodes = (
(165,209,o),
(254,236,o),
(440,236,cs),
(473,236,l),
(473,182,l),
(406,120,o),
(343,92,o),
(271,92,cs),
(205,92,o),
(165,115,o),
(165,153,cs)
);
}
);
};
layerId = "0DD919BB-6D65-4C42-BDF4-8755C9D67F66";
name = "27 Mar 21, 14:14";
shapes = (
{
closed = 1;
nodes = (
(35,37,o),
(109,-21,o),
(233,-21,cs),
(334,-21,o),
(412,18,o),
(474,100,c),
(474,0,l),
(620,0,l),
(620,334,l),
(620,496,o),
(510,582,o),
(319,582,cs),
(225,582,o),
(143,561,o),
(71,518,c),
(71,406,l),
(160,447,o),
(232,465,o),
(304,465,cs),
(408,465,o),
(473,427,o),
(473,345,c),
(473,332,l),
(436,332,ls),
(170,332,o),
(35,265,o),
(35,134,cs)
);
},
{
closed = 1;
nodes = (
(174,208,o),
(254,236,o),
(440,236,cs),
(473,236,l),
(473,167,l),
(404,115,o),
(337,92,o),
(275,92,cs),
(212,92,o),
(174,115,o),
(174,153,cs)
);
}
);
width = 670;
},
{
anchors = (
{
name = bottom;
pos = (385,0);
},
{
name = ogonek;
pos = (691,10);
},
{
name = top;
pos = (385,570);
}
);
layerId = "4F9EBE27-C263-4ED9-B2A0-4AD0096E628D";
shapes = (
{
closed = 1;
nodes = (
(12,34,o),
(85,-26,o),
(198,-26,cs),
(303,-26,o),
(395,24,o),
(458,120,c),
(458,0,l),
(738,0,l),
(738,297,ls),
(738,491,o),
(607,597,o),
(367,597,cs),
(254,597,o),
(130,576,o),
(58,550,c),
(58,372,l),
(160,400,o),
(225,409,o),
(295,409,cs),
(400,409,o),
(447,380,o),
(447,325,cs),
(447,321,l),
(430,321,ls),
(133,321,o),
(12,252,o),
(12,129,cs)
);
},
{
closed = 1;
nodes = (
(277,212,o),
(321,231,o),
(434,231,cs),
(447,231,l),
(447,187,l),
(393,135,o),
(356,124,o),
(329,124,cs),
(299,124,o),
(277,137,o),
(277,168,cs)
);
}
);
width = 775;
},
{
anchors = (
{
name = bottom;
pos = (331,0);
},
{
name = ogonek;
pos = (602,10);
},
{
name = top;
pos = (351,560);
}
);
associatedMasterId = "6BCBDBF6-8315-4194-A290-F71994A92467";
background = {
shapes = (
{
closed = 1;
nodes = (
(26,36,o),
(102,-21,o),
(225,-21,cs),
(328,-21,o),
(414,21,o),
(474,100,c),
(474,0,l),
(620,0,l),
(620,334,l),
(620,494,o),
(520,580,o),
(329,580,cs),
(224,580,o),
(130,557,o),
(61,506,c),
(55,386,l),
(111,433,o),
(201,465,o),
(300,465,cs),
(408,465,o),
(473,427,o),
(473,353,c),
(473,332,l),
(436,332,ls),
(161,332,o),
(26,265,o),
(26,128,cs)
);
},
{
closed = 1;
nodes = (
(165,209,o),
(254,236,o),
(440,236,cs),
(473,236,l),
(473,182,l),
(406,120,o),
(343,92,o),
(271,92,cs),
(205,92,o),
(165,115,o),
(165,153,cs)
);
}
);
};
layerId = "3D7FFDC9-36A3-4558-8D8B-5B659A54364B";
name = "9 May 21, 13:57";
shapes = (
{
closed = 1;
nodes = (
(35,39,o),
(107,-16,o),
(233,-16,cs),
(338,-16,o),
(414,21,o),
(474,100,c),
(474,0,l),
(620,0,l),
(620,334,ls),
(620,490,o),
(512,577,o),
(319,577,cs),
(228,577,o),
(155,557,o),
(81,513,c),
(81,403,l),
(174,446,o),
(235,462,o),
(304,462,cs),
(412,462,o),
(473,420,o),
(473,345,cs),
(473,326,l),
(436,326,ls),
(166,326,o),
(35,263,o),
(35,134,cs)
);
},
{
closed = 1;
nodes = (
(178,208,o),
(245,236,o),
(440,236,cs),
(473,236,l),
(473,167,l),
(407,117,o),
(340,92,o),
(275,92,cs),
(216,92,o),
(178,115,o),
(178,153,cs)
);
}
);
width = 670;
}
);
unicode = 97;
},
{
glyphname = ae;
kernLeft = a;
kernRight = e;
layers = (
{
anchors = (
{
name = bottom;
pos = (552,0);
},
{
name = top;
pos = (552,560);
}
);
layerId = "6BCBDBF6-8315-4194-A290-F71994A92467";
shapes = (
{
closed = 1;
nodes = (
(35,37,o),
(109,-21,o),
(233,-21,cs),
(342,-21,o),
(426,10,o),
(532,106,c),
(600,200,l),
(600,334,ls),
(600,492,o),
(510,577,o),
(319,577,cs),
(225,577,o),
(153,556,o),
(81,513,c),
(81,401,l),
(170,442,o),
(232,460,o),
(304,460,cs),
(408,460,o),
(473,421,o),
(473,345,cs),
(473,326,l),
(436,326,ls),
(170,326,o),
(35,265,o),
(35,134,cs)
);
},
{
closed = 1;
nodes = (
(174,208,o),
(254,236,o),
(440,236,cs),
(473,236,l),
(473,167,l),
(404,115,o),
(337,92,o),
(275,92,cs),
(212,92,o),
(174,115,o),
(174,153,cs)
);
},
{
closed = 1;
nodes = (
(474,97,o),
(598,-21,o),
(819,-21,cs),
(911,-21,o),
(990,-3,o),
(1053,33,c),
(1068,149,l),
(987,114,o),
(914,99,o),
(829,99,cs),
(705,99,o),
(622,150,o),
(602,242,c),
(1069,242,l),
(1069,314,ls),
(1069,472,o),
(950,577,o),
(771,577,cs),
(578,577,o),
(474,461,o),
(474,279,cs)
);
},
{
closed = 1;
nodes = (
(606,417,o),
(666,462,o),
(770,462,cs),
(871,462,o),
(926,419,o),
(930,332,c),
(600,332,l)
);
}
);
width = 1104;
},
{
anchors = (
{
name = bottom;
pos = (780,0);
},
{
name = top;
pos = (780,570);
}
);
layerId = "4F9EBE27-C263-4ED9-B2A0-4AD0096E628D";
shapes = (
{
closed = 1;
nodes = (
(12,34,o),
(85,-26,o),
(198,-26,cs),
(303,-26,o),
(437,13,o),
(524,120,c),
(586,176,l),
(738,297,ls),
(738,491,o),
(607,597,o),
(367,597,cs),
(254,597,o),
(130,576,o),
(58,550,c),
(58,372,l),
(160,400,o),
(225,409,o),
(295,409,cs),
(400,409,o),
(447,380,o),
(447,325,cs),
(447,321,l),
(430,321,ls),
(133,321,o),
(12,252,o),
(12,129,cs)
);
},
{
closed = 1;
nodes = (
(277,212,o),
(321,231,o),
(434,231,cs),
(447,231,l),
(447,177,l),
(393,135,o),
(356,124,o),
(329,124,cs),
(299,124,o),
(277,137,o),
(277,168,cs)
);
},
{
closed = 1;
nodes = (
(447,86,o),
(608,-24,o),
(892,-24,cs),
(1010,-24,o),
(1097,-7,o),
(1184,26,c),
(1191,191,l),
(1110,166,o),
(1017,151,o),
(941,151,cs),
(830,151,o),
(763,180,o),
(735,242,c),
(1192,242,l),
(1192,314,ls),
(1192,486,o),
(1056,597,o),
(844,597,cs),
(594,597,o),
(447,479,o),
(447,279,cs)
);
},
{
closed = 1;
nodes = (
(733,392,o),
(766,432,o),
(821,432,cs),
(874,432,o),
(903,392,o),
(903,332,c),
(733,332,l)
);
}
);
width = 1220;
}
);
metricLeft = a;
metricRight = e;
unicode = 230;
},
{
glyphname = b;
kernLeft = h;
kernRight = o;
layers = (
{
anchors = (
{
name = bottom;
pos = (378,0);
},
{
name = top;
pos = (378,785);
}
);
background = {
shapes = (
{
closed = 1;
nodes = (
(248,35,o),
(337,-21,o),
(444,-21,cs),
(604,-21,o),
(715,101,o),
(715,276,cs),
(715,451,o),
(601,577,o),
(443,577,cs),
(335,577,o),
(240,518,o),
(187,415,c),
(193,355,l),
(243,425,o),
(305,458,o),
(379,458,cs),
(488,458,o),
(561,387,o),
(561,279,cs),
(561,172,o),
(487,98,o),
(379,98,cs),
(298,98,o),
(235,140,o),
(194,223,c),
(174,149,l)
);
},
{
closed = 1;
nodes = (
(61,785,l),
(61,0,l),
(211,0,l),
(211,785,l)
);
}
);
};
layerId = "6BCBDBF6-8315-4194-A290-F71994A92467";
shapes = (
{
closed = 1;
nodes = (
(350,577,o),
(262,531,o),
(211,451,c),
(211,785,l),
(61,785,l),
(61,0,l),
(211,0,l),
(211,101,l),
(267,24,o),
(348,-21,o),
(446,-21,cs),
(608,-21,o),
(720,102,o),
(720,276,cs),
(720,459,o),
(597,577,o),
(445,577,cs)
);
},
{
closed = 1;
nodes = (
(497,458,o),
(566,386,o),
(566,278,cs),
(566,170,o),
(496,98,o),
(388,98,cs),
(280,98,o),
(206,169,o),
(206,275,cs),
(206,285,ls),
(206,389,o),
(281,458,o),
(388,458,cs)
);
}
);
width = 755;
},
{
associatedMasterId = "6BCBDBF6-8315-4194-A290-F71994A92467";
layerId = "0B1A8D80-A616-4F1F-8F4E-5466CEE0D393";
name = foreground;
shapes = (
{
closed = 1;
nodes = (
(366,577,o),
(278,531,o),
(227,451,c),
(227,785,l),
(77,785,l),
(77,0,l),
(227,0,l),
(227,101,l),
(283,24,o),
(364,-21,o),
(462,-21,cs),
(624,-21,o),
(736,102,o),
(736,276,cs),
(736,459,o),
(613,577,o),
(461,577,cs)
);
},
{
closed = 1;
nodes = (
(513,458,o),
(582,386,o),
(582,278,cs),
(582,170,o),
(512,98,o),
(404,98,cs),
(296,98,o),
(222,169,o),
(222,275,cs),
(222,285,ls),
(222,389,o),
(297,458,o),
(404,458,cs)
);
}
);
width = 781;
},
{
anchors = (
{
name = bottom;
pos = (432,0);
},
{
name = top;
pos = (432,785);
}
);
layerId = "4F9EBE27-C263-4ED9-B2A0-4AD0096E628D";
shapes = (
{
closed = 1;
nodes = (
(480,594,o),
(388,552,o),
(335,431,c),
(335,800,l),
(35,800,l),
(35,0,l),
(335,0,l),
(335,121,l),
(391,23,o),
(486,-24,o),
(576,-24,cs),
(737,-24,o),
(840,98,o),
(840,276,cs),
(840,470,o),
(733,594,o),
(575,594,cs)
);
},
{
closed = 1;
nodes = (
(498,408,o),
(525,362,o),
(525,278,cs),
(525,194,o),
(498,148,o),
(442,148,cs),
(386,148,o),
(358,194,o),
(358,277,cs),
(358,285,ls),
(358,364,o),
(392,408,o),
(442,408,cs)
);
}
);
width = 863;
}
);
metricLeft = n;
metricRight = o;
unicode = 98;
},
{
glyphname = c;
kernLeft = o;
kernRight = c;
layers = (
{
anchors = (
{
name = bottom;
pos = (321,0);
},
{
name = top;
pos = (351,560);
}
);
background = {
shapes = (
{
closed = 1;
nodes = (
(169,577,o),
(39,464,o),
(39,279,cs),
(39,92,o),
(172,-21,o),
(374,-21,cs),
(465,-21,o),
(548,2,o),
(608,39,c),
(608,176,l),
(556,130,o),
(474,99,o),
(391,99,cs),
(270,99,o),
(189,166,o),
(189,281,cs),
(189,392,o),
(266,457,o),
(392,457,cs),
(481,457,o),
(548,425,o),
(599,383,c),
(599,521,l),
(548,556,o),
(468,577,o),
(381,577,cs)
);
}
);
};
guides = (
{
angle = 180;
pos = (526,150);
showMeasurement = 1;
}
);
layerId = "6BCBDBF6-8315-4194-A290-F71994A92467";
shapes = (
{
closed = 1;
nodes = (
(164,577,o),
(35,463,o),
(35,279,cs),
(35,94,o),
(165,-21,o),
(374,-21,cs),
(464,-21,o),
(536,-4,o),
(598,31,c),
(608,155,l),
(555,122,o),
(474,103,o),
(404,103,cs),
(267,103,o),
(189,173,o),
(189,281,cs),
(189,391,o),
(265,457,o),
(392,457,cs),
(456,457,o),
(519,441,o),
(597,403,c),
(592,528,l),
(518,562,o),
(450,577,o),
(373,577,cs)
);
}
);
width = 638;
},
{
associatedMasterId = "6BCBDBF6-8315-4194-A290-F71994A92467";
layerId = "25EFDEB6-5390-4959-815F-01C5FCEC485A";
name = foreground;
shapes = (
{
closed = 1;
nodes = (
(175,577,o),
(45,464,o),
(45,279,cs),
(45,92,o),
(178,-21,o),
(380,-21,cs),
(471,-21,o),
(544,2,o),
(604,39,c),
(614,166,l),
(562,130,o),
(480,99,o),
(397,99,cs),
(276,99,o),
(195,166,o),
(195,281,cs),
(195,392,o),
(272,457,o),
(398,457,cs),
(487,457,o),
(554,425,o),
(605,383,c),
(596,516,l),
(545,551,o),
(474,577,o),
(377,577,cs)
);
}
);
width = 644;
},
{
anchors = (
{
name = bottom;
pos = (321,0);
},
{
name = top;
pos = (351,560);
}
);
associatedMasterId = "6BCBDBF6-8315-4194-A290-F71994A92467";
background = {
shapes = (
{
closed = 1;
nodes = (
(169,577,o),
(39,464,o),
(39,279,cs),
(39,92,o),
(172,-21,o),
(374,-21,cs),
(465,-21,o),
(548,2,o),
(608,39,c),
(608,176,l),
(556,130,o),
(474,99,o),
(391,99,cs),
(270,99,o),
(189,166,o),
(189,281,cs),
(189,392,o),
(266,457,o),
(392,457,cs),
(481,457,o),
(548,425,o),
(599,383,c),
(599,521,l),
(548,556,o),
(468,577,o),
(381,577,cs)
);
}
);
};
layerId = "DC93612F-0771-4A8A-978E-DE25D1AF7339";
name = "11 Apr 21, 22:10";
shapes = (
{
closed = 1;
nodes = (
(164,577,o),
(35,463,o),
(35,279,cs),
(35,94,o),
(165,-21,o),
(374,-21,cs),
(459,-21,o),
(533,-1,o),
(598,39,c),
(608,166,l),
(549,125,o),
(465,99,o),
(391,99,cs),
(267,99,o),
(189,169,o),
(189,281,cs),
(189,391,o),
(265,457,o),
(392,457,cs),
(463,457,o),
(530,436,o),
(599,393,c),
(590,516,l),
(531,556,o),
(457,577,o),
(371,577,cs)
);
}
);
width = 638;
},
{
anchors = (
{
name = bottom;
pos = (321,0);
},
{
name = top;
pos = (351,560);
}
);
associatedMasterId = "6BCBDBF6-8315-4194-A290-F71994A92467";
background = {
shapes = (
{
closed = 1;
nodes = (
(169,577,o),
(39,464,o),
(39,279,cs),
(39,92,o),
(172,-21,o),
(374,-21,cs),
(465,-21,o),
(548,2,o),
(608,39,c),
(608,176,l),
(556,130,o),
(474,99,o),
(391,99,cs),
(270,99,o),
(189,166,o),
(189,281,cs),
(189,392,o),
(266,457,o),
(392,457,cs),
(481,457,o),
(548,425,o),
(599,383,c),
(599,521,l),
(548,556,o),
(468,577,o),
(381,577,cs)
);
}
);
};
layerId = "D424775A-6410-48E0-B20F-8CA08212824B";
name = "19 Apr 21, 14:22";
shapes = (
{
closed = 1;
nodes = (
(164,577,o),
(35,463,o),
(35,279,cs),
(35,94,o),
(165,-21,o),
(374,-21,cs),
(459,-21,o),
(533,-1,o),
(598,39,c),
(608,166,l),
(549,125,o),
(465,99,o),
(391,99,cs),
(267,99,o),
(189,169,o),
(189,281,cs),
(189,391,o),
(265,457,o),
(392,457,cs),
(459,457,o),
(522,439,o),
(597,403,c),
(592,528,l),
(524,559,o),
(457,577,o),
(373,577,cs)
);
}
);
width = 638;
},
{
anchors = (
{
name = bottom;
pos = (417,0);
},
{
name = top;
pos = (380,570);
}
);
layerId = "4F9EBE27-C263-4ED9-B2A0-4AD0096E628D";
shapes = (
{
closed = 1;
nodes = (
(173,594,o),
(23,477,o),
(23,276,cs),
(23,90,o),
(170,-24,o),
(444,-24,cs),
(536,-24,o),
(616,-12,o),
(691,18,c),
(701,219,l),
(650,198,o),
(590,187,o),
(525,187,cs),
(402,187,o),
(338,224,o),
(338,296,cs),
(338,362,o),
(396,396,o),
(506,396,cs),
(573,396,o),
(640,384,o),
(690,362,c),
(685,545,l),
(604,582,o),
(510,594,o),
(429,594,cs)
);
}
);
width = 737;
}
);
metricLeft = o;
unicode = 99;
},
{
glyphname = d;
kernLeft = o;
kernRight = l;
layers = (
{
anchors = (
{
name = bottom;
pos = (382,0);
},
{
name = center;
pos = (382,280);
},
{
name = top;
pos = (382,785);
},
{
name = topright;
pos = (673,785);
}
);
layerId = "6BCBDBF6-8315-4194-A290-F71994A92467";
shapes = (
{
closed = 1;
nodes = (
(154,577,o),
(35,459,o),
(35,280,cs),
(35,103,o),
(155,-21,o),
(315,-21,cs),
(411,-21,o),
(491,24,o),
(544,111,c),
(544,0,l),
(694,0,l),
(694,785,l),
(544,785,l),
(544,456,l),
(498,533,o),
(413,577,o),
(315,577,cs)
);
},
{
closed = 1;
nodes = (
(476,458,o),
(549,389,o),
(549,285,cs),
(549,275,ls),
(549,169,o),
(477,98,o),
(369,98,cs),
(260,98,o),
(189,170,o),
(189,278,cs),
(189,386,o),
(260,458,o),
(369,458,cs)
);
}
);
width = 764;
},
{
associatedMasterId = "6BCBDBF6-8315-4194-A290-F71994A92467";
layerId = "80F3C2C6-F840-408D-B691-497C6895E5B2";
name = foreground;
shapes = (
{
closed = 1;
nodes = (
(154,572,o),
(35,454,o),
(35,280,cs),
(35,103,o),
(155,-21,o),
(315,-21,cs),
(411,-21,o),
(491,24,o),
(544,111,c),
(544,0,l),
(694,0,l),
(694,785,l),
(544,785,l),
(544,456,l),
(498,528,o),
(413,572,o),
(315,572,cs)
);
},
{
closed = 1;
nodes = (
(476,458,o),
(549,389,o),
(549,285,cs),
(549,275,ls),
(549,169,o),
(477,98,o),
(369,98,cs),
(260,98,o),
(189,170,o),
(189,278,cs),
(189,386,o),
(260,458,o),
(369,458,cs)
);
}
);
width = 764;
},
{
anchors = (
{
name = bottom;
pos = (434,0);
},
{
name = center;
pos = (434,285);
},
{
name = top;
pos = (434,800);
},
{
name = topright;
pos = (869,892);
}
);
background = {
shapes = (
{
closed = 1;
nodes = (
(391,-24,o),
(483,18,o),
(536,139,c),
(536,-200,l),
(836,-200,l),
(836,570,l),
(536,570,l),
(536,449,l),
(480,547,o),
(385,594,o),
(295,594,cs),
(134,594,o),
(31,472,o),
(31,293,cs),
(31,100,o),
(138,-24,o),
(296,-24,cs)
);
},
{
closed = 1;
nodes = (
(373,161,o),
(346,207,o),
(346,291,cs),
(346,376,o),
(373,422,o),
(429,422,cs),
(485,422,o),
(513,376,o),
(513,293,cs),
(513,285,ls),
(513,206,o),
(479,162,o),
(429,162,cs)
);
}
);
};
layerId = "4F9EBE27-C263-4ED9-B2A0-4AD0096E628D";
shapes = (
{
closed = 1;
nodes = (
(122,593,o),
(23,459,o),
(23,280,cs),
(23,103,o),
(131,-24,o),
(301,-24,cs),
(407,-24,o),
(479,21,o),
(532,111,c),
(532,0,l),
(832,0,l),
(832,800,l),
(532,800,l),
(532,456,l),
(486,548,o),
(401,593,o),
(295,593,cs)
);
},
{
closed = 1;
nodes = (
(482,422,o),
(510,376,o),
(510,293,cs),
(510,285,ls),
(510,206,o),
(476,162,o),
(426,162,cs),
(370,161,o),
(343,207,o),
(343,291,cs),
(343,376,o),
(370,422,o),
(426,422,cs)
);
}
);
width = 868;
}
);
metricLeft = o;
unicode = 100;
},
{
glyphname = dcroat;
kernLeft = o;
kernRight = l;
layers = (
{
layerId = "6BCBDBF6-8315-4194-A290-F71994A92467";
shapes = (
{
closed = 1;
nodes = (
(260,635,l),
(798,635,l),
(798,730,l),
(260,730,l)
);
},
{
ref = d;
}
);
width = 868;
},
{
layerId = "4F9EBE27-C263-4ED9-B2A0-4AD0096E628D";
shapes = (
{
closed = 1;
nodes = (
(272,625,l),
(930,625,l),
(930,750,l),
(272,750,l)
);
},
{
pos = (12,0);
ref = d;
}
);
width = 966;
}
);
metricRight = d;
unicode = 273;
},
{
glyphname = eth;
kernLeft = eth;
kernRight = eth;
layers = (
{
layerId = "6BCBDBF6-8315-4194-A290-F71994A92467";
shapes = (
{
closed = 1;
nodes = (
(556,-23,o),
(689,107,o),
(689,310,cs),
(689,547,o),
(550,741,o),
(338,798,c),
(187,746,l),
(348,703,o),
(474,598,o),
(510,477,c),
(469,530,o),
(408,558,o),
(324,558,cs),
(157,558,o),
(35,449,o),
(35,276,cs),
(35,93,o),
(157,-23,o),
(349,-23,cs)
);
},
{
closed = 1;
nodes = (
(258,108,o),
(189,174,o),
(189,279,cs),
(189,382,o),
(261,451,o),
(370,451,cs),
(480,451,o),
(550,384,o),
(550,279,cs),
(550,176,o),
(478,108,o),
(370,108,cs)
);
},
{
closed = 1;
nodes = (
(517,658,l),
(528,662,l),
(699,694,l),
(678,760,l),
(114,656,l),
(135,587,l)
);
}
);
width = 734;
},
{
associatedMasterId = "6BCBDBF6-8315-4194-A290-F71994A92467";
layerId = "23034B76-0AA5-406E-BD98-F8ADBF514EED";
name = "27 Mar 21, 14:11";
shapes = (
{
closed = 1;
nodes = (
(154,567,o),
(35,449,o),
(35,280,cs),
(35,103,o),
(165,-21,o),
(363,-21,cs),
(573,-21,o),
(696,111,o),
(696,339,cs),
(696,551,o),
(604,711,o),
(435,793,c),
(277,770,l),
(452,686,o),
(529,591,o),
(544,446,c),
(498,533,o),
(413,567,o),
(322,567,cs)
);
},
{
closed = 1;
nodes = (
(476,448,o),
(549,379,o),
(549,285,cs),
(549,275,ls),
(549,179,o),
(477,108,o),
(369,108,cs),
(260,108,o),
(189,180,o),
(189,278,cs),
(189,376,o),
(260,448,o),
(369,448,cs)
);
},
{
closed = 1;
nodes = (
(135,587,l),
(517,658,l),
(528,662,l),
(699,694,l),
(678,780,l),
(114,676,l)
);
}
);
width = 729;
},
{
associatedMasterId = "6BCBDBF6-8315-4194-A290-F71994A92467";
layerId = "BDB93156-3DDD-4BCE-A721-670BA33AB712";
name = "11 Apr 21, 22:13";
shapes = (
{
closed = 1;
nodes = (
(35,449,o),
(35,276,cs),
(35,93,o),
(157,-23,o),
(349,-23,cs),
(556,-23,o),
(689,107,o),
(689,310,cs),
(689,547,o),
(550,741,o),
(338,798,c),
(187,746,l),
(348,703,o),
(474,598,o),
(510,477,c),
(469,530,o),
(398,561,o),
(320,561,cs),
(147,561,o)
);
},
{
closed = 1;
nodes = (
(261,451,o),
(370,451,cs),
(480,451,o),
(550,384,o),
(550,279,cs),
(550,176,o),
(478,108,o),
(370,108,cs),
(258,108,o),
(189,174,o),
(189,279,cs),
(189,382,o)
);
},
{
closed = 1;
nodes = (
(135,587,l),
(517,658,l),
(528,662,l),
(699,694,l),
(678,760,l),
(114,656,l)
);
}
);
width = 729;
},
{
layerId = "4F9EBE27-C263-4ED9-B2A0-4AD0096E628D";
shapes = (
{
closed = 1;
nodes = (
(682,-23,o),
(837,119,o),
(837,359,cs),
(837,579,o),
(709,772,o),
(467,875,c),
(161,793,l),
(362,725,o),
(507,597,o),
(543,477,c),
(492,535,o),
(416,566,o),
(312,566,cs),
(126,566,o),
(23,449,o),
(23,278,cs),
(23,76,o),
(186,-23,o),
(416,-23,cs)
);
},
{
closed = 1;
nodes = (
(371,150,o),
(343,194,o),
(343,280,cs),
(343,366,o),
(371,411,o),
(426,411,cs),
(481,411,o),
(510,367,o),
(510,282,cs),
(510,196,o),
(481,151,o),
(426,151,cs)
);
},
{
closed = 1;
nodes = (
(573,665,l),
(586,665,l),
(838,726,l),
(810,837,l),
(126,679,l),
(151,570,l)
);
}
);
width = 861;
},
{
associatedMasterId = "4F9EBE27-C263-4ED9-B2A0-4AD0096E628D";
layerId = "D0A32EA3-A047-47F6-BFCB-DAED200C8B46";
name = "27 Oct 21, 14:38";
shapes = (
{
closed = 1;
nodes = (
(19,461,o),
(19,276,cs),
(19,80,o),
(161,-23,o),
(433,-23,cs),
(734,-23,o),
(873,105,o),
(873,350,cs),
(873,604,o),
(733,743,o),
(472,818,c),
(221,746,l),
(444,700,o),
(555,607,o),
(594,477,c),
(557,525,o),
(489,566,o),
(368,566,cs),
(152,566,o)
);
},
{
closed = 1;
nodes = (
(368,401,o),
(454,401,cs),
(539,401,o),
(584,359,o),
(584,279,cs),
(584,199,o),
(539,158,o),
(454,158,cs),
(368,158,o),
(323,199,o),
(323,279,cs),
(323,359,o)
);
},
{
closed = 1;
nodes = (
(227,568,l),
(609,639,l),
(620,643,l),
(791,675,l),
(762,781,l),
(198,677,l)
);
}
);
width = 893;
}
);
metricLeft = d;
metricRight = o;
unicode = 240;
},
{
glyphname = e;
kernLeft = o;
kernRight = e;
layers = (
{
anchors = (
{
name = bottom;
pos = (335,0);
},
{
name = ogonek;
pos = (603,10);
},
{
name = top;
pos = (345,560);
}
);
layerId = "6BCBDBF6-8315-4194-A290-F71994A92467";
shapes = (
{
closed = 1;
nodes = (
(35,97,o),
(179,-21,o),
(400,-21,cs),
(492,-21,o),
(571,-3,o),
(634,23,c),
(649,139,l),
(568,114,o),
(495,99,o),
(420,99,cs),
(286,99,o),
(203,153,o),
(183,245,c),
(650,245,l),
(650,317,ls),
(650,475,o),
(531,577,o),
(352,577,cs),
(159,577,o),
(35,461,o),
(35,279,cs)
);
},
{
closed = 1;
nodes = (
(187,420,o),
(247,465,o),
(351,465,cs),
(452,465,o),
(507,422,o),
(511,335,c),
(181,335,l)
);
}
);
width = 685;
},
{
associatedMasterId = "6BCBDBF6-8315-4194-A290-F71994A92467";
layerId = "4E793C8F-AF5B-4DC9-921F-1BAA3FE47215";
name = foreground;
shapes = (
{
closed = 1;
nodes = (
(35,101,o),
(174,-21,o),
(386,-21,cs),
(477,-21,o),
(561,2,o),
(634,43,c),
(649,164,l),
(550,119,o),
(474,99,o),
(396,99,cs),
(277,99,o),
(203.1,145.559,o),
(183,234,c),
(650,234,l),
(650,309,ls),
(650,475,o),
(521,577,o),
(352,577,cs),
(165,577,o),
(35,467,o),
(35,279,cs)
);
},
{
closed = 1;
nodes = (
(187,419,o),
(255,462,o),
(351,462,cs),
(453,462,o),
(507,413,o),
(511,331,c),
(181,331,l)
);
}
);
width = 694;
},
{
anchors = (
{
name = bottom;
pos = (398,0);
},
{
name = ogonek;
pos = (631,10);
},
{
name = top;
pos = (398,570);
}
);
layerId = "4F9EBE27-C263-4ED9-B2A0-4AD0096E628D";
shapes = (
{
closed = 1;
nodes = (
(23,86,o),
(184,-24,o),
(468,-24,cs),
(586,-24,o),
(673,-7,o),
(760,26,c),
(767,191,l),
(686,166,o),
(593,151,o),
(517,151,cs),
(406,151,o),
(339,180,o),
(311,242,c),
(768,242,l),
(768,314,ls),
(768,486,o),
(632,597,o),
(420,597,cs),
(170,597,o),
(23,479,o),
(23,279,cs)
);
},
{
closed = 1;
nodes = (
(309,392,o),
(342,432,o),
(397,432,cs),
(450,432,o),
(479,392,o),
(479,332,c),
(309,332,l)
);
}
);
width = 796;
}
);
metricLeft = o;
unicode = 101;
},
{
glyphname = f;
kernLeft = f;
kernRight = f;
layers = (
{
anchors = (
{
name = bottom;
pos = (290,0);
},
{
name = top;
pos = (290,785);
}
);
background = {
shapes = (
{
closed = 1;
nodes = (
(138,445,l),
(138,0,l),
(288,0,l),
(288,445,l),
(541,445,l),
(541,560,l),
(288,560,l),
(288,565,ls),
(288,639,o),
(329,670,o),
(431,670,c),
(497,670,o),
(549,657,o),
(593,629,c),
(593,746,l),
(542,774,o),
(490,790,o),
(413,790,cs),
(238,790,o),
(138,706,o),
(138,568,cs),
(138,560,l),
(11,560,l),
(11,445,l)
);
}
);
};
layerId = "6BCBDBF6-8315-4194-A290-F71994A92467";
shapes = (
{
closed = 1;
nodes = (
(127,445,l),
(127,0,l),
(277,0,l),
(277,445,l),
(530,445,l),
(530,560,l),
(277,560,l),
(277,565,ls),
(277,639,o),
(329,670,o),
(430,670,cs),
(487,670,o),
(539,663,o),
(592,644,c),
(587,763,l),
(528,781,o),
(470,790,o),
(402,790,cs),
(229,790,o),
(127,708,o),
(127,568,cs),
(127,560,l),
(10,560,l),
(10,445,l)
);
}
);
width = 588;
},
{
associatedMasterId = "6BCBDBF6-8315-4194-A290-F71994A92467";
layerId = "303B6ABA-5B31-4D9C-966E-80765D3CD197";
name = foreground;
shapes = (
{
closed = 1;
nodes = (
(136,445,l),
(136,0,l),
(286,0,l),
(286,445,l),
(539,445,l),
(539,560,l),
(286,560,l),
(286,565,ls),
(286,639,o),
(327,670,o),
(429,670,cs),
(490,670,o),
(549,659,o),
(597,641,c),
(591,746,l),
(540,774,o),
(488,790,o),
(411,790,cs),
(236,790,o),
(136,706,o),
(136,568,cs),
(136,560,l),
(9,560,l),
(9,445,l)
);
}
);
width = 597;
},
{
anchors = (
{
name = bottom;
pos = (290,0);
},
{
name = top;
pos = (290,785);
}
);
associatedMasterId = "6BCBDBF6-8315-4194-A290-F71994A92467";
background = {
shapes = (
{
closed = 1;
nodes = (
(138,445,l),
(138,0,l),
(288,0,l),
(288,445,l),
(541,445,l),
(541,560,l),
(288,560,l),
(288,565,ls),
(288,639,o),
(329,670,o),
(431,670,c),
(497,670,o),
(549,657,o),
(593,629,c),
(593,746,l),
(542,774,o),
(490,790,o),
(413,790,cs),
(238,790,o),
(138,706,o),
(138,568,cs),
(138,560,l),
(11,560,l),
(11,445,l)
);
}
);
};
layerId = "80A3AD76-FB68-4875-A10F-AFA7CAD016D7";
name = "19 Apr 21, 12:08";
shapes = (
{
closed = 1;
nodes = (
(127,445,l),
(127,0,l),
(277,0,l),
(277,445,l),
(530,445,l),
(530,560,l),
(277,560,l),
(277,565,ls),
(277,639,o),
(329,670,o),
(430,670,cs),
(498,670,o),
(549,656,o),
(592,631,c),
(587,750,l),
(529,777,o),
(470,790,o),
(402,790,cs),
(229,790,o),
(127,708,o),
(127,568,cs),
(127,560,l),
(10,560,l),
(10,445,l)
);
}
);
width = 588;
},
{
anchors = (
{
name = bottom;
pos = (338,0);
},
{
name = top;
pos = (338,800);
}
);
layerId = "4F9EBE27-C263-4ED9-B2A0-4AD0096E628D";
shapes = (
{
closed = 1;
nodes = (
(113,348,l),
(113,0,l),
(413,0,l),
(413,348,l),
(625,348,l),
(625,533,l),
(413,533,l),
(413,544,ls),
(413,587,o),
(459,610,o),
(543,610,cs),
(596,610,o),
(644,601,o),
(687,584,c),
(672,785,l),
(617,801,o),
(558,810,o),
(473,810,cs),
(221,810,o),
(113,693,o),
(113,551,cs),
(113,533,l),
(6,533,l),
(6,348,l)
);
}
);
width = 671;
}
);
unicode = 102;
},
{
glyphname = g;
kernLeft = o;
kernRight = g;
layers = (
{
anchors = (
{
name = bottom;
pos = (382,-215);
},
{
name = top;
pos = (382,560);
}
);
background = {
shapes = (
{
closed = 1;
nodes = (
(40,131,o),
(160,8,o),
(314,8,cs),
(406,8,o),
(491,52,o),
(539,140,c),
(539,72,ls),
(539,-39,o),
(438,-93,o),
(322,-93,cs),
(213,-93,o),
(127,-47,o),
(70,0,c),
(70,-135,l),
(123,-173,o),
(211,-214,o),
(335,-214,cs),
(502,-214,o),
(689,-141,o),
(689,92,cs),
(689,570,l),
(539,570,l),
(539,471,l),
(493,543,o),
(408,587,o),
(314,587,cs),
(159,587,o),
(40,468,o),
(40,299,cs)
);
},
{
closed = 1;
nodes = (
(194,395,o),
(265,469,o),
(370,469,cs),
(471,469,o),
(544,400,o),
(544,291,cs),
(544,281,ls),
(544,186,o),
(470,123,o),
(370,123,cs),
(263,123,o),
(194,194,o),
(194,294,cs)
);
}
);
};
layerId = "6BCBDBF6-8315-4194-A290-F71994A92467";
shapes = (
{
closed = 1;
nodes = (
(40,138,o),
(160,15,o),
(314,15,cs),
(406,15,o),
(491,59,o),
(539,140,c),
(539,72,ls),
(539,-50,o),
(445,-104,o),
(308,-104,cs),
(230,-104,o),
(152,-87,o),
(74,-53,c),
(90,-180,l),
(158,-210,o),
(239,-225,o),
(323,-225,cs),
(509,-225,o),
(689,-152,o),
(689,82,cs),
(689,560,l),
(539,560,l),
(539,471,l),
(493,533,o),
(408,577,o),
(314,577,cs),
(159,577,o),
(40,458,o),
(40,299,cs)
);
},
{
closed = 1;
nodes = (
(194,395,o),
(265,469,o),
(370,469,cs),
(471,469,o),
(544,400,o),
(544,291,cs),
(544,281,ls),
(544,186,o),
(470,123,o),
(370,123,cs),
(263,123,o),
(194,194,o),
(194,294,cs)
);
}
);
width = 739;
},
{
associatedMasterId = "6BCBDBF6-8315-4194-A290-F71994A92467";
layerId = "F3D38E0C-FE9D-46C2-AE9C-47AD6BD068E3";
name = foreground;
shapes = (
{
closed = 1;
nodes = (
(52,131,o),
(172,8,o),
(326,8,cs),
(418,8,o),
(503,52,o),
(551,140,c),
(551,62,ls),
(551,-49,o),
(450,-103,o),
(331,-103,cs),
(222,-103,o),
(134,-58,o),
(76,-10,c),
(82,-145,l),
(135,-183,o),
(223,-224,o),
(347,-224,cs),
(514,-224,o),
(701,-151,o),
(701,82,cs),
(701,560,l),
(551,560,l),
(551,471,l),
(505,543,o),
(420,587,o),
(326,587,cs),
(171,587,o),
(52,468,o),
(52,299,cs)
);
},
{
closed = 1;
nodes = (
(206,395,o),
(277,469,o),
(382,469,cs),
(483,469,o),
(556,400,o),
(556,291,cs),
(556,281,ls),
(556,186,o),
(482,123,o),
(382,123,cs),
(275,123,o),
(206,194,o),
(206,294,cs)
);
}
);
width = 778;
},
{
anchors = (
{
name = bottom;
pos = (377,-215);
},
{
name = top;
pos = (377,560);
}
);
associatedMasterId = "6BCBDBF6-8315-4194-A290-F71994A92467";
background = {
shapes = (
{
closed = 1;
nodes = (
(35,131,o),
(155,8,o),
(309,8,cs),
(401,8,o),
(486,52,o),
(534,140,c),
(534,72,ls),
(534,-39,o),
(433,-93,o),
(317,-93,cs),
(208,-93,o),
(122,-47,o),
(65,0,c),
(65,-135,l),
(118,-173,o),
(206,-214,o),
(330,-214,cs),
(497,-214,o),
(684,-141,o),
(684,92,cs),
(684,570,l),
(534,570,l),
(534,471,l),
(488,543,o),
(403,587,o),
(309,587,cs),
(154,587,o),
(35,468,o),
(35,299,cs)
);
},
{
closed = 1;
nodes = (
(189,395,o),
(260,469,o),
(365,469,cs),
(466,469,o),
(539,400,o),
(539,291,cs),
(539,281,ls),
(539,186,o),
(465,123,o),
(365,123,cs),
(258,123,o),
(189,194,o),
(189,294,cs)
);
}
);
};
layerId = "E7E53C21-0AF5-4F48-AF9D-DE8F0733A689";
name = "3 Feb 21, 17:42";
shapes = (
{
closed = 1;
nodes = (
(35,138,o),
(155,15,o),
(309,15,cs),
(401,15,o),
(486,59,o),
(534,140,c),
(534,62,ls),
(534,-50,o),
(433,-104,o),
(314,-104,cs),
(223,-104,o),
(131,-71,o),
(59,-11,c),
(65,-146,l),
(136,-197,o),
(231,-225,o),
(330,-225,cs),
(497,-225,o),
(684,-152,o),
(684,82,cs),
(684,560,l),
(534,560,l),
(534,471,l),
(488,533,o),
(403,577,o),
(309,577,cs),
(154,577,o),
(35,458,o),
(35,299,cs)
);
},
{
closed = 1;
nodes = (
(189,395,o),
(260,469,o),
(365,469,cs),
(466,469,o),
(539,400,o),
(539,291,cs),
(539,281,ls),
(539,186,o),
(465,123,o),
(365,123,cs),
(258,123,o),
(189,194,o),
(189,294,cs)
);
}
);
width = 754;
},
{
anchors = (
{
name = bottom;
pos = (382,-215);
},
{
name = top;
pos = (382,560);
}
);
associatedMasterId = "6BCBDBF6-8315-4194-A290-F71994A92467";
background = {
shapes = (
{
closed = 1;
nodes = (
(40,131,o),
(160,8,o),
(314,8,cs),
(406,8,o),
(491,52,o),
(539,140,c),
(539,72,ls),
(539,-39,o),
(438,-93,o),
(322,-93,cs),
(213,-93,o),
(127,-47,o),
(70,0,c),
(70,-135,l),
(123,-173,o),
(211,-214,o),
(335,-214,cs),
(502,-214,o),
(689,-141,o),
(689,92,cs),
(689,570,l),
(539,570,l),
(539,471,l),
(493,543,o),
(408,587,o),
(314,587,cs),
(159,587,o),
(40,468,o),
(40,299,cs)
);
},
{
closed = 1;
nodes = (
(194,395,o),
(265,469,o),
(370,469,cs),
(471,469,o),
(544,400,o),
(544,291,cs),
(544,281,ls),
(544,186,o),
(470,123,o),
(370,123,cs),
(263,123,o),
(194,194,o),
(194,294,cs)
);
}
);
};
layerId = "6F2BE418-8606-431D-88FD-BA3E0E7550FC";
name = "22 Feb 21, 19:27";
shapes = (
{
closed = 1;
nodes = (
(40,138,o),
(160,15,o),
(314,15,cs),
(406,15,o),
(491,59,o),
(539,140,c),
(539,62,ls),
(539,-50,o),
(438,-104,o),
(319,-104,cs),
(228,-104,o),
(136,-78,o),
(54,-32,c),
(70,-159,l),
(141,-200,o),
(236,-225,o),
(335,-225,cs),
(502,-225,o),
(689,-152,o),
(689,82,cs),
(689,560,l),
(539,560,l),
(539,471,l),
(493,533,o),
(408,577,o),
(314,577,cs),
(159,577,o),
(40,458,o),
(40,299,cs)
);
},
{
closed = 1;
nodes = (
(194,395,o),
(265,469,o),
(370,469,cs),
(471,469,o),
(544,400,o),
(544,291,cs),
(544,281,ls),
(544,186,o),
(470,123,o),
(370,123,cs),
(263,123,o),
(194,194,o),
(194,294,cs)
);
}
);
width = 759;
},
{
anchors = (
{
name = bottom;
pos = (382,-215);
},
{
name = top;
pos = (382,560);
}
);
associatedMasterId = "6BCBDBF6-8315-4194-A290-F71994A92467";
background = {
shapes = (
{
closed = 1;
nodes = (
(40,131,o),
(160,8,o),
(314,8,cs),
(406,8,o),
(491,52,o),
(539,140,c),
(539,72,ls),
(539,-39,o),
(438,-93,o),
(322,-93,cs),
(213,-93,o),
(127,-47,o),
(70,0,c),
(70,-135,l),
(123,-173,o),
(211,-214,o),
(335,-214,cs),
(502,-214,o),
(689,-141,o),
(689,92,cs),
(689,570,l),
(539,570,l),
(539,471,l),
(493,543,o),
(408,587,o),
(314,587,cs),
(159,587,o),
(40,468,o),
(40,299,cs)
);
},
{
closed = 1;
nodes = (
(194,395,o),
(265,469,o),
(370,469,cs),
(471,469,o),
(544,400,o),
(544,291,cs),
(544,281,ls),
(544,186,o),
(470,123,o),
(370,123,cs),
(263,123,o),
(194,194,o),
(194,294,cs)
);
}
);
};
layerId = "65761CEB-A02C-4A1E-8BBC-7EBC01DD13EE";
name = "27 Mar 21, 02:42";
shapes = (
{
closed = 1;
nodes = (
(40,138,o),
(160,15,o),
(314,15,cs),
(406,15,o),
(491,59,o),
(539,140,c),
(539,62,ls),
(539,-50,o),
(445,-104,o),
(321,-104,cs),
(235,-104,o),
(143,-78,o),
(61,-32,c),
(77,-159,l),
(148,-200,o),
(243,-225,o),
(342,-225,cs),
(509,-225,o),
(689,-152,o),
(689,82,cs),
(689,560,l),
(539,560,l),
(539,471,l),
(493,533,o),
(408,577,o),
(314,577,cs),
(159,577,o),
(40,458,o),
(40,299,cs)
);
},
{
closed = 1;
nodes = (
(194,395,o),
(265,469,o),
(370,469,cs),
(471,469,o),
(544,400,o),
(544,291,cs),
(544,281,ls),
(544,186,o),
(470,123,o),
(370,123,cs),
(263,123,o),
(194,194,o),
(194,294,cs)
);
}
);
width = 759;
},
{
anchors = (
{
name = bottom;
pos = (382,-215);
},
{
name = top;
pos = (382,560);
}
);
associatedMasterId = "6BCBDBF6-8315-4194-A290-F71994A92467";
background = {
shapes = (
{
closed = 1;
nodes = (
(40,131,o),
(160,8,o),
(314,8,cs),
(406,8,o),
(491,52,o),
(539,140,c),
(539,72,ls),
(539,-39,o),
(438,-93,o),
(322,-93,cs),
(213,-93,o),
(127,-47,o),
(70,0,c),
(70,-135,l),
(123,-173,o),
(211,-214,o),
(335,-214,cs),
(502,-214,o),
(689,-141,o),
(689,92,cs),
(689,570,l),
(539,570,l),
(539,471,l),
(493,543,o),
(408,587,o),
(314,587,cs),
(159,587,o),
(40,468,o),
(40,299,cs)
);
},
{
closed = 1;
nodes = (
(194,395,o),
(265,469,o),
(370,469,cs),
(471,469,o),
(544,400,o),
(544,291,cs),
(544,281,ls),
(544,186,o),
(470,123,o),
(370,123,cs),
(263,123,o),
(194,194,o),
(194,294,cs)
);
}
);
};
layerId = "CB048D54-B4EC-463E-9B1D-3CA6769ECBBD";
name = "23 Apr 21, 11:49";
shapes = (
{
closed = 1;
nodes = (
(40,138,o),
(160,15,o),
(314,15,cs),
(406,15,o),
(491,59,o),
(539,140,c),
(539,72,ls),
(539,-50,o),
(445,-104,o),
(315,-104,cs),
(230,-104,o),
(144,-82,o),
(66,-48,c),
(82,-175,l),
(150,-205,o),
(239,-225,o),
(336,-225,cs),
(509,-225,o),
(689,-152,o),
(689,82,cs),
(689,560,l),
(539,560,l),
(539,471,l),
(493,533,o),
(408,577,o),
(314,577,cs),
(159,577,o),
(40,458,o),
(40,299,cs)
);
},
{
closed = 1;
nodes = (
(194,395,o),
(265,469,o),
(370,469,cs),
(471,469,o),
(544,400,o),
(544,291,cs),
(544,281,ls),
(544,186,o),
(470,123,o),
(370,123,cs),
(263,123,o),
(194,194,o),
(194,294,cs)
);
}
);
width = 759;
},
{
anchors = (
{
name = bottom;
pos = (433,-200);
},
{
name = top;
pos = (433,570);
}
);
layerId = "4F9EBE27-C263-4ED9-B2A0-4AD0096E628D";
shapes = (
{
closed = 1;
nodes = (
(23,116,o),
(136,21,o),
(307,21,cs),
(412,21,o),
(479,59,o),
(532,121,c),
(532,118,ls),
(532,-8,o),
(421,-48,o),
(300,-48,cs),
(223,-48,o),
(145,-31,o),
(67,3,c),
(83,-205,l),
(151,-235,o),
(232,-250,o),
(339,-250,cs),
(632,-250,o),
(831,-139,o),
(832,90,cs),
(832,570,l),
(532,570,l),
(532,456,l),
(486,548,o),
(401,593,o),
(297,593,cs),
(122,593,o),
(23,460,o),
(23,291,cs)
);
},
{
closed = 1;
nodes = (
(343,376,o),
(370,422,o),
(426,422,cs),
(482,422,o),
(510,376,o),
(510,306,cs),
(510,298,ls),
(510,219,o),
(478,182,o),
(426,182,cs),
(372,181,o),
(343,220,o),
(343,300,cs)
);
}
);
width = 868;
},
{
anchors = (
{
name = bottom;
pos = (300,-200);
},
{
name = top;
pos = (300,570);
}
);
associatedMasterId = "4F9EBE27-C263-4ED9-B2A0-4AD0096E628D";
layerId = "B3C7CCE1-E705-4861-8953-2CDA52C568E5";
name = " ";
shapes = (
{
closed = 1;
nodes = (
(119,593,o),
(20,460,o),
(20,291,cs),
(20,116,o),
(128,21,o),
(304,21,cs),
(404,21,o),
(476,59,o),
(529,111,c),
(529,90,l),
(829,90,l),
(829,570,l),
(529,570,l),
(529,456,l),
(483,548,o),
(398,593,o),
(292,593,cs)
);
},
{
closed = 1;
nodes = (
(369,181,o),
(340,220,o),
(340,300,cs),
(340,376,o),
(367,422,o),
(423,422,cs),
(479,422,o),
(507,376,o),
(507,306,cs),
(507,298,ls),
(507,219,o),
(475,182,o),
(423,182,cs)
);
},
{
closed = 1;
nodes = (
(529,108,l),
(529,-8,o),
(418,-48,o),
(297,-48,cs),
(220,-48,o),
(142,-31,o),
(64,3,c),
(80,-205,l),
(148,-235,o),
(229,-250,o),
(336,-250,cs),
(630,-250,o),
(829,-138,o),
(829,92,c)
);
}
);
width = 859;
}
);
unicode = 103;
},
{
glyphname = h;
kernLeft = h;
kernRight = n;
layers = (
{
anchors = (
{
name = bottom;
pos = (360,0);
},
{
name = center;
pos = (360,393);
},
{
name = top;
pos = (360,785);
}
);
layerId = "6BCBDBF6-8315-4194-A290-F71994A92467";
shapes = (
{
closed = 1;
nodes = (
(237,417,o),
(295,460,o),
(374,460,cs),
(459,460,o),
(511,410,o),
(511,328,cs),
(511,0,l),
(661,0,l),
(661,358,ls),
(661,498,o),
(581,577,o),
(438,577,cs),
(316,577,o),
(237,520,o),
(196,402,c),
(198,329,l)
);
},
{
closed = 1;
nodes = (
(211,0,l),
(211,411,l),
(211,417,l),
(211,785,l),
(61,785,l),
(61,0,l)
);
}
);
width = 718;
},
{
associatedMasterId = "6BCBDBF6-8315-4194-A290-F71994A92467";
layerId = "F923F4E0-4D11-4909-AC27-1C106E8A0A39";
name = foreground;
shapes = (
{
closed = 1;
nodes = (
(210,0,l),
(210,785,l),
(60,785,l),
(60,0,l)
);
},
{
closed = 1;
nodes = (
(234,412,o),
(290,460,o),
(373,460,cs),
(451,460,o),
(510,417,o),
(510,328,cs),
(510,0,l),
(660,0,l),
(660,358,ls),
(660,496,o),
(582,577,o),
(437,577,cs),
(315,577,o),
(236,520,o),
(195,402,c),
(197,329,l)
);
}
);
width = 749;
},
{
anchors = (
{
name = bottom;
pos = (405,0);
},
{
name = center;
pos = (405,400);
},
{
name = top;
pos = (405,800);
}
);
layerId = "4F9EBE27-C263-4ED9-B2A0-4AD0096E628D";
shapes = (
{
closed = 1;
nodes = (
(341,352,o),
(377,371,o),
(411,371,cs),
(447,371,o),
(470,350,o),
(470,301,cs),
(470,0,l),
(770,0,l),
(770,357,ls),
(770,512,o),
(699,587,o),
(568,587,cs),
(448,587,o),
(345,526,o),
(310,379,c),
(327,305,l)
);
},
{
closed = 1;
nodes = (
(335,0,l),
(335,404,l),
(315,404,l),
(315,800,l),
(35,800,l),
(35,0,l)
);
}
);
width = 812;
}
);
metricLeft = n;
metricRight = n;
unicode = 104;
},
{
glyphname = hbar;
kernLeft = h;
kernRight = n;
layers = (
{
layerId = "6BCBDBF6-8315-4194-A290-F71994A92467";
shapes = (
{
closed = 1;
nodes = (
(-20,635,l),
(518,635,l),
(518,730,l),
(-20,730,l)
);
},
{
ref = h;
}
);
width = 718;
},
{
layerId = "4F9EBE27-C263-4ED9-B2A0-4AD0096E628D";
shapes = (
{
closed = 1;
nodes = (
(-93,605,l),
(635,605,l),
(635,730,l),
(-93,730,l)
);
},
{
pos = (-13,0);
ref = h;
}
);
width = 799;
}
);
metricRight = h;
unicode = 295;
},
{
glyphname = i;
kernLeft = i;
kernRight = i;
layers = (
{
anchors = (
{
name = bottom;
pos = (148,0);
}
);
layerId = "6BCBDBF6-8315-4194-A290-F71994A92467";
shapes = (
{
ref = idotless;
},
{
pos = (8,0);
ref = dotaccentcomb;
}
);
width = 273;
},
{
associatedMasterId = "6BCBDBF6-8315-4194-A290-F71994A92467";
layerId = "2E2D0FC4-7E1A-4D9F-A9BD-0F238EA00546";
name = foreground;
shapes = (
{
closed = 1;
nodes = (
(79,0,l),
(229,0,l),
(229,560,l),
(79,560,l)
);
},
{
closed = 1;
nodes = (
(77,632,l),
(230,632,l),
(230,785,l),
(77,785,l)
);
}
);
width = 311;
},
{
anchors = (
{
name = bottom;
pos = (185,0);
}
);
layerId = "4F9EBE27-C263-4ED9-B2A0-4AD0096E628D";
shapes = (
{
ref = idotless;
},
{
pos = (-180,89);
ref = dotaccentcomb;
scale = (1.1,0.9);
}
);
width = 382;
}
);
metricLeft = n;
unicode = 105;
},
{
glyphname = idotless;
kernLeft = idotless;
kernRight = idotless;
layers = (
{
anchors = (
{
name = bottom;
pos = (138,0);
},
{
name = ogonek;
pos = (210,7);
},
{
name = top;
pos = (138,560);
}
);
layerId = "6BCBDBF6-8315-4194-A290-F71994A92467";
shapes = (
{
closed = 1;
nodes = (
(61,0,l),
(214,0,l),
(214,560,l),
(61,560,l)
);
}
);
width = 273;
},
{
associatedMasterId = "6BCBDBF6-8315-4194-A290-F71994A92467";
layerId = "29E3CD0F-E30F-4FC0-9417-EE4B21FB5092";
name = foreground;
shapes = (
{
closed = 1;
nodes = (
(230,0,l),
(383,0,l),
(383,560,l),
(230,560,l)
);
}
);
width = 614;
},
{
anchors = (
{
name = bottom;
pos = (191,0);
},
{
name = ogonek;
pos = (294,10);
},
{
name = top;
pos = (191,570);
}
);
layerId = "4F9EBE27-C263-4ED9-B2A0-4AD0096E628D";
shapes = (
{
closed = 1;
nodes = (
(41,0,l),
(341,0,l),
(341,570,l),
(41,570,l)
);
}
);
width = 382;
}
);
unicode = 305;
},
{
glyphname = j;
kernLeft = j;
kernRight = j;
layers = (
{
background = {
shapes = (
{
closed = 1;
nodes = (
(112,560,l),
(112,51,ls),
(112,-55,o),
(47,-100,o),
(-63,-100,cs),
(-99,-100,o),
(-142,-95,o),
(-178,-83,c),
(-158,-202,l),
(-116,-217,o),
(-65,-225,o),
(-15,-225,cs),
(158,-225,o),
(262,-125,o),
(262,56,cs),
(262,560,l)
);
}
);
};
layerId = "6BCBDBF6-8315-4194-A290-F71994A92467";
shapes = (
{
ref = jdotless;
},
{
pos = (55,0);
ref = dotaccentcomb;
}
);
width = 332;
},
{
associatedMasterId = "6BCBDBF6-8315-4194-A290-F71994A92467";
layerId = "FDA96D34-3BB1-46B0-87EC-6020D66C7D52";
name = foreground;
shapes = (
{
closed = 1;
nodes = (
(182,560,l),
(182,62,ls),
(182,-44,o),
(117,-99,o),
(-9,-99,cs),
(-51,-99,o),
(-94,-93,o),
(-130,-81,c),
(-110,-200,l),
(-68,-216,o),
(-17,-224,o),
(38,-224,cs),
(228,-224,o),
(332,-124,o),
(332,57,cs),
(332,560,l)
);
},
{
closed = 1;
nodes = (
(180,632,l),
(333,632,l),
(333,785,l),
(180,785,l)
);
}
);
width = 413;
},
{
layerId = "4F9EBE27-C263-4ED9-B2A0-4AD0096E628D";
shapes = (
{
ref = jdotless;
},
{
pos = (-141,89);
ref = dotaccentcomb;
scale = (1.1,0.9);
}
);
width = 430;
}
);
unicode = 106;
},
{
glyphname = jdotless;
kernLeft = j;
kernRight = j;
layers = (
{
anchors = (
{
name = bottom;
pos = (166,-215);
},
{
name = top;
pos = (185,560);
}
);
layerId = "6BCBDBF6-8315-4194-A290-F71994A92467";
shapes = (
{
closed = 1;
nodes = (
(112,560,l),
(112,51,ls),
(112,-55,o),
(47,-100,o),
(-67,-100,cs),
(-102,-100,o),
(-142,-96,o),
(-178,-87,c),
(-158,-206,l),
(-116,-218,o),
(-65,-225,o),
(-15,-225,cs),
(158,-225,o),
(262,-125,o),
(262,56,cs),
(262,560,l)
);
}
);
width = 332;
},
{
anchors = (
{
name = bottom;
pos = (225,-200);
},
{
name = top;
pos = (230,570);
}
);
layerId = "4F9EBE27-C263-4ED9-B2A0-4AD0096E628D";
shapes = (
{
closed = 1;
nodes = (
(83,570,l),
(83,60,ls),
(83,-7,o),
(49,-56,o),
(-75,-56,cs),
(-100,-56,o),
(-136,-54,o),
(-195,-45,c),
(-176,-239,l),
(-121,-255,o),
(-63,-260,o),
(-5,-260,cs),
(274,-260,o),
(383,-143,o),
(383,-1,cs),
(383,570,l)
);
}
);
width = 430;
}
);
metricRight = j;
unicode = 567;
},
{
glyphname = k;
kernLeft = h;
kernRight = k;
layers = (
{
anchors = (
{
name = bottom;
pos = (348,0);
},
{
name = top;
pos = (355,785);
}
);
layerId = "6BCBDBF6-8315-4194-A290-F71994A92467";
shapes = (
{
closed = 1;
nodes = (
(515,0,l),
(697,0,l),
(367,381,l),
(263,296,l)
);
},
{
closed = 1;
nodes = (
(669,560,l),
(461,560,l),
(172,328,l),
(183,177,l)
);
},
{
closed = 1;
nodes = (
(61,0,l),
(211,0,l),
(211,785,l),
(61,785,l)
);
}
);
width = 708;
},
{
associatedMasterId = "6BCBDBF6-8315-4194-A290-F71994A92467";
layerId = "CCBDCEAE-D11D-4F36-B4EC-B248A9C83C4B";
name = foreground;
shapes = (
{
closed = 1;
nodes = (
(521,0,l),
(700,0,l),
(370,381,l),
(269,296,l)
);
},
{
closed = 1;
nodes = (
(675,560,l),
(482,560,l),
(193,328,l),
(190,177,l)
);
},
{
closed = 1;
nodes = (
(74,0,l),
(218,0,l),
(218,785,l),
(74,785,l)
);
}
);
width = 715;
},
{
anchors = (
{
name = bottom;
pos = (453,0);
},
{
name = top;
pos = (453,800);
}
);
layerId = "4F9EBE27-C263-4ED9-B2A0-4AD0096E628D";
shapes = (
{
closed = 1;
nodes = (
(549,0,l),
(892,0,l),
(531,381,l),
(287,296,l)
);
},
{
closed = 1;
nodes = (
(870,570,l),
(522,570,l),
(166,278,l),
(287,107,l)
);
},
{
closed = 1;
nodes = (
(35,0,l),
(335,0,l),
(335,800,l),
(35,800,l)
);
}
);
width = 904;
}
);
metricLeft = n;
unicode = 107;
},
{
glyphname = l;
kernLeft = h;
kernRight = l;
layers = (
{
anchors = (
{
name = bottom;
pos = (138,0);
},
{
name = center;
pos = (135,393);
},
{
name = top;
pos = (155,785);
},
{
name = topright;
pos = (210,785);
}
);
layerId = "6BCBDBF6-8315-4194-A290-F71994A92467";
shapes = (
{
closed = 1;
nodes = (
(60,0,l),
(210,0,l),
(210,785,l),
(60,785,l)
);
}
);
width = 270;
},
{
associatedMasterId = "6BCBDBF6-8315-4194-A290-F71994A92467";
layerId = "E7622B1A-A7CF-4A31-9292-6C6B7BD97724";
name = foreground;
shapes = (
{
closed = 1;
nodes = (
(77,0,l),
(227,0,l),
(227,785,l),
(77,785,l)
);
}
);
width = 308;
},
{
anchors = (
{
name = bottom;
pos = (191,0);
},
{
name = center;
pos = (191,400);
},
{
name = top;
pos = (191,800);
},
{
name = topright;
pos = (371,800);
}
);
layerId = "4F9EBE27-C263-4ED9-B2A0-4AD0096E628D";
shapes = (
{
closed = 1;
nodes = (
(41,0,l),
(341,0,l),
(341,800,l),
(41,800,l)
);
}
);
width = 382;
}
);
unicode = 108;
},
{
glyphname = lslash;
kernLeft = lslash;
kernRight = lslash;
layers = (
{
layerId = "6BCBDBF6-8315-4194-A290-F71994A92467";
shapes = (
{
closed = 1;
nodes = (
(20,280,l),
(435,485,l),
(435,614,l),
(20,410,l)
);
},
{
pos = (88,0);
ref = l;
}
);
width = 435;
},
{
layerId = "4F9EBE27-C263-4ED9-B2A0-4AD0096E628D";
shapes = (
{
closed = 1;
nodes = (
(15,240,l),
(561,489,l),
(561,678,l),
(15,430,l)
);
},
{
pos = (92,0);
ref = l;
}
);
width = 576;
}
);
unicode = 322;
},
{
glyphname = m;
kernLeft = n;
kernRight = n;
layers = (
{
anchors = (
{
name = bottom;
pos = (555,0);
},
{
name = top;
pos = (555,560);
}
);
layerId = "6BCBDBF6-8315-4194-A290-F71994A92467";
shapes = (
{
closed = 1;
nodes = (
(239,422,o),
(284,460,o),
(351,460,cs),
(430,460,o),
(481,409,o),
(481,328,cs),
(481,0,l),
(631,0,l),
(631,358,ls),
(631,497,o),
(553,577,o),
(417,577,cs),
(307,577,o),
(239,523,o),
(196,402,c),
(198,329,l)
);
},
{
closed = 1;
nodes = (
(211,0,l),
(211,408,l),
(211,415,l),
(211,560,l),
(61,560,l),
(61,0,l)
);
},
{
closed = 1;
nodes = (
(659,422,o),
(704,460,o),
(771,460,cs),
(850,460,o),
(901,409,o),
(901,328,cs),
(901,0,l),
(1051,0,l),
(1051,358,ls),
(1051,497,o),
(973,577,o),
(837,577,cs),
(729,577,o),
(660,525,o),
(616,413,c),
(618,329,l)
);
}
);
width = 1108;
},
{
associatedMasterId = "6BCBDBF6-8315-4194-A290-F71994A92467";
layerId = "97B8DC42-6646-42EC-8801-61DBBF0AD42F";
name = foreground;
shapes = (
{
closed = 1;
nodes = (
(248,422,o),
(293,460,o),
(360,460,cs),
(439,460,o),
(490,409,o),
(490,328,cs),
(490,0,l),
(640,0,l),
(640,358,ls),
(640,497,o),
(562,577,o),
(426,577,cs),
(316,577,o),
(248,523,o),
(205,402,c),
(207,329,l)
);
},
{
closed = 1;
nodes = (
(220,0,l),
(220,560,l),
(70,560,l),
(70,0,l)
);
},
{
closed = 1;
nodes = (
(668,422,o),
(713,460,o),
(780,460,cs),
(859,460,o),
(910,409,o),
(910,328,cs),
(910,0,l),
(1060,0,l),
(1060,358,ls),
(1060,497,o),
(982,577,o),
(846,577,cs),
(736,577,o),
(668,523,o),
(625,402,c),
(627,329,l)
);
}
);
width = 1105;
},
{
anchors = (
{
name = bottom;
pos = (618,0);
},
{
name = top;
pos = (618,570);
}
);
layerId = "4F9EBE27-C263-4ED9-B2A0-4AD0096E628D";
shapes = (
{
closed = 1;
nodes = (
(336,352,o),
(372,371,o),
(406,371,cs),
(442,371,o),
(470,350,o),
(470,301,cs),
(470,0,l),
(760,0,l),
(760,357,ls),
(760,512,o),
(694,587,o),
(563,587,cs),
(443,587,o),
(340,526,o),
(305,379,c),
(322,305,l)
);
},
{
closed = 1;
nodes = (
(335,0,l),
(335,404,l),
(315,404,l),
(315,570,l),
(35,570,l),
(35,0,l)
);
},
{
closed = 1;
nodes = (
(766,353,o),
(802,371,o),
(836,371,cs),
(872,371,o),
(895,350,o),
(895,301,cs),
(895,0,l),
(1195,0,l),
(1195,357,ls),
(1195,512,o),
(1124,587,o),
(993,587,cs),
(873,587,o),
(770,526,o),
(735,379,c),
(752,313,l)
);
}
);
width = 1237;
}
);
metricLeft = "=n";
metricRight = "=n";
unicode = 109;
},
{
glyphname = n;
kernLeft = n;
kernRight = n;
layers = (
{
anchors = (
{
name = bottom;
pos = (360,0);
},
{
name = top;
pos = (360,560);
}
);
background = {
shapes = (
{
closed = 1;
nodes = (
(228,0,l),
(229,351,l),
(262,408,o),
(306,460,o),
(397,460,cs),
(480,460,o),
(528,417,o),
(528,348,cs),
(528,0,l),
(678,0,l),
(678,378,ls),
(678,496,o),
(600,577,o),
(457,577,cs),
(339,577,o),
(262,522,o),
(229,433,c),
(228,433,l),
(228,560,l),
(78,560,l),
(78,0,l)
);
}
);
};
layerId = "6BCBDBF6-8315-4194-A290-F71994A92467";
shapes = (
{
closed = 1;
nodes = (
(237,417,o),
(295,460,o),
(374,460,cs),
(459,460,o),
(511,410,o),
(511,328,cs),
(511,0,l),
(661,0,l),
(661,358,ls),
(661,498,o),
(581,577,o),
(438,577,cs),
(316,577,o),
(237,520,o),
(196,402,c),
(198,329,l)
);
},
{
closed = 1;
nodes = (
(211,0,l),
(211,424,l),
(211,433,l),
(211,560,l),
(61,560,l),
(61,0,l)
);
}
);
width = 718;
},
{
associatedMasterId = "6BCBDBF6-8315-4194-A290-F71994A92467";
layerId = "0D2269CB-5CBE-4D05-9E62-3F74BB4BB3CA";
name = foreground;
shapes = (
{
closed = 1;
nodes = (
(234,412,o),
(290,460,o),
(373,460,cs),
(451,460,o),
(510,417,o),
(510,328,cs),
(510,0,l),
(660,0,l),
(660,358,ls),
(660,496,o),
(582,577,o),
(437,577,cs),
(315,577,o),
(236,520,o),
(195,402,c),
(197,329,l)
);
},
{
closed = 1;
nodes = (
(210,0,l),
(210,560,l),
(60,560,l),
(60,0,l)
);
}
);
width = 717;
},
{
anchors = (
{
name = bottom;
pos = (360,0);
},
{
name = top;
pos = (360,560);
}
);
associatedMasterId = "6BCBDBF6-8315-4194-A290-F71994A92467";
background = {
shapes = (
{
closed = 1;
nodes = (
(228,0,l),
(229,351,l),
(262,408,o),
(306,460,o),
(397,460,cs),
(480,460,o),
(528,417,o),
(528,348,cs),
(528,0,l),
(678,0,l),
(678,378,ls),
(678,496,o),
(600,577,o),
(457,577,cs),
(339,577,o),
(262,522,o),
(229,433,c),
(228,433,l),
(228,560,l),
(78,560,l),
(78,0,l)
);
}
);
};
layerId = "CC34766A-576C-4AD9-ABED-3F47E726CCC9";
name = "24 Feb 21, 19:13";
shapes = (
{
closed = 1;
nodes = (
(235,412,o),
(291,460,o),
(374,460,cs),
(459,460,o),
(511,410,o),
(511,328,cs),
(511,0,l),
(661,0,l),
(661,358,ls),
(661,496,o),
(583,577,o),
(438,577,cs),
(316,577,o),
(237,520,o),
(196,402,c),
(198,329,l)
);
},
{
closed = 1;
nodes = (
(211,0,l),
(211,560,l),
(61,560,l),
(61,0,l)
);
}
);
width = 718;
},
{
anchors = (
{
name = bottom;
pos = (395,0);
},
{
name = top;
pos = (395,570);
}
);
layerId = "4F9EBE27-C263-4ED9-B2A0-4AD0096E628D";
shapes = (
{
closed = 1;
nodes = (
(341,352,o),
(377,371,o),
(411,371,cs),
(447,371,o),
(470,350,o),
(470,301,cs),
(470,0,l),
(770,0,l),
(770,357,ls),
(770,512,o),
(699,587,o),
(568,587,cs),
(448,587,o),
(345,526,o),
(310,379,c),
(327,305,l)
);
},
{
closed = 1;
nodes = (
(335,0,l),
(335,404,l),
(315,404,l),
(315,570,l),
(35,570,l),
(35,0,l)
);
}
);
width = 812;
}
);
unicode = 110;
},
{
glyphname = o;
kernLeft = o;
kernRight = o;
layers = (
{
anchors = (
{
name = bottom;
pos = (370,0);
},
{
name = center;
pos = (370,280);
},
{
name = ogonek;
pos = (666,10);
},
{
name = top;
pos = (370,560);
},
{
name = topright;
pos = (720,560);
}
);
layerId = "6BCBDBF6-8315-4194-A290-F71994A92467";
shapes = (
{
closed = 1;
nodes = (
(574,-21,o),
(705,99,o),
(705,277,cs),
(705,458,o),
(574,577,o),
(370,577,cs),
(167,577,o),
(35,458,o),
(35,277,cs),
(35,99,o),
(166,-21,o),
(370,-21,cs)
);
},
{
closed = 1;
nodes = (
(263,100,o),
(189,169,o),
(189,277,cs),
(189,387,o),
(263,457,o),
(370,457,cs),
(477,457,o),
(551,387,o),
(551,277,cs),
(551,169,o),
(477,100,o),
(370,100,cs)
);
}
);
width = 740;
},
{
associatedMasterId = "6BCBDBF6-8315-4194-A290-F71994A92467";
layerId = "33C7952E-B253-4866-85CF-B7A8D476FA46";
name = foreground;
shapes = (
{
closed = 1;
nodes = (
(574,-21,o),
(705,99,o),
(705,277,cs),
(705,458,o),
(574,577,o),
(370,577,cs),
(167,577,o),
(35,458,o),
(35,277,cs),
(35,99,o),
(166,-21,o),
(370,-21,cs)
);
},
{
closed = 1;
nodes = (
(263,100,o),
(189,169,o),
(189,277,cs),
(189,387,o),
(263,457,o),
(370,457,cs),
(477,457,o),
(551,387,o),
(551,277,cs),
(551,169,o),
(477,100,o),
(370,100,cs)
);
}
);
width = 740;
},
{
anchors = (
{
name = bottom;
pos = (414,0);
},
{
name = center;
pos = (414,285);
},
{
name = ogonek;
pos = (742,10);
},
{
name = top;
pos = (414,570);
},
{
name = topright;
pos = (804,570);
}
);
layerId = "4F9EBE27-C263-4ED9-B2A0-4AD0096E628D";
shapes = (
{
closed = 1;
nodes = (
(663,-24,o),
(804,88,o),
(804,282,cs),
(804,478,o),
(663,595,o),
(414,595,cs),
(164,595,o),
(23,478,o),
(23,282,cs),
(23,88,o),
(164,-24,o),
(414,-24,cs)
);
},
{
closed = 1;
nodes = (
(352,162,o),
(323,204,o),
(323,284,cs),
(323,366,o),
(352,410,o),
(414,410,cs),
(475,410,o),
(504,366,o),
(504,284,cs),
(504,204,o),
(475,162,o),
(414,162,cs)
);
}
);
width = 827;
}
);
note = "
t
";
unicode = 111;
},
{
glyphname = oslash;
kernLeft = o;
kernRight = o;
layers = (
{
layerId = "6BCBDBF6-8315-4194-A290-F71994A92467";
shapes = (
{
closed = 1;
nodes = (
(55,35,l),
(129,-38,l),
(694,521,l),
(620,595,l)
);
},
{
ref = o;
}
);
width = 740;
},
{
layerId = "4F9EBE27-C263-4ED9-B2A0-4AD0096E628D";
shapes = (
{
closed = 1;
nodes = (
(38,-8,l),
(120,-88,l),
(771,563,l),
(688,644,l)
);
},
{
pos = (1,0);
ref = o;
}
);
width = 825;
}
);
unicode = 248;
},
{
glyphname = oe;
kernLeft = o;
kernRight = e;
layers = (
{
anchors = (
{
name = bottom;
pos = (591,0);
},
{
name = top;
pos = (591,560);
}
);
layerId = "6BCBDBF6-8315-4194-A290-F71994A92467";
shapes = (
{
closed = 1;
nodes = (
(574,-21,o),
(675,99,o),
(675,277,cs),
(675,458,o),
(574,577,o),
(370,577,cs),
(167,577,o),
(35,458,o),
(35,277,cs),
(35,99,o),
(166,-21,o),
(370,-21,cs)
);
},
{
closed = 1;
nodes = (
(263,100,o),
(189,169,o),
(189,277,cs),
(189,387,o),
(263,457,o),
(370,457,cs),
(477,457,o),
(551,387,o),
(551,277,cs),
(551,169,o),
(477,100,o),
(370,100,cs)
);
},
{
closed = 1;
nodes = (
(551,97,o),
(675,-21,o),
(896,-21,cs),
(988,-21,o),
(1067,-3,o),
(1130,33,c),
(1145,149,l),
(1064,114,o),
(991,99,o),
(906,99,cs),
(782,99,o),
(699,150,o),
(679,242,c),
(1146,242,l),
(1146,314,ls),
(1146,472,o),
(1027,577,o),
(848,577,cs),
(655,577,o),
(551,461,o),
(551,279,cs)
);
},
{
closed = 1;
nodes = (
(683,417,o),
(743,462,o),
(847,462,cs),
(948,462,o),
(1003,419,o),
(1007,332,c),
(677,332,l)
);
}
);
width = 1181;
},
{
anchors = (
{
name = bottom;
pos = (645,0);
},
{
name = top;
pos = (645,570);
}
);
layerId = "4F9EBE27-C263-4ED9-B2A0-4AD0096E628D";
shapes = (
{
closed = 1;
nodes = (
(663,-24,o),
(764,88,o),
(764,282,cs),
(764,478,o),
(663,595,o),
(414,595,cs),
(164,595,o),
(23,478,o),
(23,282,cs),
(23,88,o),
(164,-24,o),
(414,-24,cs)
);
},
{
closed = 1;
nodes = (
(352,162,o),
(323,204,o),
(323,284,cs),
(323,366,o),
(352,410,o),
(414,410,cs),
(475,410,o),
(504,366,o),
(504,284,cs),
(504,204,o),
(475,162,o),
(414,162,cs)
);
},
{
closed = 1;
nodes = (
(556,86,o),
(677,-24,o),
(961,-24,cs),
(1079,-24,o),
(1166,-7,o),
(1253,26,c),
(1260,191,l),
(1179,166,o),
(1086,151,o),
(1010,151,cs),
(899,151,o),
(832,180,o),
(804,242,c),
(1261,242,l),
(1261,314,ls),
(1261,486,o),
(1125,597,o),
(913,597,cs),
(663,597,o),
(556,479,o),
(556,279,cs)
);
},
{
closed = 1;
nodes = (
(802,392,o),
(835,432,o),
(890,432,cs),
(943,432,o),
(972,392,o),
(972,332,c),
(802,332,l)
);
}
);
width = 1289;
}
);
metricLeft = o;
metricRight = e;
unicode = 339;
},
{
glyphname = p;
kernLeft = p;
kernRight = o;
layers = (
{
anchors = (
{
name = bottom;
pos = (369,0);
},
{
name = top;
pos = (369,560);
}
);
layerId = "6BCBDBF6-8315-4194-A290-F71994A92467";
shapes = (
{
closed = 1;
nodes = (
(601,-21,o),
(720,97,o),
(720,276,cs),
(720,453,o),
(600,577,o),
(440,577,cs),
(344,577,o),
(264,532,o),
(211,445,c),
(211,560,l),
(61,560,l),
(61,-215,l),
(211,-215,l),
(211,100,l),
(257,23,o),
(342,-21,o),
(440,-21,cs)
);
},
{
closed = 1;
nodes = (
(279,98,o),
(206,167,o),
(206,271,cs),
(206,281,ls),
(206,387,o),
(278,458,o),
(386,458,cs),
(495,458,o),
(566,386,o),
(566,278,cs),
(566,170,o),
(495,98,o),
(386,98,cs)
);
}
);
width = 755;
},
{
associatedMasterId = "6BCBDBF6-8315-4194-A290-F71994A92467";
layerId = "063FBBF9-AA71-4833-A30A-A19DBE1EBE4C";
name = foreground;
shapes = (
{
closed = 1;
nodes = (
(600,-21,o),
(719,97,o),
(719,271,cs),
(719,448,o),
(599,572,o),
(439,572,cs),
(343,572,o),
(263,527,o),
(210,440,c),
(210,560,l),
(60,560,l),
(60,-200,l),
(210,-200,l),
(210,95,l),
(256,23,o),
(340,-21,o),
(438,-21,cs)
);
},
{
closed = 1;
nodes = (
(278,93,o),
(205,162,o),
(205,266,cs),
(205,276,ls),
(205,382,o),
(277,453,o),
(385,453,cs),
(494,453,o),
(565,381,o),
(565,273,cs),
(565,165,o),
(494,93,o),
(385,93,cs)
);
}
);
width = 754;
},
{
anchors = (
{
name = bottom;
pos = (435,0);
},
{
name = top;
pos = (435,570);
}
);
layerId = "4F9EBE27-C263-4ED9-B2A0-4AD0096E628D";
shapes = (
{
closed = 1;
nodes = (
(745,-24,o),
(844,110,o),
(844,289,cs),
(844,466,o),
(736,593,o),
(566,593,cs),
(460,593,o),
(388,548,o),
(335,458,c),
(335,570,l),
(35,570,l),
(35,-230,l),
(335,-230,l),
(335,113,l),
(381,21,o),
(466,-24,o),
(572,-24,cs)
);
},
{
closed = 1;
nodes = (
(385,147,o),
(357,193,o),
(357,276,cs),
(357,284,ls),
(357,363,o),
(391,407,o),
(441,407,cs),
(497,408,o),
(524,362,o),
(524,278,cs),
(524,193,o),
(497,147,o),
(441,147,cs)
);
}
);
width = 867;
}
);
metricLeft = b;
metricRight = b;
unicode = 112;
},
{
glyphname = thorn;
kernLeft = h;
kernRight = o;
layers = (
{
layerId = "6BCBDBF6-8315-4194-A290-F71994A92467";
shapes = (
{
closed = 1;
nodes = (
(600,-21,o),
(719,97,o),
(719,276,cs),
(719,453,o),
(599,577,o),
(439,577,cs),
(343,577,o),
(263,532,o),
(210,445,c),
(210,785,l),
(60,785,l),
(60,-215,l),
(210,-215,l),
(210,100,l),
(256,23,o),
(341,-21,o),
(439,-21,cs)
);
},
{
closed = 1;
nodes = (
(278,98,o),
(205,167,o),
(205,271,cs),
(205,281,ls),
(205,387,o),
(277,458,o),
(385,458,cs),
(494,458,o),
(565,386,o),
(565,278,cs),
(565,170,o),
(494,98,o),
(385,98,cs)
);
}
);
width = 754;
},
{
layerId = "4F9EBE27-C263-4ED9-B2A0-4AD0096E628D";
shapes = (
{
closed = 1;
nodes = (
(745,-24,o),
(844,110,o),
(844,289,cs),
(844,466,o),
(736,593,o),
(566,593,cs),
(460,593,o),
(388,548,o),
(335,458,c),
(335,800,l),
(35,800,l),
(35,-230,l),
(335,-230,l),
(335,113,l),
(381,21,o),
(466,-24,o),
(572,-24,cs)
);
},
{
closed = 1;
nodes = (
(385,147,o),
(357,193,o),
(357,276,cs),
(357,284,ls),
(357,363,o),
(391,407,o),
(441,407,cs),
(497,408,o),
(524,362,o),
(524,278,cs),
(524,193,o),
(497,147,o),
(441,147,cs)
);
}
);
width = 867;
}
);
metricRight = p;
unicode = 254;
},
{
glyphname = q;
kernLeft = o;
kernRight = d;
layers = (
{
anchors = (
{
name = bottom;
pos = (382,0);
},
{
name = top;
pos = (382,560);
}
);
background = {
shapes = (
{
closed = 1;
nodes = (
(405,-26,o),
(493,20,o),
(544,100,c),
(544,-210,l),
(694,-210,l),
(694,560,l),
(544,560,l),
(544,450,l),
(488,527,o),
(407,572,o),
(309,572,cs),
(147,572,o),
(35,449,o),
(35,275,cs),
(35,92,o),
(158,-26,o),
(310,-26,cs)
);
},
{
closed = 1;
nodes = (
(258,93,o),
(189,165,o),
(189,273,cs),
(189,381,o),
(259,453,o),
(367,453,cs),
(475,453,o),
(549,382,o),
(549,276,cs),
(549,266,ls),
(549,162,o),
(474,93,o),
(367,93,cs)
);
}
);
};
layerId = "6BCBDBF6-8315-4194-A290-F71994A92467";
shapes = (
{
closed = 1;
nodes = (
(405,-21,o),
(493,25,o),
(544,105,c),
(544,-215,l),
(694,-215,l),
(694,560,l),
(544,560,l),
(544,455,l),
(488,532,o),
(407,577,o),
(309,577,cs),
(147,577,o),
(35,454,o),
(35,280,cs),
(35,97,o),
(158,-21,o),
(310,-21,cs)
);
},
{
closed = 1;
nodes = (
(258,98,o),
(189,170,o),
(189,278,cs),
(189,386,o),
(259,458,o),
(367,458,cs),
(475,458,o),
(549,387,o),
(549,281,cs),
(549,271,ls),
(549,167,o),
(474,98,o),
(367,98,cs)
);
}
);
width = 764;
},
{
associatedMasterId = "6BCBDBF6-8315-4194-A290-F71994A92467";
layerId = "EA6C9805-BDE1-4741-A9A4-6DF2A9EB26B6";
name = foreground;
shapes = (
{
closed = 1;
nodes = (
(422,-26,o),
(510,20,o),
(561,100,c),
(561,-210,l),
(711,-210,l),
(711,560,l),
(561,560,l),
(561,450,l),
(505,527,o),
(424,572,o),
(326,572,cs),
(164,572,o),
(52,449,o),
(52,275,cs),
(52,92,o),
(175,-26,o),
(327,-26,cs)
);
},
{
closed = 1;
nodes = (
(275,93,o),
(206,165,o),
(206,273,cs),
(206,381,o),
(276,453,o),
(384,453,cs),
(492,453,o),
(566,382,o),
(566,276,cs),
(566,266,ls),
(566,162,o),
(491,93,o),
(384,93,cs)
);
}
);
width = 788;
},
{
anchors = (
{
name = bottom;
pos = (431,0);
},
{
name = top;
pos = (431,570);
}
);
layerId = "4F9EBE27-C263-4ED9-B2A0-4AD0096E628D";
shapes = (
{
closed = 1;
nodes = (
(383,-24,o),
(475,18,o),
(528,139,c),
(528,-230,l),
(828,-230,l),
(828,570,l),
(528,570,l),
(528,449,l),
(472,547,o),
(377,594,o),
(283,594,cs),
(126,594,o),
(23,472,o),
(23,293,cs),
(23,100,o),
(130,-24,o),
(288,-24,cs)
);
},
{
closed = 1;
nodes = (
(365,161,o),
(338,207,o),
(338,291,cs),
(338,376,o),
(365,422,o),
(421,422,cs),
(477,422,o),
(505,376,o),
(505,293,cs),
(505,285,ls),
(505,206,o),
(471,162,o),
(421,162,cs)
);
}
);
width = 864;
}
);
metricLeft = o;
unicode = 113;
},
{
glyphname = r;
kernLeft = n;
kernRight = r;
layers = (
{
anchors = (
{
name = bottom;
pos = (158,0);
},
{
name = top;
pos = (248,560);
}
);
layerId = "6BCBDBF6-8315-4194-A290-F71994A92467";
shapes = (
{
closed = 1;
nodes = (
(211,0,l),
(211,366,l),
(253,408,o),
(311,430,o),
(378,430,cs),
(408,430,o),
(440,426,o),
(474,417,c),
(474,565,l),
(460,567,o),
(446,568,o),
(432,568,cs),
(341,568,o),
(252,524,o),
(207,429,c),
(207,560,l),
(61,560,l),
(61,0,l)
);
}
);
width = 494;
},
{
associatedMasterId = "6BCBDBF6-8315-4194-A290-F71994A92467";
layerId = "D0FF9CF2-91C5-48A6-9879-57B30D7213DD";
name = foreground;
shapes = (
{
closed = 1;
nodes = (
(227,0,l),
(227,366,l),
(288,427,o),
(381,445,o),
(490,417,c),
(490,565,l),
(386,581,o),
(275,539,o),
(223,429,c),
(223,560,l),
(77,560,l),
(77,0,l)
);
}
);
width = 510;
},
{
anchors = (
{
name = bottom;
pos = (307,0);
},
{
name = top;
pos = (307,570);
}
);
layerId = "4F9EBE27-C263-4ED9-B2A0-4AD0096E628D";
shapes = (
{
closed = 1;
nodes = (
(335,0,l),
(335,318,l),
(389,337,o),
(427,344,o),
(472,344,cs),
(509,344,o),
(538,339,o),
(588,325,c),
(588,579,l),
(573,581,o),
(559,582,o),
(545,582,cs),
(446,582,o),
(376,531,o),
(331,407,c),
(331,570,l),
(35,570,l),
(35,0,l)
);
}
);
width = 612;
}
);
metricLeft = n;
unicode = 114;
},
{
glyphname = s;
kernLeft = s;
kernRight = s;
layers = (
{
anchors = (
{
name = bottom;
pos = (311,0);
},
{
name = top;
pos = (320,560);
}
);
background = {
shapes = (
{
closed = 1;
nodes = (
(50,188,o),
(496,269,o),
(496,158,cs),
(496,116,o),
(441,93,o),
(337,93,cs),
(241,93,o),
(166,113,o),
(57,170,c),
(57,45,l),
(150,0,o),
(242,-21,o),
(352,-21,cs),
(534,-21,o),
(637,37,o),
(637,155,cs),
(637,398,o),
(191,311,o),
(191,404,cs),
(191,444,o),
(243,464,o),
(343,464,cs),
(455,464,o),
(519,449,o),
(593,416,c),
(593,535,l),
(518,566,o),
(445,577,o),
(348,577,cs),
(161,577,o),
(50,519,o),
(50,400,cs)
);
}
);
};
layerId = "6BCBDBF6-8315-4194-A290-F71994A92467";
shapes = (
{
closed = 1;
nodes = (
(46,175,o),
(475,280,o),
(475,159,cs),
(475,116,o),
(420,93,o),
(322,93,cs),
(230,93,o),
(147,113,o),
(50,161,c),
(59,35,l),
(143,-4,o),
(231,-21,o),
(332,-21,cs),
(514,-21,o),
(616,37,o),
(616,158,cs),
(616,409,o),
(184,297,o),
(184,407,cs),
(184,444,o),
(234,464,o),
(334,464,cs),
(428,464,o),
(504,448,o),
(578,419,c),
(572,541,l),
(508,564,o),
(435,577,o),
(339,577,cs),
(150,577,o),
(46,519,o),
(46,407,cs)
);
}
);
width = 650;
},
{
associatedMasterId = "6BCBDBF6-8315-4194-A290-F71994A92467";
layerId = "5C3E432C-D29B-46A5-8E56-B797E9351750";
name = foreground;
shapes = (
{
closed = 1;
nodes = (
(40,188,o),
(474,269,o),
(474,158,cs),
(474,116,o),
(420,93,o),
(317,93,cs),
(228,93,o),
(158,111,o),
(57,155,c),
(57,32,l),
(143,-2,o),
(229,-21,o),
(332,-21,cs),
(513,-21,o),
(615,37,o),
(615,155,cs),
(615,398,o),
(181,311,o),
(181,404,cs),
(181,444,o),
(230,464,o),
(323,464,cs),
(434,464,o),
(497,449,o),
(571,416,c),
(571,535,l),
(497,566,o),
(424,577,o),
(328,577,cs),
(147,577,o),
(40,519,o),
(40,400,cs)
);
}
);
width = 640;
},
{
anchors = (
{
name = bottom;
pos = (317,0);
},
{
name = top;
pos = (320,560);
}
);
associatedMasterId = "6BCBDBF6-8315-4194-A290-F71994A92467";
background = {
shapes = (
{
closed = 1;
nodes = (
(50,188,o),
(496,269,o),
(496,158,cs),
(496,116,o),
(441,93,o),
(337,93,cs),
(241,93,o),
(166,113,o),
(57,170,c),
(57,45,l),
(150,0,o),
(242,-21,o),
(352,-21,cs),
(534,-21,o),
(637,37,o),
(637,155,cs),
(637,398,o),
(191,311,o),
(191,404,cs),
(191,444,o),
(243,464,o),
(343,464,cs),
(455,464,o),
(519,449,o),
(593,416,c),
(593,535,l),
(518,566,o),
(445,577,o),
(348,577,cs),
(161,577,o),
(50,519,o),
(50,400,cs)
);
}
);
};
layerId = "99EC8D6D-99C4-414A-AD90-E344F1D3F0A9";
name = "19 Apr 21, 13:59";
shapes = (
{
closed = 1;
nodes = (
(41,183,o),
(474,269,o),
(474,156,cs),
(474,116,o),
(420,93,o),
(317,93,cs),
(230,93,o),
(151,111,o),
(50,155,c),
(59,32,l),
(145,-2,o),
(231,-21,o),
(332,-21,cs),
(513,-21,o),
(615,37,o),
(615,155,cs),
(615,398,o),
(182,307,o),
(182,409,cs),
(182,444,o),
(231,464,o),
(334,464,cs),
(428,464,o),
(503,446,o),
(577,413,c),
(571,535,l),
(497,566,o),
(418,577,o),
(339,577,cs),
(148,577,o),
(41,519,o),
(41,411,cs)
);
}
);
width = 650;
},
{
anchors = (
{
name = bottom;
pos = (376,0);
},
{
name = top;
pos = (376,570);
}
);
layerId = "4F9EBE27-C263-4ED9-B2A0-4AD0096E628D";
shapes = (
{
closed = 1;
nodes = (
(35,134,o),
(442,267,o),
(442,175,cs),
(442,143,o),
(395,135,o),
(339,135,cs),
(244,135,o),
(139,157,o),
(42,198,c),
(51,29,l),
(127,-6,o),
(253,-28,o),
(378,-28,cs),
(622,-28,o),
(733,44,o),
(733,178,cs),
(733,438,o),
(308,331,o),
(308,407,cs),
(308,429,o),
(341,437,o),
(416,437,cs),
(523,437,o),
(628,420,o),
(706,392,c),
(694,553,l),
(626,575,o),
(533,600,o),
(391,600,cs),
(167,600,o),
(35,548,o),
(35,394,cs)
);
}
);
width = 757;
},
{
anchors = (
{
name = bottom;
pos = (317,0);
},
{
name = top;
pos = (320,560);
}
);
associatedMasterId = "6BCBDBF6-8315-4194-A290-F71994A92467";
background = {
shapes = (
{
closed = 1;
nodes = (
(50,188,o),
(496,269,o),
(496,158,cs),
(496,116,o),
(441,93,o),
(337,93,cs),
(241,93,o),
(166,113,o),
(57,170,c),
(57,45,l),
(150,0,o),
(242,-21,o),
(352,-21,cs),
(534,-21,o),
(637,37,o),
(637,155,cs),
(637,398,o),
(191,311,o),
(191,404,cs),
(191,444,o),
(243,464,o),
(343,464,cs),
(455,464,o),
(519,449,o),
(593,416,c),
(593,535,l),
(518,566,o),
(445,577,o),
(348,577,cs),
(161,577,o),
(50,519,o),
(50,400,cs)
);
}
);
};
layerId = "584DB07F-B8C2-47E6-82D6-7C903F932CC7";
name = "18 Oct 21, 23:32";
shapes = (
{
closed = 1;
nodes = (
(46,175,o),
(475,269,o),
(475,156,cs),
(475,116,o),
(420,93,o),
(322,93,cs),
(230,93,o),
(147,113,o),
(50,161,c),
(59,35,l),
(143,-4,o),
(231,-21,o),
(332,-21,cs),
(514,-21,o),
(616,37,o),
(616,155,cs),
(616,398,o),
(184,297,o),
(184,407,cs),
(184,444,o),
(234,464,o),
(334,464,cs),
(428,464,o),
(503,446,o),
(577,413,c),
(571,535,l),
(507,562,o),
(435,577,o),
(339,577,cs),
(150,577,o),
(46,519,o),
(46,407,cs)
);
}
);
width = 650;
}
);
unicode = 115;
},
{
glyphname = germandbls;
kernLeft = h;
kernRight = germandbls;
layers = (
{
anchors = (
{
name = bottom;
pos = (456,0);
},
{
name = top;
pos = (456,560);
}
);
layerId = "6BCBDBF6-8315-4194-A290-F71994A92467";
shapes = (
{
closed = 1;
nodes = (
(287,0,l),
(287,565,ls),
(287,642,o),
(344,675,o),
(466,675,cs),
(579,675,o),
(640,653,o),
(640,609,cs),
(640,520,o),
(381,560,o),
(381,388,cs),
(381,188,o),
(736,269,o),
(736,162,cs),
(736,115,o),
(668,93,o),
(591,93,cs),
(526,93,o),
(448,109,o),
(378,140,c),
(378,22,l),
(447,-6,o),
(536,-21,o),
(617,-21,cs),
(770,-21,o),
(886,37,o),
(886,162,cs),
(886,398,o),
(531,285,o),
(531,393,cs),
(531,484,o),
(790,419,o),
(790,612,cs),
(790,730,o),
(696,790,o),
(471,790,cs),
(257,790,o),
(137,706,o),
(137,568,cs),
(137,0,l)
);
},
{
closed = 1;
nodes = (
(157,560,l),
(10,560,l),
(10,445,l),
(157,445,l)
);
}
);
width = 920;
},
{
associatedMasterId = "6BCBDBF6-8315-4194-A290-F71994A92467";
layerId = "578FCA1A-77AF-4F03-9790-B667237A42DB";
name = foreground;
width = 614;
},
{
anchors = (
{
name = bottom;
pos = (552,0);
},
{
name = top;
pos = (552,800);
}
);
layerId = "4F9EBE27-C263-4ED9-B2A0-4AD0096E628D";
shapes = (
{
closed = 1;
nodes = (
(433,0,l),
(433,545,ls),
(433,595,o),
(481,627,o),
(569,627,cs),
(641,627,o),
(686,607,o),
(686,579,cs),
(686,518,o),
(477,560,o),
(477,388,cs),
(477,188,o),
(782,267,o),
(782,183,cs),
(782,157,o),
(753,138,o),
(684,138,cs),
(621,138,o),
(544,154,o),
(474,185,c),
(474,22,l),
(544,-6,o),
(632,-21,o),
(732,-21,cs),
(962,-21,o),
(1082,42,o),
(1082,172,cs),
(1082,398,o),
(766,322,o),
(766,410,cs),
(766,484,o),
(986,429,o),
(986,614,cs),
(986,752,o),
(842,810,o),
(582,810,cs),
(282,810,o),
(133,727,o),
(133,568,cs),
(133,0,l)
);
},
{
closed = 1;
nodes = (
(153,533,l),
(6,533,l),
(6,348,l),
(153,348,l)
);
}
);
width = 1106;
}
);
metricLeft = f;
metricRight = s;
unicode = 223;
},
{
glyphname = t;
kernLeft = t;
kernRight = t;
layers = (
{
anchors = (
{
name = bottom;
pos = (332,0);
},
{
name = center;
pos = (299,280);
},
{
name = top;
pos = (299,560);
},
{
name = topright;
pos = (281,905);
}
);
background = {
shapes = (
{
closed = 1;
nodes = (
(148,63,o),
(247,-21,o),
(399,-21,cs),
(457,-21,o),
(514,-9,o),
(569,14,c),
(569,130,l),
(517,111,o),
(471,103,o),
(434,103,c),
(350,103,o),
(298,144,o),
(298,213,cs),
(298,750,l),
(148,650,l),
(148,173,ls)
);
},
{
closed = 1;
nodes = (
(27,445,l),
(565,445,l),
(565,560,l),
(27,560,l)
);
}
);
};
layerId = "6BCBDBF6-8315-4194-A290-F71994A92467";
shapes = (
{
closed = 1;
nodes = (
(131,63,o),
(230,-21,o),
(382,-21,cs),
(440,-21,o),
(497,-9,o),
(552,14,c),
(572,130,l),
(513,108,o),
(462,103,o),
(428,103,cs),
(333,103,o),
(281,144,o),
(281,223,cs),
(281,750,l),
(134,648,l),
(134,518,l),
(131,503,l),
(131,173,ls)
);
},
{
closed = 1;
nodes = (
(10,445,l),
(545,445,l),
(545,560,l),
(10,560,l)
);
}
);
width = 607;
},
{
associatedMasterId = "6BCBDBF6-8315-4194-A290-F71994A92467";
layerId = "2F553518-E301-436D-9E41-55FC22FE61FC";
name = foreground;
shapes = (
{
closed = 1;
nodes = (
(141,63,o),
(240,-21,o),
(392,-21,cs),
(450,-21,o),
(507,-9,o),
(562,14,c),
(582,130,l),
(523,108,o),
(472,103,o),
(438,103,cs),
(343,103,o),
(291,144,o),
(291,213,cs),
(291,750,l),
(144,648,l),
(144,518,l),
(141,503,l),
(141,173,ls)
);
},
{
closed = 1;
nodes = (
(20,445,l),
(558,445,l),
(558,560,l),
(20,560,l)
);
}
);
width = 617;
},
{
anchors = (
{
name = bottom;
pos = (332,0);
},
{
name = center;
pos = (299,280);
},
{
name = top;
pos = (299,560);
},
{
name = topright;
pos = (281,905);
}
);
associatedMasterId = "6BCBDBF6-8315-4194-A290-F71994A92467";
background = {
shapes = (
{
closed = 1;
nodes = (
(148,63,o),
(247,-21,o),
(399,-21,cs),
(457,-21,o),
(514,-9,o),
(569,14,c),
(569,130,l),
(517,111,o),
(471,103,o),
(434,103,c),
(350,103,o),
(298,144,o),
(298,213,cs),
(298,750,l),
(148,650,l),
(148,173,ls)
);
},
{
closed = 1;
nodes = (
(27,445,l),
(565,445,l),
(565,560,l),
(27,560,l)
);
}
);
};
layerId = "ECD50FF1-246B-42D6-B35A-022422623E04";
name = "19 Apr 21, 14:22";
shapes = (
{
closed = 1;
nodes = (
(131,63,o),
(230,-21,o),
(382,-21,cs),
(440,-21,o),
(497,-9,o),
(552,14,c),
(572,130,l),
(513,108,o),
(462,103,o),
(428,103,cs),
(333,103,o),
(281,144,o),
(281,213,cs),
(281,750,l),
(134,648,l),
(134,518,l),
(131,503,l),
(131,173,ls)
);
},
{
closed = 1;
nodes = (
(10,445,l),
(548,445,l),
(548,560,l),
(10,560,l)
);
}
);
width = 607;
},
{
anchors = (
{
name = bottom;
pos = (365,0);
},
{
name = center;
pos = (332,280);
},
{
name = top;
pos = (352,570);
},
{
name = topright;
pos = (431,780);
}
);
layerId = "4F9EBE27-C263-4ED9-B2A0-4AD0096E628D";
shapes = (
{
closed = 1;
nodes = (
(104,51,o),
(237,-24,o),
(421,-24,cs),
(489,-24,o),
(566,-14,o),
(622,5,c),
(649,180,l),
(622,174,o),
(592,170,o),
(558,170,cs),
(458,170,o),
(394,208,o),
(394,310,cs),
(394,770,l),
(109,668,l),
(109,528,l),
(104,513,l),
(104,220,ls)
);
},
{
closed = 1;
nodes = (
(23,380,l),
(620,380,l),
(620,570,l),
(23,570,l)
);
}
);
width = 667;
}
);
unicode = 116;
},
{
glyphname = u;
kernLeft = u;
kernRight = u;
layers = (
{
anchors = (
{
name = bottom;
pos = (356,0);
},
{
name = ogonek;
pos = (640,10);
},
{
name = top;
pos = (356,560);
},
{
name = topright;
pos = (691,560);
}
);
layerId = "6BCBDBF6-8315-4194-A290-F71994A92467";
shapes = (
{
closed = 1;
nodes = (
(475,139,o),
(419,96,o),
(344,96,cs),
(259,96,o),
(207,146,o),
(207,228,cs),
(207,560,l),
(57,560,l),
(57,198,ls),
(57,58,o),
(137,-21,o),
(280,-21,cs),
(399,-21,o),
(475,36,o),
(516,154,c),
(514,227,l)
);
},
{
closed = 1;
nodes = (
(501,560,l),
(501,136,l),
(501,128,l),
(501,0,l),
(651,0,l),
(651,560,l)
);
}
);
width = 711;
},
{
associatedMasterId = "6BCBDBF6-8315-4194-A290-F71994A92467";
layerId = "930B487C-4D62-4CFA-82A5-159D76FAB179";
name = foreground;
shapes = (
{
closed = 1;
nodes = (
(485,144,o),
(432,96,o),
(352,96,cs),
(274,96,o),
(215,139,o),
(215,228,cs),
(215,560,l),
(65,560,l),
(65,198,ls),
(65,60,o),
(143,-21,o),
(288,-21,cs),
(407,-21,o),
(483,36,o),
(524,154,c),
(522,227,l)
);
},
{
closed = 1;
nodes = (
(509,560,l),
(509,0,l),
(659,0,l),
(659,560,l)
);
}
);
width = 729;
},
{
anchors = (
{
name = bottom;
pos = (401,0);
},
{
name = ogonek;
pos = (715,10);
},
{
name = top;
pos = (401,570);
},
{
name = topright;
pos = (777,570);
}
);
layerId = "4F9EBE27-C263-4ED9-B2A0-4AD0096E628D";
shapes = (
{
closed = 1;
nodes = (
(464,213,o),
(428,192,o),
(393,192,cs),
(358,192,o),
(335,213,o),
(335,262,cs),
(335,570,l),
(35,570,l),
(35,206,ls),
(35,51,o),
(106,-24,o),
(237,-24,cs),
(357,-24,o),
(460,39,o),
(495,191,c),
(478,265,l)
);
},
{
closed = 1;
nodes = (
(462,570,l),
(462,166,l),
(482,166,l),
(482,0,l),
(762,0,l),
(762,570,l)
);
}
);
width = 804;
}
);
unicode = 117;
},
{
glyphname = v;
kernLeft = v;
kernRight = v;
layers = (
{
anchors = (
{
name = bottom;
pos = (363,0);
},
{
name = top;
pos = (363,560);
}
);
background = {
shapes = (
{
closed = 1;
nodes = (
(302,0,l),
(481,0,l),
(757,560,l),
(596,560,l),
(393,134,l),
(189,560,l),
(26,560,l)
);
}
);
};
layerId = "6BCBDBF6-8315-4194-A290-F71994A92467";
shapes = (
{
closed = 1;
nodes = (
(272,0,l),
(453,0,l),
(705,559,l),
(538,560,l),
(365,132,l),
(191,560,l),
(20,560,l)
);
}
);
width = 725;
},
{
associatedMasterId = "6BCBDBF6-8315-4194-A290-F71994A92467";
layerId = "AA5975C9-C7F0-458D-81EF-1907BD294273";
name = foreground;
shapes = (
{
closed = 1;
nodes = (
(272,0,l),
(453,0,l),
(705,559,l),
(538,560,l),
(365,132,l),
(191,560,l),
(20,560,l)
);
}
);
width = 725;
},
{
anchors = (
{
name = bottom;
pos = (386,0);
},
{
name = top;
pos = (386,570);
}
);
layerId = "4F9EBE27-C263-4ED9-B2A0-4AD0096E628D";
shapes = (
{
closed = 1;
nodes = (
(258,0,l),
(639,0,l),
(891,569,l),
(576,570,l),
(452,213,l),
(327,570,l),
(6,570,l)
);
}
);
width = 895;
}
);
unicode = 118;
},
{
glyphname = w;
kernLeft = w;
kernRight = w;
layers = (
{
anchors = (
{
name = bottom;
pos = (529,0);
},
{
name = top;
pos = (529,560);
}
);
layerId = "6BCBDBF6-8315-4194-A290-F71994A92467";
shapes = (
{
closed = 1;
nodes = (
(206,0,l),
(403,0,l),
(525,379,l),
(651,0,l),
(851,0,l),
(1037,560,l),
(889,560,l),
(751,122,l),
(604,560,l),
(446,560,l),
(302,124,l),
(171,560,l),
(20,560,l)
);
}
);
width = 1057;
},
{
associatedMasterId = "6BCBDBF6-8315-4194-A290-F71994A92467";
layerId = "3A40BD5D-E816-4F56-B44D-C955E73F64D8";
name = foreground;
shapes = (
{
closed = 1;
nodes = (
(222,0,l),
(419,0,l),
(541,379,l),
(667,0,l),
(867,0,l),
(1053,560,l),
(905,560,l),
(767,118,l),
(620,560,l),
(462,560,l),
(318,120,l),
(187,560,l),
(36,560,l)
);
}
);
width = 1085;
},
{
anchors = (
{
name = bottom;
pos = (591,0);
},
{
name = top;
pos = (591,570);
}
);
layerId = "4F9EBE27-C263-4ED9-B2A0-4AD0096E628D";
shapes = (
{
closed = 1;
nodes = (
(186,0,l),
(493,0,l),
(590,345,l),
(691,0,l),
(1011,0,l),
(1197,570,l),
(949,570,l),
(869,216,l),
(784,570,l),
(426,570,l),
(344,226,l),
(271,570,l),
(0,570,l)
);
}
);
width = 1197;
}
);
unicode = 119;
},
{
glyphname = x;
kernLeft = x;
kernRight = x;
layers = (
{
anchors = (
{
name = bottom;
pos = (357,0);
},
{
name = top;
pos = (357,560);
}
);
background = {
shapes = (
{
closed = 1;
nodes = (
(228,0,l),
(391,180,l),
(560,0,l),
(751,0,l),
(487,282,l),
(744,560,l),
(553,560,l),
(397,386,l),
(235,560,l),
(44,560,l),
(301,284,l),
(37,0,l)
);
}
);
};
layerId = "6BCBDBF6-8315-4194-A290-F71994A92467";
shapes = (
{
closed = 1;
nodes = (
(687,560,l),
(506,560,l),
(352,371,l),
(439,275,l)
);
},
{
closed = 1;
nodes = (
(696,0,l),
(406,333,l),
(217,560,l),
(27,560,l),
(300,243,l),
(506,0,l)
);
},
{
closed = 1;
nodes = (
(198,0,l),
(367,211,l),
(280,308,l),
(17,0,l)
);
}
);
width = 713;
},
{
associatedMasterId = "6BCBDBF6-8315-4194-A290-F71994A92467";
layerId = "08EC495A-48EF-4A92-B30A-B40CABA1D343";
name = foreground;
shapes = (
{
closed = 1;
nodes = (
(687,560,l),
(506,560,l),
(352,371,l),
(439,275,l)
);
},
{
closed = 1;
nodes = (
(693,0,l),
(406,333,l),
(217,560,l),
(27,560,l),
(300,243,l),
(503,0,l)
);
},
{
closed = 1;
nodes = (
(201,0,l),
(367,211,l),
(280,308,l),
(20,0,l)
);
}
);
width = 713;
},
{
anchors = (
{
name = bottom;
pos = (413,0);
},
{
name = top;
pos = (413,570);
}
);
layerId = "4F9EBE27-C263-4ED9-B2A0-4AD0096E628D";
shapes = (
{
closed = 1;
nodes = (
(840,570,l),
(529,570,l),
(365,361,l),
(582,265,l)
);
},
{
closed = 1;
nodes = (
(850,0,l),
(579,283,l),
(350,570,l),
(10,570,l),
(283,275,l),
(500,0,l)
);
},
{
closed = 1;
nodes = (
(311,0,l),
(480,211,l),
(263,308,l),
(0,0,l)
);
}
);
width = 850;
}
);
unicode = 120;
},
{
glyphname = y;
kernLeft = y;
kernRight = y;
layers = (
{
associatedMasterId = "6BCBDBF6-8315-4194-A290-F71994A92467";
layerId = "2FDED988-871F-474A-9682-1526086A40BB";
name = foreground;
shapes = (
{
closed = 1;
nodes = (
(289,-24,l),
(260,-74,o),
(224,-95,o),
(165,-95,cs),
(124,-95,o),
(73,-85,o),
(10,-64,c),
(24,-190,l),
(86,-215,o),
(132,-224,o),
(183,-224,cs),
(310,-224,o),
(384,-173,o),
(451,-20,cs),
(707,560,l),
(547,560,l),
(374,130,l),
(180,560,l),
(13,560,l)
);
}
);
width = 728;
},
{
anchors = (
{
name = bottom;
pos = (359,0);
},
{
name = top;
pos = (359,560);
}
);
associatedMasterId = "6BCBDBF6-8315-4194-A290-F71994A92467";
background = {
shapes = (
{
closed = 1;
nodes = (
(295,0,l),
(476,0,l),
(728,559,l),
(561,560,l),
(388,132,l),
(214,560,l),
(43,560,l)
);
}
);
};
layerId = "A28154C1-8951-4812-8FF7-84DA33328A55";
name = "3 Feb 21, 17:44";
shapes = (
{
closed = 1;
nodes = (
(284,-25,l),
(255,-75,o),
(219,-96,o),
(160,-96,cs),
(119,-96,o),
(68,-86,o),
(5,-65,c),
(19,-191,l),
(81,-216,o),
(127,-225,o),
(178,-225,cs),
(305,-225,o),
(379,-174,o),
(446,-21,cs),
(702,560,l),
(542,560,l),
(369,130,l),
(175,560,l),
(8,560,l)
);
}
);
width = 722;
},
{
anchors = (
{
name = bottom;
pos = (359,0);
},
{
name = top;
pos = (359,560);
}
);
associatedMasterId = "6BCBDBF6-8315-4194-A290-F71994A92467";
background = {
shapes = (
{
closed = 1;
nodes = (
(295,0,l),
(476,0,l),
(728,559,l),
(561,560,l),
(388,132,l),
(214,560,l),
(43,560,l)
);
}
);
};
layerId = "E78556AC-DCCA-40FD-B37C-97F97AA60542";
name = "27 Mar 21, 02:44";
shapes = (
{
closed = 1;
nodes = (
(284,-25,l),
(265,-75,o),
(219,-96,o),
(160,-96,cs),
(119,-96,o),
(68,-86,o),
(24,-65,c),
(29,-191,l),
(78,-215,o),
(124,-225,o),
(178,-225,cs),
(308,-225,o),
(381,-170,o),
(446,-21,cs),
(702,560,l),
(542,560,l),
(369,130,l),
(175,560,l),
(8,560,l)
);
}
);
width = 722;
},
{
anchors = (
{
name = bottom;
pos = (371,0);
},
{
name = top;
pos = (371,560);
}
);
associatedMasterId = "6BCBDBF6-8315-4194-A290-F71994A92467";
background = {
shapes = (
{
closed = 1;
nodes = (
(307,0,l),
(488,0,l),
(740,559,l),
(573,560,l),
(400,132,l),
(226,560,l),
(55,560,l)
);
}
);
};
layerId = "4BF5EE58-CB58-4AB2-97DF-9A17D9395858";
name = "21 Apr 21, 22:49";
shapes = (
{
closed = 1;
nodes = (
(286,0,l),
(344,0,l),
(299,-76,o),
(231,-97,o),
(147,-97,cs),
(111,-97,o),
(76,-93,o),
(47,-86,c),
(52,-206,l),
(87,-219,o),
(131,-225,o),
(179,-225,cs),
(320,-225,o),
(402,-170,o),
(466,-21,cs),
(714,560,l),
(554,560,l),
(381,130,l),
(187,560,l),
(20,560,l)
);
}
);
width = 734;
},
{
anchors = (
{
name = bottom;
pos = (371,0);
},
{
name = top;
pos = (371,560);
}
);
background = {
shapes = (
{
closed = 1;
nodes = (
(283,0,l),
(464,0,l),
(716,559,l),
(549,560,l),
(376,132,l),
(202,560,l),
(31,560,l)
);
}
);
};
layerId = "6BCBDBF6-8315-4194-A290-F71994A92467";
name = "150";
shapes = (
{
closed = 1;
nodes = (
(296,0,l),
(280,-76,o),
(231,-100,o),
(154,-100,cs),
(111,-100,o),
(76,-93,o),
(47,-86,c),
(52,-206,l),
(87,-219,o),
(131,-225,o),
(179,-225,cs),
(320,-225,o),
(392,-170,o),
(458,-21,cs),
(714,560,l),
(554,560,l),
(356,67,l),
(409,68,l),
(187,560,l),
(20,560,l)
);
}
);
width = 734;
},
{
anchors = (
{
name = bottom;
pos = (371,0);
},
{
name = top;
pos = (371,560);
}
);
associatedMasterId = "6BCBDBF6-8315-4194-A290-F71994A92467";
background = {
shapes = (
{
closed = 1;
nodes = (
(307,0,l),
(488,0,l),
(740,559,l),
(573,560,l),
(400,132,l),
(226,560,l),
(55,560,l)
);
}
);
};
layerId = "C3B925DB-AC01-4345-B1EF-59CE2067B190";
name = "21 Apr 21, 22:50";
shapes = (
{
closed = 1;
nodes = (
(296,0,l),
(277,-76,o),
(231,-97,o),
(147,-97,cs),
(111,-97,o),
(76,-93,o),
(47,-86,c),
(52,-206,l),
(87,-219,o),
(131,-225,o),
(179,-225,cs),
(320,-225,o),
(392,-170,o),
(458,-21,cs),
(714,560,l),
(554,560,l),
(381,130,l),
(187,560,l),
(20,560,l)
);
}
);
width = 734;
},
{
anchors = (
{
name = bottom;
pos = (449,0);
},
{
name = top;
pos = (449,570);
}
);
background = {
shapes = (
{
closed = 1;
nodes = (
(253,0,l),
(634,0,l),
(886,569,l),
(571,570,l),
(447,213,l),
(322,570,l),
(1,570,l)
);
}
);
};
layerId = "4F9EBE27-C263-4ED9-B2A0-4AD0096E628D";
shapes = (
{
closed = 1;
nodes = (
(279,20,l),
(263,-27,o),
(215,-50,o),
(132,-50,cs),
(87,-50,o),
(47,-43,o),
(12,-36,c),
(18,-231,l),
(70,-244,o),
(122,-255,o),
(197,-255,cs),
(405,-255,o),
(556,-168,o),
(642,21,cs),
(891,570,l),
(578,570,l),
(423,82,l),
(521,84,l),
(332,570,l),
(6,570,l)
);
}
);
width = 895;
},
{
anchors = (
{
name = bottom;
pos = (298,0);
},
{
name = top;
pos = (298,570);
}
);
associatedMasterId = "4F9EBE27-C263-4ED9-B2A0-4AD0096E628D";
background = {
shapes = (
{
closed = 1;
nodes = (
(255,0,l),
(636,0,l),
(888,569,l),
(573,570,l),
(449,213,l),
(324,570,l),
(3,570,l)
);
}
);
};
layerId = "1A11777B-3733-4059-8EFF-8ADA1981EFA1";
name = "10 Dec 21, 11:41";
shapes = (
{
closed = 1;
nodes = (
(255,0,l),
(265,-70,o),
(229,-100,o),
(125,-100,cs),
(92,-100,o),
(50,-97,o),
(5,-86,c),
(10,-302,l),
(52,-318,o),
(93,-325,o),
(149,-325,cs),
(318,-325,o),
(509,-264,o),
(637,14,cs),
(893,570,l),
(572,570,l),
(450,213,l),
(325,570,l),
(8,570,l)
);
}
);
width = 898;
}
);
metricLeft = v;
metricRight = v;
unicode = 121;
},
{
glyphname = z;
kernLeft = z;
kernRight = z;
layers = (
{
anchors = (
{
name = bottom;
pos = (303,0);
},
{
name = center;
pos = (303,280);
},
{
name = top;
pos = (323,560);
}
);
layerId = "6BCBDBF6-8315-4194-A290-F71994A92467";
shapes = (
{
closed = 1;
nodes = (
(31,125,l),
(31,0,l),
(599,0,l),
(599,123,l),
(130,123,l),
(170,84,l),
(589,440,l),
(589,560,l),
(47,560,l),
(48,440,l),
(499,440,l),
(447,481,l),
(30,125,l)
);
}
);
width = 637;
},
{
associatedMasterId = "6BCBDBF6-8315-4194-A290-F71994A92467";
layerId = "ABBB265D-A286-40FF-8FD4-7A97D0F98DA3";
name = foreground;
width = 794;
},
{
anchors = (
{
name = bottom;
pos = (305,0);
},
{
name = center;
pos = (305,285);
},
{
name = top;
pos = (365,570);
}
);
layerId = "4F9EBE27-C263-4ED9-B2A0-4AD0096E628D";
shapes = (
{
closed = 1;
nodes = (
(36,175,l),
(36,0,l),
(704,0,l),
(704,185,l),
(135,185,l),
(305,134,l),
(689,395,l),
(689,570,l),
(47,570,l),
(48,395,l),
(499,395,l),
(467,476,l),
(35,175,l)
);
}
);
width = 728;
}
);
unicode = 122;
},
{
glyphname = a.ss01;
kernLeft = o;
kernRight = a.ss01;
layers = (
{
anchors = (
{
name = bottom;
pos = (389,0);
},
{
name = ogonek;
pos = (701,10);
},
{
name = top;
pos = (389,560);
}
);
layerId = "6BCBDBF6-8315-4194-A290-F71994A92467";
shapes = (
{
closed = 1;
nodes = (
(154,577,o),
(35,459,o),
(35,280,cs),
(35,103,o),
(155,-21,o),
(313,-21,cs),
(409,-21,o),
(489,24,o),
(542,111,c),
(542,0,l),
(692,0,l),
(692,560,l),
(542,560,l),
(542,456,l),
(496,533,o),
(411,577,o),
(313,577,cs)
);
},
{
closed = 1;
nodes = (
(474,458,o),
(547,389,o),
(547,285,cs),
(547,275,ls),
(547,169,o),
(475,98,o),
(367,98,cs),
(258,98,o),
(187,170,o),
(187,278,cs),
(187,386,o),
(258,458,o),
(367,458,cs)
);
}
);
width = 762;
},
{
associatedMasterId = "6BCBDBF6-8315-4194-A290-F71994A92467";
layerId = "A7275262-A523-4561-A75B-F2450B911AEC";
name = foreground;
shapes = (
{
closed = 1;
nodes = (
(171,572,o),
(52,454,o),
(52,280,cs),
(52,103,o),
(172,-21,o),
(332,-21,cs),
(428,-21,o),
(508,24,o),
(561,111,c),
(561,0,l),
(711,0,l),
(711,560,l),
(561,560,l),
(561,456,l),
(515,528,o),
(430,572,o),
(332,572,cs)
);
},
{
closed = 1;
nodes = (
(493,458,o),
(566,389,o),
(566,285,cs),
(566,275,ls),
(566,169,o),
(494,98,o),
(386,98,cs),
(277,98,o),
(206,170,o),
(206,278,cs),
(206,386,o),
(277,458,o),
(386,458,cs)
);
}
);
width = 788;
},
{
anchors = (
{
name = bottom;
pos = (433,0);
},
{
name = ogonek;
pos = (785,10);
},
{
name = top;
pos = (433,570);
}
);
layerId = "4F9EBE27-C263-4ED9-B2A0-4AD0096E628D";
shapes = (
{
closed = 1;
nodes = (
(122,593,o),
(23,459,o),
(23,280,cs),
(23,103,o),
(131,-24,o),
(301,-24,cs),
(407,-24,o),
(479,21,o),
(532,111,c),
(532,0,l),
(832,0,l),
(832,570,l),
(532,570,l),
(532,456,l),
(486,548,o),
(401,593,o),
(295,593,cs)
);
},
{
closed = 1;
nodes = (
(482,422,o),
(510,376,o),
(510,293,cs),
(510,285,ls),
(510,206,o),
(476,162,o),
(426,162,cs),
(370,161,o),
(343,207,o),
(343,291,cs),
(343,376,o),
(370,422,o),
(426,422,cs)
);
}
);
width = 868;
}
);
metricLeft = o;
metricRight = d;
},
{
glyphname = g.ss01;
kernLeft = g.ss01;
kernRight = g.ss01;
layers = (
{
anchors = (
{
name = bottom;
pos = (377,-215);
},
{
name = top;
pos = (377,560);
}
);
background = {
shapes = (
{
closed = 1;
nodes = (
(584,204,o),
(690,267,o),
(690,391,cs),
(690,515,o),
(584,577,o),
(373,577,cs),
(162,577,o),
(55,515,o),
(55,391,cs),
(55,267,o),
(162,204,o),
(373,204,cs)
);
},
{
closed = 1;
nodes = (
(246,314,o),
(195,344,o),
(195,391,cs),
(195,438,o),
(246,467,o),
(373,467,cs),
(498,467,o),
(550,438,o),
(550,391,cs),
(550,344,o),
(498,314,o),
(373,314,cs)
);
},
{
closed = 1;
nodes = (
(108,268,o),
(41,232,o),
(41,154,cs),
(41,73,o),
(112,12,o),
(324,12,c),
(408,12,l),
(540,12,o),
(577,-6,o),
(577,-49,c),
(577,-90,o),
(537,-104,o),
(408,-104,cs),
(244,-104,o),
(129,-75,o),
(40,-23,c),
(40,-154,l),
(124,-199,o),
(237,-224,o),
(383,-224,cs),
(617,-224,o),
(717,-160,o),
(717,-48,c),
(717,54,o),
(642,122,o),
(421,122,c),
(338,122,l),
(213,122,o),
(164,140,o),
(164,182,cs),
(164,212,o),
(189,233,o),
(250,257,c),
(182,279,l)
);
},
{
closed = 1;
nodes = (
(596,501,l),
(769,452,l),
(769,559,l),
(534,559,l)
);
}
);
};
layerId = "6BCBDBF6-8315-4194-A290-F71994A92467";
shapes = (
{
closed = 1;
nodes = (
(579,205,o),
(685,267,o),
(685,391,cs),
(685,437,o),
(666,474,o),
(626,508,c),
(627,516,l),
(576,557,o),
(491,577,o),
(373,577,cs),
(166,577,o),
(60,515,o),
(60,391,cs),
(60,267,o),
(167,205,o),
(373,205,cs)
);
},
{
closed = 1;
nodes = (
(252,313,o),
(200,336,o),
(200,392,cs),
(200,447,o),
(252,470,o),
(373,470,cs),
(493,470,o),
(545,447,o),
(545,392,cs),
(545,336,o),
(493,313,o),
(373,313,cs)
);
},
{
closed = 1;
nodes = (
(83,241,o),
(34,190,o),
(34,125,cs),
(34,-92,o),
(580,61,o),
(580,-48,cs),
(580,-94,o),
(520,-110,o),
(379,-110,cs),
(235,-110,o),
(138,-94,o),
(30,-59,c),
(38,-177,l),
(130,-207,o),
(228,-225,o),
(362,-225,cs),
(597,-225,o),
(718,-171,o),
(718,-43,cs),
(718,223,o),
(141,42,o),
(141,165,cs),
(141,193,o),
(176,231,o),
(249,255,c),
(192,282,l)
);
},
{
closed = 1;
nodes = (
(596,507,l),
(756,507,l),
(756,617,l),
(543,550,l)
);
}
);
width = 766;
},
{
associatedMasterId = "6BCBDBF6-8315-4194-A290-F71994A92467";
layerId = "99AEA52F-F034-49E8-8FB8-2FA131A952EE";
name = foreground;
shapes = (
{
closed = 1;
nodes = (
(625,204,o),
(731,267,o),
(731,391,cs),
(731,436,o),
(711,475,o),
(672,508,c),
(673,516,l),
(622,557,o),
(536,577,o),
(414,577,cs),
(202,577,o),
(96,515,o),
(96,391,cs),
(96,267,o),
(203,204,o),
(414,204,cs)
);
},
{
closed = 1;
nodes = (
(287,314,o),
(236,344,o),
(236,392,cs),
(236,440,o),
(287,470,o),
(414,470,cs),
(539,470,o),
(591,440,o),
(591,392,cs),
(591,344,o),
(539,314,o),
(414,314,cs)
);
},
{
closed = 1;
nodes = (
(129,242,o),
(87,196,o),
(87,133,cs),
(87,-97,o),
(632,82,o),
(632,-45,cs),
(632,-85.576,o),
(574,-102,o),
(432,-102,cs),
(278,-102,o),
(181,-79,o),
(63,-14,c),
(81,-154,l),
(173,-204,o),
(271,-224,o),
(415,-224,cs),
(657,-224,o),
(778,-160,o),
(778,-32,cs),
(778,247,o),
(205,40,o),
(205,182,cs),
(205,212,o),
(229,233,o),
(291,257,c),
(195,252,l)
);
},
{
closed = 1;
nodes = (
(637,502,l),
(810,453,l),
(810,560,l),
(575,551,l)
);
}
);
width = 835;
},
{
anchors = (
{
name = bottom;
pos = (418,-215);
},
{
name = top;
pos = (418,560);
}
);
associatedMasterId = "6BCBDBF6-8315-4194-A290-F71994A92467";
background = {
shapes = (
{
closed = 1;
nodes = (
(625,204,o),
(731,267,o),
(731,391,cs),
(731,515,o),
(625,577,o),
(414,577,cs),
(203,577,o),
(96,515,o),
(96,391,cs),
(96,267,o),
(203,204,o),
(414,204,cs)
);
},
{
closed = 1;
nodes = (
(287,314,o),
(236,344,o),
(236,391,cs),
(236,438,o),
(287,467,o),
(414,467,cs),
(539,467,o),
(591,438,o),
(591,391,cs),
(591,344,o),
(539,314,o),
(414,314,cs)
);
},
{
closed = 1;
nodes = (
(149,268,o),
(82,232,o),
(82,154,cs),
(82,73,o),
(153,12,o),
(365,12,c),
(449,12,l),
(581,12,o),
(618,-6,o),
(618,-49,c),
(618,-90,o),
(578,-104,o),
(449,-104,cs),
(285,-104,o),
(170,-75,o),
(81,-23,c),
(81,-154,l),
(165,-199,o),
(278,-224,o),
(424,-224,cs),
(658,-224,o),
(758,-160,o),
(758,-48,c),
(758,54,o),
(683,122,o),
(462,122,c),
(379,122,l),
(254,122,o),
(205,140,o),
(205,182,cs),
(205,212,o),
(230,233,o),
(291,257,c),
(223,279,l)
);
},
{
closed = 1;
nodes = (
(637,501,l),
(810,452,l),
(810,559,l),
(575,559,l)
);
}
);
};
layerId = "DC58ED0F-EC26-4624-9FBA-C53987D77677";
name = "17 Mar 21, 01:49";
shapes = (
{
closed = 1;
nodes = (
(625,204,o),
(731,267,o),
(731,391,cs),
(731,437,o),
(712,474,o),
(672,508,c),
(673,516,l),
(622,557,o),
(537,577,o),
(414,577,cs),
(202,577,o),
(96,515,o),
(96,391,cs),
(96,267,o),
(203,204,o),
(414,204,cs)
);
},
{
closed = 1;
nodes = (
(288,314,o),
(236,337,o),
(236,392,cs),
(236,447,o),
(288,470,o),
(414,470,cs),
(539,470,o),
(591,447,o),
(591,392,cs),
(591,337,o),
(539,314,o),
(414,314,cs)
);
},
{
closed = 1;
nodes = (
(126,241,o),
(87,203,o),
(87,143,cs),
(87,-88,o),
(632,69,o),
(632,-46,cs),
(632,-87,o),
(574,-103,o),
(432,-103,cs),
(278,-103,o),
(181,-85,o),
(63,-20,c),
(81,-154,l),
(173,-204,o),
(271,-224,o),
(415,-224,cs),
(657,-224,o),
(778,-170,o),
(778,-43,cs),
(778,233,o),
(205,40,o),
(205,182,cs),
(205,212,o),
(229,233,o),
(291,257,c),
(195,266,l)
);
},
{
closed = 1;
nodes = (
(637,502,l),
(810,453,l),
(810,560,l),
(575,551,l)
);
}
);
width = 835;
},
{
anchors = (
{
name = bottom;
pos = (418,-215);
},
{
name = top;
pos = (418,560);
}
);
associatedMasterId = "6BCBDBF6-8315-4194-A290-F71994A92467";
background = {
shapes = (
{
closed = 1;
nodes = (
(625,204,o),
(731,267,o),
(731,391,cs),
(731,515,o),
(625,577,o),
(414,577,cs),
(203,577,o),
(96,515,o),
(96,391,cs),
(96,267,o),
(203,204,o),
(414,204,cs)
);
},
{
closed = 1;
nodes = (
(287,314,o),
(236,344,o),
(236,391,cs),
(236,438,o),
(287,467,o),
(414,467,cs),
(539,467,o),
(591,438,o),
(591,391,cs),
(591,344,o),
(539,314,o),
(414,314,cs)
);
},
{
closed = 1;
nodes = (
(149,268,o),
(82,232,o),
(82,154,cs),
(82,73,o),
(153,12,o),
(365,12,c),
(449,12,l),
(581,12,o),
(618,-6,o),
(618,-49,c),
(618,-90,o),
(578,-104,o),
(449,-104,cs),
(285,-104,o),
(170,-75,o),
(81,-23,c),
(81,-154,l),
(165,-199,o),
(278,-224,o),
(424,-224,cs),
(658,-224,o),
(758,-160,o),
(758,-48,c),
(758,54,o),
(683,122,o),
(462,122,c),
(379,122,l),
(254,122,o),
(205,140,o),
(205,182,cs),
(205,212,o),
(230,233,o),
(291,257,c),
(223,279,l)
);
},
{
closed = 1;
nodes = (
(637,501,l),
(810,452,l),
(810,559,l),
(575,559,l)
);
}
);
};
layerId = "80AA568A-EC1A-4B49-92FD-4F820AEA19E0";
name = "19 Apr 21, 12:21";
shapes = (
{
closed = 1;
nodes = (
(620,204,o),
(726,267,o),
(726,391,cs),
(726,437,o),
(707,474,o),
(667,508,c),
(668,516,l),
(617,557,o),
(532,577,o),
(414,577,cs),
(207,577,o),
(101,515,o),
(101,391,cs),
(101,267,o),
(208,204,o),
(414,204,cs)
);
},
{
closed = 1;
nodes = (
(293,313,o),
(241,336,o),
(241,392,cs),
(241,447,o),
(293,470,o),
(414,470,cs),
(534,470,o),
(586,447,o),
(586,392,cs),
(586,336,o),
(534,313,o),
(414,313,cs)
);
},
{
closed = 1;
nodes = (
(114,241,o),
(75,198,o),
(75,138,cs),
(75,-83,o),
(616,74,o),
(616,-46,cs),
(616,-93,o),
(556,-109,o),
(420,-109,cs),
(276,-109,o),
(179,-93,o),
(71,-58,c),
(79,-176,l),
(171,-206,o),
(269,-224,o),
(403,-224,cs),
(635,-224,o),
(756,-170,o),
(756,-43,cs),
(756,231,o),
(193,39,o),
(193,177,cs),
(193,207,o),
(217,233,o),
(279,257,c),
(183,266,l)
);
},
{
closed = 1;
nodes = (
(637,507,l),
(797,507,l),
(797,607,l),
(571,560,l)
);
}
);
width = 835;
},
{
anchors = (
{
name = bottom;
pos = (507,-200);
},
{
name = top;
pos = (507,580);
}
);
layerId = "4F9EBE27-C263-4ED9-B2A0-4AD0096E628D";
shapes = (
{
closed = 1;
nodes = (
(733,185,o),
(886,251,o),
(886,380,cs),
(886,430,o),
(862,478,o),
(809,513,c),
(819,516,l),
(774,565,o),
(674,602,o),
(491,602,cs),
(195,602,o),
(64,516,o),
(64,389,cs),
(64,262,o),
(194,185,o),
(473,185,cs)
);
},
{
closed = 1;
nodes = (
(397,334,o),
(354,355,o),
(354,395,cs),
(354,434,o),
(397,455,o),
(480,455,cs),
(560,455,o),
(602,434,o),
(602,395,cs),
(602,355,o),
(560,334,o),
(480,334,cs)
);
},
{
closed = 1;
nodes = (
(143,259,o),
(28,211,o),
(28,113,cs),
(28,-132,o),
(680,7,o),
(680,-71,cs),
(680,-90,o),
(641,-105,o),
(473,-105,cs),
(282,-105,o),
(123,-78,o),
(19,-43,c),
(27,-218,l),
(128,-252,o),
(246,-275,o),
(440,-275,cs),
(805,-275,o),
(938,-208,o),
(938,-76,cs),
(938,247,o),
(226,59,o),
(226,179,cs),
(226,209,o),
(271,227,o),
(355,242,c),
(259,269,l)
);
},
{
closed = 1;
nodes = (
(760,497,l),
(1020,488,l),
(1020,677,l),
(707,560,l)
);
}
);
width = 1010;
},
{
anchors = (
{
name = bottom;
pos = (513,-200);
},
{
name = top;
pos = (513,570);
}
);
associatedMasterId = "4F9EBE27-C263-4ED9-B2A0-4AD0096E628D";
layerId = "7FBFC1E7-C1F3-4605-BB7D-B046BC41BC29";
name = "29 Oct 21, 17:23";
shapes = (
{
closed = 1;
nodes = (
(719,185,o),
(872,251,o),
(872,380,cs),
(872,430,o),
(848,478,o),
(795,513,c),
(805,516,l),
(760,565,o),
(660,602,o),
(477,602,cs),
(181,602,o),
(50,516,o),
(50,389,cs),
(50,262,o),
(180,185,o),
(459,185,cs)
);
},
{
closed = 1;
nodes = (
(376,337,o),
(330,354,o),
(330,394,cs),
(330,434,o),
(376,450,o),
(463,450,cs),
(550,450,o),
(595,434,o),
(595,394,cs),
(595,354,o),
(550,337,o),
(463,337,cs)
);
},
{
closed = 1;
nodes = (
(129,259,o),
(24,211,o),
(24,113,cs),
(24,-132,o),
(640,16,o),
(640,-72,cs),
(640,-94,o),
(601,-105,o),
(469,-105,cs),
(325,-105,o),
(148,-87,o),
(40,-52,c),
(48,-227,l),
(156,-262,o),
(311,-275,o),
(456,-275,cs),
(791,-275,o),
(908,-203,o),
(908,-71,cs),
(908,237,o),
(212,59,o),
(212,179,cs),
(212,209,o),
(257,227,o),
(341,242,c),
(245,269,l)
);
},
{
closed = 1;
nodes = (
(746,497,l),
(1006,478,l),
(1006,667,l),
(693,560,l)
);
}
);
width = 1006;
}
);
},
{
glyphname = l.ss01;
kernLeft = l.ss01;
kernRight = l.ss01;
layers = (
{
anchors = (
{
name = bottom;
pos = (222,0);
},
{
name = center;
pos = (222,393);
},
{
name = top;
pos = (107,785);
},
{
name = topright;
pos = (217,785);
}
);
layerId = "6BCBDBF6-8315-4194-A290-F71994A92467";
shapes = (
{
closed = 1;
nodes = (
(40,52,o),
(131,-21,o),
(277,-21,cs),
(319,-21,o),
(365,-15,o),
(413,-1,c),
(430,119,l),
(393,108,o),
(356,103,o),
(323,103,cs),
(225,103,o),
(190,149,o),
(190,213,cs),
(190,785,l),
(40,785,l),
(40,173,ls)
);
}
);
width = 450;
},
{
associatedMasterId = "6BCBDBF6-8315-4194-A290-F71994A92467";
layerId = "CCB44788-0178-4523-89C3-3FDD0B0F0118";
name = foreground;
shapes = (
{
closed = 1;
nodes = (
(87,52,o),
(178,-21,o),
(319,-21,cs),
(366,-21,o),
(425,-13,o),
(480,12,c),
(497,130,l),
(462,114,o),
(409,103,o),
(363,103,cs),
(278,103,o),
(237,139,o),
(237,193,cs),
(237,785,l),
(87,785,l),
(87,163,ls)
);
}
);
width = 537;
},
{
anchors = (
{
name = bottom;
pos = (269,0);
},
{
name = center;
pos = (269,393);
},
{
name = top;
pos = (269,785);
},
{
name = topright;
pos = (517,785);
}
);
associatedMasterId = "6BCBDBF6-8315-4194-A290-F71994A92467";
layerId = "6951E4C3-8D03-4DF8-B779-192F00A97F88";
name = "27 Mar 21, 02:47";
shapes = (
{
closed = 1;
nodes = (
(87,52,o),
(178,-21,o),
(319,-21,cs),
(366,-21,o),
(425,-13,o),
(480,12,c),
(497,130,l),
(462,114,o),
(409,103,o),
(363,103,cs),
(278,103,o),
(237,139,o),
(237,193,cs),
(237,785,l),
(87,785,l),
(87,163,ls)
);
}
);
width = 537;
},
{
anchors = (
{
name = bottom;
pos = (310,0);
},
{
name = center;
pos = (310,400);
},
{
name = top;
pos = (310,800);
},
{
name = topright;
pos = (410,800);
}
);
layerId = "4F9EBE27-C263-4ED9-B2A0-4AD0096E628D";
shapes = (
{
closed = 1;
nodes = (
(76,51,o),
(199,-24,o),
(383,-24,cs),
(451,-24,o),
(519,-14,o),
(575,5,c),
(602,205,l),
(573,199,o),
(541,195,o),
(506,195,cs),
(401,195,o),
(356,233,o),
(356,335,cs),
(356,800,l),
(76,800,l),
(76,220,ls)
);
}
);
width = 610;
}
);
},
{
glyphname = lslash.ss01;
kernLeft = lslash;
kernRight = lslash;
layers = (
{
layerId = "6BCBDBF6-8315-4194-A290-F71994A92467";
shapes = (
{
closed = 1;
nodes = (
(20,280,l),
(435,455,l),
(435,584,l),
(20,410,l)
);
},
{
pos = (80,0);
ref = l.ss01;
}
);
width = 530;
},
{
background = {
shapes = (
{
ref = lslash;
}
);
};
layerId = "4F9EBE27-C263-4ED9-B2A0-4AD0096E628D";
shapes = (
{
closed = 1;
nodes = (
(6,221,l),
(531,488,l),
(531,677,l),
(6,411,l)
);
},
{
pos = (49,0);
ref = l.ss01;
}
);
width = 648;
}
);
},
{
glyphname = ordfeminine;
kernLeft = ordfeminine;
kernRight = ordfeminine;
layers = (
{
layerId = "4F9EBE27-C263-4ED9-B2A0-4AD0096E628D";
shapes = (
{
closed = 1;
nodes = (
(6,405,o),
(57,362,o),
(136,362,cs),
(209,362,o),
(274,397,o),
(319,466,c),
(319,381,l),
(524,381,l),
(524,587,ls),
(524,725,o),
(430,800,o),
(259,800,cs),
(181,800,o),
(89,786,o),
(38,768,c),
(38,638,l),
(111,658,o),
(160,663,o),
(206,663,cs),
(279,663,o),
(310,644,o),
(311,608,cs),
(311,606,l),
(301,606,ls),
(91,606,o),
(6,557,o),
(6,471,cs)
);
},
{
closed = 1;
nodes = (
(200,529,o),
(228,542,o),
(304,542,cs),
(311,542,l),
(311,513,l),
(273,477,o),
(249,471,o),
(233,471,cs),
(214,471,o),
(200,479,o),
(200,500,cs)
);
}
);
width = 545;
},
{
layerId = "6BCBDBF6-8315-4194-A290-F71994A92467";
shapes = (
{
closed = 1;
nodes = (
(26,413,o),
(76,373,o),
(160,373,cs),
(234,373,o),
(293,405,o),
(330,453,c),
(330,384,l),
(418,384,l),
(418,617,ls),
(418,725,o),
(346,785,o),
(218,785,cs),
(155,785,o),
(105,771,o),
(58,748,c),
(58,680,l),
(119,705,o),
(163,715,o),
(209,715,cs),
(287,715,o),
(329,682,o),
(329,621,cs),
(329,610,l),
(297,610,ls),
(117,610,o),
(26,566,o),
(26,478,cs)
);
},
{
closed = 1;
nodes = (
(113,532,o),
(165,554,o),
(300,554,cs),
(329,554,l),
(329,497,l),
(288,463,o),
(238,440,o),
(188,440,cs),
(142,440,o),
(113,459,o),
(113,490,cs)
);
}
);
width = 458;
}
);
unicode = 170;
},
{
glyphname = ordmasculine;
kernLeft = ordmasculine;
kernRight = ordmasculine;
layers = (
{
layerId = "4F9EBE27-C263-4ED9-B2A0-4AD0096E628D";
shapes = (
{
closed = 1;
nodes = (
(470,365,o),
(570,443,o),
(570,580,cs),
(570,718,o),
(469,800,o),
(293,800,cs),
(115,800,o),
(15,718,o),
(15,580,cs),
(15,443,o),
(115,365,o),
(293,365,cs)
);
},
{
closed = 1;
nodes = (
(252,500,o),
(235,528,o),
(235,581,cs),
(235,636,o),
(252,665,o),
(293,665,cs),
(332,665,o),
(350,636,o),
(350,581,cs),
(350,527,o),
(332,500,o),
(293,500,cs)
);
}
);
width = 587;
},
{
layerId = "6BCBDBF6-8315-4194-A290-F71994A92467";
shapes = (
{
closed = 1;
nodes = (
(390,372,o),
(478,454,o),
(478,578,cs),
(478,703,o),
(390,785,o),
(254,785,cs),
(118,785,o),
(29,703,o),
(29,578,cs),
(29,454,o),
(117,372,o),
(254,372,cs)
);
},
{
closed = 1;
nodes = (
(172,442,o),
(117,495,o),
(117,578,cs),
(117,661,o),
(172,715,o),
(254,715,cs),
(335,715,o),
(390,662,o),
(390,578,cs),
(390,495,o),
(335,442,o),
(254,442,cs)
);
}
);
width = 507;
}
);
unicode = 186;
},
{
glyphname = zero;
kernLeft = zero;
kernRight = zero;
layers = (
{
layerId = "6BCBDBF6-8315-4194-A290-F71994A92467";
shapes = (
{
closed = 1;
nodes = (
(664,-20,o),
(815,135,o),
(815,375,cs),
(815,615,o),
(664,770,o),
(430,770,cs),
(196,770,o),
(45,615,o),
(45,375,cs),
(45,135,o),
(196,-20,o),
(430,-20,cs)
);
},
{
closed = 1;
nodes = (
(279,105,o),
(200,198,o),
(200,375,cs),
(200,553,o),
(279,646,o),
(430,646,cs),
(581,646,o),
(660,553,o),
(660,375,cs),
(660,198,o),
(581,105,o),
(430,105,cs)
);
}
);
width = 860;
},
{
associatedMasterId = "6BCBDBF6-8315-4194-A290-F71994A92467";
layerId = "992059D2-DC2A-4960-B57F-4AF7374A9656";
name = foreground;
shapes = (
{
closed = 1;
nodes = (
(710,-21,o),
(872,138,o),
(872,375,cs),
(872,612,o),
(710,770,o),
(466,770,cs),
(222,770,o),
(60,612,o),
(60,375,cs),
(60,138,o),
(222,-21,o),
(466,-21,cs)
);
},
{
closed = 1;
nodes = (
(318,104,o),
(220,211.251,o),
(220,375,cs),
(220,537.792,o),
(318,646,o),
(466,646,cs),
(614,646,o),
(712,538,o),
(712,375,cs),
(712,211,o),
(614,104,o),
(466,104,cs)
);
}
);
width = 932;
},
{
associatedMasterId = "6BCBDBF6-8315-4194-A290-F71994A92467";
layerId = "AD433768-37EC-403E-B48C-80CA8B2E3998";
name = "6 Feb 21, 03:46";
shapes = (
{
closed = 1;
nodes = (
(675,-20,o),
(830,135,o),
(830,375,cs),
(830,615,o),
(675,770,o),
(435,770,cs),
(195,770,o),
(40,615,o),
(40,375,cs),
(40,135,o),
(195,-20,o),
(435,-20,cs)
);
},
{
closed = 1;
nodes = (
(281,105,o),
(200,198,o),
(200,375,cs),
(200,553,o),
(281,646,o),
(435,646,cs),
(589,646,o),
(670,553,o),
(670,375,cs),
(670,198,o),
(589,105,o),
(435,105,cs)
);
}
);
width = 870;
},
{
layerId = "4F9EBE27-C263-4ED9-B2A0-4AD0096E628D";
shapes = (
{
closed = 1;
nodes = (
(802,-26,o),
(953,129,o),
(953,375,cs),
(953,620,o),
(802,775,o),
(488,775,cs),
(174,775,o),
(23,620,o),
(23,375,cs),
(23,129,o),
(174,-26,o),
(488,-26,cs)
);
},
{
closed = 1;
nodes = (
(396,189,o),
(337,250,o),
(337,375,cs),
(337,500,o),
(396,561,o),
(488,561,cs),
(580,561,o),
(639,500,o),
(639,375,cs),
(639,250,o),
(580,189,o),
(488,189,cs)
);
}
);
width = 976;
}
);
metricLeft = O;
metricRight = O;
note = "
zero
";
unicode = 48;
},
{
glyphname = one;
kernLeft = one;
kernRight = one;
layers = (
{
layerId = "6BCBDBF6-8315-4194-A290-F71994A92467";
shapes = (
{
closed = 1;
nodes = (
(202,430,o),
(335,506,o),
(358,634,c),
(332,660,l),
(332,0,l),
(482,0,l),
(482,750,l),
(335,750,l),
(296,632,o),
(183,569,o),
(40,559,c),
(40,430,l)
);
}
);
width = 552;
},
{
associatedMasterId = "6BCBDBF6-8315-4194-A290-F71994A92467";
layerId = "96E45860-0173-450E-9402-17598274D5FE";
name = foreground;
shapes = (
{
closed = 1;
nodes = (
(209,431,o),
(330,488,o),
(357,569,c),
(357,0,l),
(517,0,l),
(517,750,l),
(360,750,l),
(321,632,o),
(208,559,o),
(65,559,c),
(65,431,l)
);
}
);
width = 614;
},
{
associatedMasterId = "6BCBDBF6-8315-4194-A290-F71994A92467";
layerId = "F0F97577-C173-42D3-9C4B-E6DEE168EBAB";
name = "5 Feb 21, 22:14";
shapes = (
{
closed = 1;
nodes = (
(184,441,o),
(305,498,o),
(332,579,c),
(332,0,l),
(482,0,l),
(482,750,l),
(335,750,l),
(296,632,o),
(183,569,o),
(40,559,c),
(40,441,l)
);
}
);
width = 572;
},
{
layerId = "4F9EBE27-C263-4ED9-B2A0-4AD0096E628D";
shapes = (
{
closed = 1;
nodes = (
(279,330,o),
(381,491,o),
(381,654,c),
(315,630,l),
(315,0,l),
(615,0,l),
(615,750,l),
(368,750,l),
(331,639,o),
(238,570,o),
(23,559,c),
(23,330,l)
);
}
);
width = 675;
}
);
metricRight = H;
note = "
one
";
unicode = 49;
},
{
glyphname = two;
kernLeft = two;
kernRight = two;
layers = (
{
background = {
shapes = (
{
closed = 1;
nodes = (
(713,0,l),
(713,110,l),
(249,110,l),
(352,131,o),
(472,195,o),
(588,293,cs),
(671,364,o),
(709,438,o),
(709,526,cs),
(709,671,o),
(580,768,o),
(387,768,cs),
(280,768,o),
(161,729,o),
(88,670,c),
(88,547,l),
(163,612,o),
(280,655,o),
(381,655,cs),
(501,655,o),
(579,601,o),
(579,519,cs),
(579,450,o),
(533,385,o),
(424,299,cs),
(359,247,o),
(216,154,o),
(94,110,c),
(94,0,l)
);
}
);
};
layerId = "6BCBDBF6-8315-4194-A290-F71994A92467";
shapes = (
{
closed = 1;
nodes = (
(710,0,l),
(710,132,l),
(155,132,l),
(155,114,l),
(491,175,o),
(696,327,o),
(696,530,cs),
(696,685,o),
(570,773,o),
(363,773,cs),
(266,773,o),
(164,758,o),
(73,722,c),
(73,596,l),
(156,630,o),
(258,644,o),
(339,644,cs),
(467,644,o),
(543,601,o),
(543,512,cs),
(543,403,o),
(446,328,o),
(50,148,c),
(50,0,l)
);
}
);
width = 763;
},
{
associatedMasterId = "6BCBDBF6-8315-4194-A290-F71994A92467";
layerId = "331F4CDA-F4E0-44AE-85EC-7E17F102D9E9";
name = foreground;
shapes = (
{
closed = 1;
nodes = (
(705,0,l),
(705,130,l),
(291,130,l),
(514,182,o),
(691,351,o),
(691,514,cs),
(691,659,o),
(554,768,o),
(371,768,cs),
(262,768,o),
(143,729,o),
(70,670,c),
(70,535,l),
(149,595,o),
(257,633,o),
(347,633,cs),
(455,633,o),
(531,576,o),
(531,495,cs),
(531,372,o),
(354,230,o),
(66,130,c),
(66,0,l)
);
}
);
width = 755;
},
{
associatedMasterId = "6BCBDBF6-8315-4194-A290-F71994A92467";
background = {
shapes = (
{
closed = 1;
nodes = (
(723,0,l),
(723,110,l),
(259,110,l),
(362,131,o),
(482,195,o),
(598,293,cs),
(681,364,o),
(719,438,o),
(719,526,cs),
(719,671,o),
(590,768,o),
(397,768,cs),
(290,768,o),
(171,729,o),
(98,670,c),
(98,547,l),
(173,612,o),
(290,655,o),
(391,655,cs),
(511,655,o),
(589,601,o),
(589,519,cs),
(589,450,o),
(543,385,o),
(434,299,cs),
(369,247,o),
(226,154,o),
(104,110,c),
(104,0,l)
);
}
);
};
layerId = "E440539C-39CA-413C-83A8-657D103738F9";
name = "31 Dec 20, 01:57";
shapes = (
{
closed = 1;
nodes = (
(710,0,l),
(710,130,l),
(173,124,l),
(173,101,l),
(515,159,o),
(695,307,o),
(695,507,cs),
(695,670,o),
(570,770,o),
(367,770,cs),
(265,770,o),
(161,744,o),
(74,698,c),
(55,559,l),
(143,606,o),
(249,642,o),
(336,642,cs),
(464,642,o),
(545,580,o),
(545,475,cs),
(545,352,o),
(420,267,o),
(50,140,c),
(50,0,l)
);
}
);
width = 740;
},
{
associatedMasterId = "6BCBDBF6-8315-4194-A290-F71994A92467";
background = {
shapes = (
{
closed = 1;
nodes = (
(723,0,l),
(723,110,l),
(259,110,l),
(362,131,o),
(482,195,o),
(598,293,cs),
(681,364,o),
(719,438,o),
(719,526,cs),
(719,671,o),
(590,768,o),
(397,768,cs),
(290,768,o),
(171,729,o),
(98,670,c),
(98,547,l),
(173,612,o),
(290,655,o),
(391,655,cs),
(511,655,o),
(589,601,o),
(589,519,cs),
(589,450,o),
(543,385,o),
(434,299,cs),
(369,247,o),
(226,154,o),
(104,110,c),
(104,0,l)
);
}
);
};
layerId = "377ADE13-AC34-4A96-9A2C-4E1CF542B03D";
name = "20 Jan 21, 15:10";
shapes = (
{
closed = 1;
nodes = (
(710,0,l),
(710,125,l),
(173,125,l),
(173,91,l),
(519,210,o),
(713,369,o),
(713,545,cs),
(713,682,o),
(596,770,o),
(398,770,cs),
(284,770,o),
(178,739,o),
(75,677,c),
(75,549,l),
(173,611,o),
(270,642,o),
(367,642,cs),
(478,642,o),
(563,601,o),
(563,526,cs),
(563,418,o),
(389,311,o),
(60,148,c),
(60,0,l)
);
}
);
width = 773;
},
{
associatedMasterId = "6BCBDBF6-8315-4194-A290-F71994A92467";
background = {
shapes = (
{
closed = 1;
nodes = (
(723,0,l),
(723,110,l),
(259,110,l),
(362,131,o),
(482,195,o),
(598,293,cs),
(681,364,o),
(719,438,o),
(719,526,cs),
(719,671,o),
(590,768,o),
(397,768,cs),
(290,768,o),
(171,729,o),
(98,670,c),
(98,547,l),
(173,612,o),
(290,655,o),
(391,655,cs),
(511,655,o),
(589,601,o),
(589,519,cs),
(589,450,o),
(543,385,o),
(434,299,cs),
(369,247,o),
(226,154,o),
(104,110,c),
(104,0,l)
);
}
);
};
layerId = "C668C5CE-6EDE-412C-BA5F-BD57AC37ACAE";
name = "11 Feb 21, 20:37";
shapes = (
{
closed = 1;
nodes = (
(720,0,l),
(720,132,l),
(155,132,l),
(155,127,l),
(511,185,o),
(716,327,o),
(716,530,cs),
(716,685,o),
(600,773,o),
(396,773,cs),
(291,773,o),
(179,749,o),
(93,715,c),
(93,587,l),
(167,617,o),
(278,644,o),
(374,644,cs),
(497,644,o),
(563,601,o),
(563,520,cs),
(563,415,o),
(417,306,o),
(60,148,c),
(60,0,l)
);
}
);
width = 773;
},
{
layerId = "4F9EBE27-C263-4ED9-B2A0-4AD0096E628D";
shapes = (
{
closed = 1;
nodes = (
(853,0,l),
(853,225,l),
(214,184,l),
(214,145,l),
(704,269,o),
(831,377,o),
(831,525,cs),
(831,672,o),
(697,775,o),
(402,775,cs),
(277,775,o),
(159,754,o),
(55,711,c),
(55,473,l),
(137,507,o),
(232,534,o),
(327,534,cs),
(418,534,o),
(479,508,o),
(479,451,cs),
(479,385,o),
(400,328,o),
(28,230,c),
(28,0,l)
);
}
);
width = 870;
},
{
associatedMasterId = "4F9EBE27-C263-4ED9-B2A0-4AD0096E628D";
layerId = "288FEA9D-83BC-4A60-99EB-77161CB2DBC0";
name = "18 Nov 21, 09:40";
shapes = (
{
closed = 1;
nodes = (
(810,0,l),
(810,222,l),
(241,182,l),
(225,114,l),
(609,215,o),
(796,362,o),
(796,540,cs),
(796,685,o),
(670,773,o),
(383,773,cs),
(257,773,o),
(155,755,o),
(73,719,c),
(73,521,l),
(150,545,o),
(240,562,o),
(321,562,cs),
(425,562,o),
(483,536,o),
(483,474,cs),
(483,403,o),
(408,328,o),
(50,188,c),
(50,0,l)
);
}
);
width = 840;
}
);
note = "
two
";
unicode = 50;
},
{
glyphname = three;
kernLeft = three;
kernRight = three;
layers = (
{
associatedMasterId = "6BCBDBF6-8315-4194-A290-F71994A92467";
layerId = "106CF929-438E-4379-A7AA-3002D5513563";
name = foreground;
shapes = (
{
closed = 1;
nodes = (
(117,2,o),
(226,-19,o),
(364,-19,cs),
(578,-19,o),
(720,77,o),
(720,221,cs),
(720,338,o),
(596,433,o),
(400,433,c),
(702,625,l),
(702,750,l),
(61,750,l),
(61,620,l),
(532,620,l),
(241,451,l),
(241,333,l),
(495.665,334.787,o),
(560,283,o),
(560,209,cs),
(560,151.4,o),
(477,113,o),
(354,113,cs),
(207,113,o),
(100,137,o),
(45,158,c),
(45,20,l)
);
}
);
width = 750;
},
{
associatedMasterId = "6BCBDBF6-8315-4194-A290-F71994A92467";
layerId = "B5CAE69A-9ED0-4981-98E1-1E5BC4EBD250";
name = "5 Feb 21, 21:19";
shapes = (
{
closed = 1;
nodes = (
(167,-6,o),
(260,-19,o),
(362,-19,cs),
(595,-19,o),
(740,65,o),
(740,219,cs),
(740,356,o),
(643,421,o),
(353,421,c),
(680,630,l),
(680,750,l),
(82,750,l),
(82,625,l),
(507,625,l),
(240,451,l),
(240,333,l),
(466,335,o),
(580,296,o),
(580,216,cs),
(580,150,o),
(496,113,o),
(353,113,cs),
(251,113,o),
(147,128,o),
(50,158,c),
(64,20,l)
);
}
);
width = 790;
},
{
associatedMasterId = "6BCBDBF6-8315-4194-A290-F71994A92467";
layerId = "317C0F2F-D090-4F83-850F-8AF979049EB4";
name = "5 Feb 21, 21:19";
shapes = (
{
closed = 1;
nodes = (
(167,-6,o),
(260,-19,o),
(362,-19,cs),
(595,-19,o),
(740,65,o),
(740,219,cs),
(740,356,o),
(623,433,o),
(429,433,c),
(701,625,l),
(701,750,l),
(70,750,l),
(70,630,l),
(501,630,l),
(260,451,l),
(260,333,l),
(457,335,o),
(580,296,o),
(580,216,cs),
(580,150,o),
(496,113,o),
(353,113,cs),
(251,113,o),
(147,128,o),
(50,158,c),
(64,20,l)
);
}
);
width = 790;
},
{
associatedMasterId = "6BCBDBF6-8315-4194-A290-F71994A92467";
layerId = "128FAF94-5D0D-4790-BB2C-108FD75ECF0B";
name = "6 Feb 21, 03:43";
shapes = (
{
closed = 1;
nodes = (
(167,-6,o),
(260,-19,o),
(362,-19,cs),
(596,-19,o),
(741,65,o),
(741,216,cs),
(741,352,o),
(614,426,o),
(424,402,c),
(701,625,l),
(701,750,l),
(70,750,l),
(70,626,l),
(526,626,l),
(247,376,l),
(355,361,ls),
(499,341,o),
(580,305,o),
(580,227,cs),
(580,152,o),
(496,115,o),
(353,115,cs),
(251,115,o),
(147,130,o),
(50,160,c),
(64,20,l)
);
}
);
width = 790;
},
{
associatedMasterId = "6BCBDBF6-8315-4194-A290-F71994A92467";
layerId = "9BB24014-45AF-47E4-8A1E-57E604CB1B57";
name = "27 Mar 21, 23:56";
shapes = (
{
closed = 1;
nodes = (
(167,-6,o),
(260,-19,o),
(362,-19,cs),
(596,-19,o),
(741,65,o),
(741,225,cs),
(741,381,o),
(591,452,o),
(364,412,c),
(695,625,l),
(695,750,l),
(80,750,l),
(80,630,l),
(577,630,l),
(575,669,l),
(217,426,l),
(217,361,l),
(362,361,ls),
(508,361,o),
(580,311,o),
(580,236,cs),
(580,158,o),
(496,115,o),
(343,115,cs),
(251,115,o),
(147,130,o),
(50,160,c),
(64,20,l)
);
}
);
width = 790;
},
{
layerId = "6BCBDBF6-8315-4194-A290-F71994A92467";
name = "150";
shapes = (
{
closed = 1;
nodes = (
(167,-6,o),
(260,-19,o),
(362,-19,cs),
(596,-19,o),
(741,65,o),
(741,225,cs),
(741,381,o),
(591,452,o),
(444,422,c),
(695,625,l),
(695,750,l),
(80,750,l),
(80,626,l),
(577,626,l),
(561,670,l),
(217,376,l),
(217,361,l),
(362,361,ls),
(508,361,o),
(580,311,o),
(580,236,cs),
(580,158,o),
(496,115,o),
(353,115,cs),
(251,115,o),
(147,130,o),
(50,160,c),
(64,20,l)
);
}
);
width = 790;
},
{
layerId = "4F9EBE27-C263-4ED9-B2A0-4AD0096E628D";
shapes = (
{
closed = 1;
nodes = (
(157,-7,o),
(256,-26,o),
(396,-26,cs),
(693,-26,o),
(848,63,o),
(848,230,cs),
(848,386,o),
(698,452,o),
(511,422,c),
(802,567,l),
(802,750,l),
(67,750,l),
(67,550,l),
(694,550,l),
(618,660,l),
(204,436,l),
(204,302,l),
(369,302,ls),
(471,302,o),
(537,292,o),
(537,250,cs),
(537,209,o),
(473,191,o),
(370,191,cs),
(218,191,o),
(115,224,o),
(35,254,c),
(59,23,l)
);
}
);
width = 895;
}
);
note = "
three
";
unicode = 51;
},
{
glyphname = four;
kernLeft = four;
kernRight = four;
layers = (
{
layerId = "6BCBDBF6-8315-4194-A290-F71994A92467";
shapes = (
{
closed = 1;
nodes = (
(509,161,l),
(509,0,l),
(659,0,l),
(659,161,l),
(809,161,l),
(809,281,l),
(659,281,l),
(659,750,l),
(412,750,l),
(30,271,l),
(30,161,l)
);
},
{
closed = 1;
nodes = (
(509,657,l),
(509,281,l),
(211,281,l)
);
}
);
width = 829;
},
{
associatedMasterId = "6BCBDBF6-8315-4194-A290-F71994A92467";
layerId = "4BA23E3C-B069-42D3-8469-103DBF093A26";
name = foreground;
shapes = (
{
closed = 1;
nodes = (
(581,122,l),
(581,-10,l),
(703,-10,l),
(703,122,l),
(851,122,l),
(851,232,l),
(703,232,l),
(703,760,l),
(567,760,l),
(60,232,l),
(60,122,l)
);
},
{
closed = 1;
nodes = (
(581,619,l),
(581,232,l),
(210,232,l)
);
}
);
width = 891;
},
{
associatedMasterId = "6BCBDBF6-8315-4194-A290-F71994A92467";
layerId = "B3F0AE86-48D5-4612-88C4-19BAFFA2A699";
name = "5 Feb 21, 21:30";
shapes = (
{
closed = 1;
nodes = (
(531,161,l),
(531,0,l),
(681,0,l),
(681,161,l),
(811,161,l),
(811,280,l),
(681,280,l),
(681,760,l),
(525,760,l),
(430,593,o),
(261,389,o),
(87,269,c),
(87,161,l)
);
},
{
closed = 1;
nodes = (
(356,330,o),
(477,439,o),
(533,593,c),
(533,280,l),
(190,280,l)
);
}
);
width = 871;
},
{
associatedMasterId = "6BCBDBF6-8315-4194-A290-F71994A92467";
layerId = "4D343D58-1D35-4523-A496-81CC78F89FAC";
name = "5 Feb 21, 21:35";
shapes = (
{
closed = 1;
nodes = (
(531,161,l),
(531,0,l),
(681,0,l),
(681,161,l),
(811,161,l),
(811,280,l),
(681,280,l),
(681,750,l),
(526,750,l),
(479,612,o),
(415,500,o),
(78,269,c),
(78,161,l)
);
},
{
closed = 1;
nodes = (
(383,360,o),
(520,524,o),
(533,630,c),
(533,280,l),
(261,280,l)
);
}
);
width = 871;
},
{
associatedMasterId = "6BCBDBF6-8315-4194-A290-F71994A92467";
layerId = "C5BE08DB-22EA-4198-9CCD-B2E2D50898CC";
name = "6 Feb 21, 04:10";
shapes = (
{
closed = 1;
nodes = (
(504,161,l),
(504,0,l),
(654,0,l),
(654,161,l),
(804,161,l),
(804,280,l),
(654,280,l),
(654,760,l),
(458,760,l),
(403,593,o),
(234,389,o),
(40,269,c),
(40,161,l)
);
},
{
closed = 1;
nodes = (
(329,330,o),
(450,439,o),
(506,707,c),
(506,280,l),
(254,280,l)
);
}
);
width = 844;
},
{
layerId = "4F9EBE27-C263-4ED9-B2A0-4AD0096E628D";
shapes = (
{
closed = 1;
nodes = (
(572,121,l),
(572,0,l),
(862,0,l),
(862,131,l),
(1002,131,l),
(1002,351,l),
(862,351,l),
(862,750,l),
(375,750,l),
(23,331,l),
(23,121,l)
);
},
{
closed = 1;
nodes = (
(572,597,l),
(572,341,l),
(358,341,l)
);
}
);
width = 1025;
}
);
note = "
four
";
unicode = 52;
},
{
glyphname = five;
kernLeft = five;
kernRight = five;
layers = (
{
associatedMasterId = "6BCBDBF6-8315-4194-A290-F71994A92467";
layerId = "D07876C0-D168-4D1D-AECB-DC1CFDC8B0F4";
name = foreground;
shapes = (
{
closed = 1;
nodes = (
(124,9,o),
(252,-19,o),
(376,-19,cs),
(584,-19,o),
(723,76,o),
(723,221,cs),
(723,333,o),
(623,447,o),
(422,447,cs),
(184,447,l),
(184,640,l),
(682,640,l),
(682,750,l),
(71,750,l),
(71,343,l),
(383,343,ls),
(543,343,o),
(602,294,o),
(602,221,cs),
(602,144,o),
(512,92,o),
(376,92,cs),
(242,92,o),
(114,126,o),
(55,177,c),
(55,51,l)
);
}
);
width = 614;
},
{
associatedMasterId = "6BCBDBF6-8315-4194-A290-F71994A92467";
layerId = "FFECC099-B55B-4111-8416-931D19D869F7";
name = "4 Mar 21, 02:26";
shapes = (
{
closed = 1;
nodes = (
(130,8,o),
(237,-19,o),
(372,-19,cs),
(587,-19,o),
(719,65,o),
(719,227,cs),
(719,364,o),
(592,462,o),
(415,462,cs),
(324,462,o),
(250,434,o),
(211,387,c),
(211,624,l),
(680,624,l),
(680,750,l),
(76,750,l),
(76,343,l),
(368,343,ls),
(494,343,o),
(569,307,o),
(569,231,cs),
(569,154,o),
(492,113,o),
(361,113,cs),
(227,113,o),
(120,147,o),
(50,179,c),
(50,41,l)
);
}
);
width = 764;
},
{
associatedMasterId = "6BCBDBF6-8315-4194-A290-F71994A92467";
layerId = "956CCA22-98A8-4F7C-A439-5389374DC0C8";
name = "17 Mar 21, 02:03";
shapes = (
{
closed = 1;
nodes = (
(130,8,o),
(237,-19,o),
(372,-19,cs),
(587,-19,o),
(719,65,o),
(719,227,cs),
(719,364,o),
(592,462,o),
(415,462,cs),
(324,462,o),
(250,434,o),
(211,387,c),
(211,624,l),
(680,624,l),
(680,750,l),
(76,750,l),
(76,343,l),
(166,292,l),
(214,325,o),
(279,343,o),
(368,343,cs),
(495,343,o),
(569,307,o),
(569,231,cs),
(569,154,o),
(492,113,o),
(361,113,cs),
(227,113,o),
(120,147,o),
(50,179,c),
(50,41,l)
);
}
);
width = 764;
},
{
associatedMasterId = "6BCBDBF6-8315-4194-A290-F71994A92467";
layerId = "22B44FAC-4548-42B0-A755-2C6D1C1943EB";
name = "28 Mar 21, 00:02";
shapes = (
{
closed = 1;
nodes = (
(130,8,o),
(237,-19,o),
(372,-19,cs),
(587,-19,o),
(719,65,o),
(719,227,cs),
(719,364,o),
(592,462,o),
(415,462,cs),
(324,462,o),
(250,434,o),
(211,387,c),
(211,624,l),
(680,624,l),
(680,750,l),
(76,750,l),
(76,343,l),
(144,343,o),
(260,343,o),
(347,343,cs),
(499,343,o),
(569,305,o),
(569,231,cs),
(569,154,o),
(492,113,o),
(361,113,cs),
(227,113,o),
(120,147,o),
(50,179,c),
(50,41,l)
);
}
);
width = 764;
},
{
layerId = "6BCBDBF6-8315-4194-A290-F71994A92467";
name = "150";
shapes = (
{
closed = 1;
nodes = (
(161,2,o),
(271,-19,o),
(387,-19,cs),
(609,-19,o),
(734,70,o),
(734,227,cs),
(734,364,o),
(607,462,o),
(430,462,cs),
(345,462,o),
(272,440,o),
(226,407,c),
(226,624,l),
(695,624,l),
(695,750,l),
(94,750,l),
(94,312,l),
(227,335,o),
(300,343,o),
(367,343,cs),
(515,343,o),
(584,304,o),
(584,231,cs),
(584,155,o),
(509,113,o),
(376,113,cs),
(269,113,o),
(158,136,o),
(65,179,c),
(65,41,l)
);
}
);
width = 784;
},
{
layerId = "4F9EBE27-C263-4ED9-B2A0-4AD0096E628D";
shapes = (
{
closed = 1;
nodes = (
(145,1,o),
(286,-26,o),
(438,-26,cs),
(780,-26,o),
(905,80,o),
(905,244,cs),
(905,384,o),
(812,472,o),
(575,472,cs),
(478,472,o),
(404,457,o),
(347,417,c),
(347,555,l),
(837,555,l),
(837,750,l),
(75,750,l),
(75,295,l),
(131,303,o),
(234,313,o),
(368,313,cs),
(541,313,o),
(595,294,o),
(595,250,cs),
(595,208,o),
(544,193,o),
(418,193,cs),
(269,193,o),
(158,211,o),
(46,249,c),
(46,41,l)
);
}
);
width = 941;
}
);
note = "
five
";
unicode = 53;
},
